<svg width="48" height="48" viewBox="0 0 48 48" fill="none" xmlns="http://www.w3.org/2000/svg">
<path fill-rule="evenodd" clip-rule="evenodd" d="M34.9487 27.6172C35.1206 27.0547 35.2066 26.4062 35.2066 25.6719V22.9531C35.2066 22.2188 35.1206 21.5729 34.9487 21.0156C34.7769 20.4531 34.5321 19.9818 34.2144 19.6016C33.8915 19.2266 33.5008 18.9427 33.0425 18.75C32.5842 18.5573 32.0685 18.4609 31.4956 18.4609C30.9279 18.4609 30.4149 18.5573 29.9566 18.75C29.5034 18.9427 29.118 19.2266 28.8003 19.6016C28.4774 19.9818 28.23 20.4531 28.0581 21.0156C27.8862 21.5729 27.8003 22.2188 27.8003 22.9531V25.6719C27.8003 26.4062 27.8862 27.0547 28.0581 27.6172C28.2352 28.1745 28.4852 28.6406 28.8081 29.0156C29.1258 29.3958 29.5139 29.6823 29.9722 29.875C30.4305 30.0677 30.9435 30.1641 31.5112 30.1641C32.0842 30.1641 32.5998 30.0677 33.0581 29.875C33.5165 29.6823 33.9045 29.3958 34.2222 29.0156C34.5399 28.6406 34.7821 28.1745 34.9487 27.6172ZM33.0191 22.4766L29.9878 24.7344V22.6094C29.9878 22.1875 30.0191 21.8229 30.0816 21.5156C30.1493 21.2083 30.2508 20.9583 30.3862 20.7656C30.5112 20.5833 30.6649 20.4479 30.8472 20.3594C31.0347 20.2656 31.2508 20.2188 31.4956 20.2188C31.7144 20.2188 31.9097 20.2552 32.0816 20.3281C32.2586 20.3958 32.4071 20.5026 32.5269 20.6484C32.6831 20.8307 32.8003 21.0755 32.8784 21.3828C32.9618 21.6849 33.0086 22.0495 33.0191 22.4766ZM33.0191 26C33.0191 26.4219 32.9852 26.7891 32.9175 27.1016C32.855 27.4089 32.7586 27.6615 32.6284 27.8594C32.5034 28.0469 32.3472 28.1875 32.1597 28.2812C31.9722 28.3698 31.756 28.4141 31.5112 28.4141C31.2456 28.4141 31.0165 28.362 30.8237 28.2578C30.631 28.1536 30.4722 27.9948 30.3472 27.7812C30.2378 27.6042 30.1519 27.3828 30.0894 27.1172C30.0321 26.8516 29.9982 26.5469 29.9878 26.2031L33.0191 23.9531V26Z" fill="white"/>
<path d="M14.2891 23.3594H15.4688C15.7812 23.3594 16.0495 23.3177 16.2734 23.2344C16.5026 23.1458 16.6875 23.0234 16.8281 22.8672C16.9583 22.7318 17.0547 22.5677 17.1172 22.375C17.1849 22.1771 17.2188 21.9635 17.2188 21.7344C17.2188 21.5104 17.1849 21.3073 17.1172 21.125C17.0547 20.9375 16.9583 20.776 16.8281 20.6406C16.6979 20.5104 16.5312 20.4089 16.3281 20.3359C16.1302 20.263 15.8984 20.2266 15.6328 20.2266C15.4141 20.2266 15.2083 20.2578 15.0156 20.3203C14.8281 20.3828 14.6641 20.4714 14.5234 20.5859C14.3776 20.7057 14.263 20.849 14.1797 21.0156C14.0964 21.1823 14.0547 21.3698 14.0547 21.5781H11.8828C11.8828 21.1146 11.9766 20.6927 12.1641 20.3125C12.3568 19.9323 12.6198 19.6042 12.9531 19.3281C13.2865 19.0573 13.6771 18.8464 14.125 18.6953C14.5781 18.5443 15.0651 18.4688 15.5859 18.4688C16.1484 18.4688 16.6641 18.5391 17.1328 18.6797C17.6016 18.8151 18.0026 19.0182 18.3359 19.2891C18.6693 19.5651 18.9271 19.9062 19.1094 20.3125C19.2969 20.7135 19.3906 21.1797 19.3906 21.7109C19.3906 21.9557 19.3542 22.1979 19.2812 22.4375C19.2083 22.6719 19.1016 22.8958 18.9609 23.1094C18.8203 23.3229 18.6458 23.5208 18.4375 23.7031C18.2292 23.8802 17.9896 24.0339 17.7188 24.1641C18.0365 24.2786 18.3099 24.4245 18.5391 24.6016C18.7734 24.7786 18.9661 24.9792 19.1172 25.2031C19.2682 25.4323 19.3802 25.6823 19.4531 25.9531C19.526 26.224 19.5625 26.5104 19.5625 26.8125C19.5625 27.3438 19.4609 27.8177 19.2578 28.2344C19.0547 28.651 18.776 29 18.4219 29.2812C18.0677 29.5677 17.6458 29.7865 17.1562 29.9375C16.6719 30.0833 16.1484 30.1562 15.5859 30.1562C15.1016 30.1562 14.6276 30.0911 14.1641 29.9609C13.7057 29.8255 13.2969 29.6224 12.9375 29.3516C12.5781 29.0859 12.2891 28.75 12.0703 28.3438C11.8568 27.9375 11.75 27.4583 11.75 26.9062H13.9219C13.9219 27.125 13.9635 27.3281 14.0469 27.5156C14.1302 27.6979 14.25 27.8542 14.4062 27.9844C14.5573 28.1198 14.737 28.2266 14.9453 28.3047C15.1536 28.3776 15.3828 28.4141 15.6328 28.4141C15.9141 28.4141 16.1667 28.375 16.3906 28.2969C16.6146 28.2188 16.8021 28.1042 16.9531 27.9531C17.099 27.8177 17.2083 27.651 17.2812 27.4531C17.3594 27.2552 17.3984 27.0339 17.3984 26.7891C17.3984 26.4818 17.3542 26.2188 17.2656 26C17.1771 25.7812 17.0495 25.6016 16.8828 25.4609C16.7109 25.3203 16.5052 25.2161 16.2656 25.1484C16.0312 25.0807 15.7656 25.0469 15.4688 25.0469H14.2891V23.3594Z" fill="white"/>
<path d="M22.1462 28.7422C22.1462 28.3411 22.2791 28.0026 22.5447 27.7266C22.8103 27.4453 23.1801 27.3047 23.6541 27.3047C24.1228 27.3047 24.49 27.4427 24.7556 27.7188C25.0265 27.9948 25.1619 28.3359 25.1619 28.7422C25.1619 29.1484 25.0239 29.487 24.7478 29.7578C24.477 30.0234 24.1124 30.1562 23.6541 30.1562C23.1905 30.1562 22.8233 30.0208 22.5525 29.75C22.2817 29.4792 22.1462 29.1432 22.1462 28.7422Z" fill="white"/>
<path fill-rule="evenodd" clip-rule="evenodd" d="M24 5.45947C13.7603 5.45947 5.45947 13.7603 5.45947 24C5.45947 34.2397 13.7603 42.5405 24 42.5405C34.2397 42.5405 42.5405 34.2397 42.5405 24C42.5405 13.7603 34.2397 5.45947 24 5.45947ZM1.45947 24C1.45947 11.5512 11.5512 1.45947 24 1.45947C36.4488 1.45947 46.5405 11.5512 46.5405 24C46.5405 36.4488 36.4488 46.5405 24 46.5405C11.5512 46.5405 1.45947 36.4488 1.45947 24Z" fill="white"/>
</svg>
