<svg width="48" height="48" viewBox="0 0 48 48" fill="none" xmlns="http://www.w3.org/2000/svg">
<path d="M17.9699 15.613C18.5611 15.613 19.0435 15.1346 19.0435 14.5394V7.93096C19.0435 7.33585 18.565 6.85742 17.9699 6.85742C17.3747 6.85742 16.8962 7.33585 16.8962 7.93096V14.5433C16.8962 15.1346 17.3747 15.6169 17.9699 15.6169V15.613Z" fill="white"/>
<path d="M29.7835 15.613C30.3748 15.613 30.8572 15.1346 30.8572 14.5394V7.93096C30.8572 7.33974 30.3787 6.85742 29.7835 6.85742C29.1884 6.85742 28.7099 7.33585 28.7099 7.93096V14.5433C28.7099 15.1346 29.1884 15.6169 29.7835 15.6169V15.613Z" fill="white"/>
<path d="M8 36.6248C8 39.5225 10.3573 41.8796 13.2553 41.8796H34.2686C37.1666 41.8796 39.52 39.5225 39.52 36.6248V20.864H8V36.6248ZM32.063 26.2433C32.7749 26.2433 33.3506 26.819 33.3506 27.5308C33.3506 28.2426 32.7749 28.8183 32.063 28.8183C31.3512 28.8183 30.7755 28.2426 30.7755 27.5308C30.7755 26.819 31.3512 26.2433 32.063 26.2433ZM32.063 32.315C32.7749 32.315 33.3506 32.8907 33.3506 33.6025C33.3506 34.3143 32.7749 34.89 32.063 34.89C31.3512 34.89 30.7755 34.3143 30.7755 33.6025C30.7755 32.8907 31.3512 32.315 32.063 32.315ZM23.4897 26.2433C24.2015 26.2433 24.7772 26.819 24.7772 27.5308C24.7772 28.2426 24.2015 28.8183 23.4897 28.8183C22.7778 28.8183 22.2021 28.2426 22.2021 27.5308C22.2021 26.819 22.7778 26.2433 23.4897 26.2433ZM23.4897 32.315C24.2015 32.315 24.7772 32.8907 24.7772 33.6025C24.7772 34.3143 24.2015 34.89 23.4897 34.89C22.7778 34.89 22.2021 34.3143 22.2021 33.6025C22.2021 32.8907 22.7778 32.315 23.4897 32.315ZM14.9124 26.2433C15.6242 26.2433 16.1999 26.819 16.1999 27.5308C16.1999 28.2426 15.6242 28.8183 14.9124 28.8183C14.2005 28.8183 13.6248 28.2426 13.6248 27.5308C13.6248 26.819 14.2005 26.2433 14.9124 26.2433ZM14.9124 32.315C15.6242 32.315 16.1999 32.8907 16.1999 33.6025C16.1999 34.3143 15.6242 34.89 14.9124 34.89C14.2005 34.89 13.6248 34.3143 13.6248 33.6025C13.6248 32.8907 14.2005 32.315 14.9124 32.315Z" fill="white"/>
<path d="M34.2686 10.3581H32.7982V14.5394C32.7982 16.2042 31.4445 17.5578 29.7796 17.5578C28.1148 17.5578 26.7611 16.2042 26.7611 14.5394V10.3581H20.9845V14.5394C20.9845 16.2042 19.6309 17.5578 17.966 17.5578C16.3011 17.5578 14.9474 16.2042 14.9474 14.5394V10.3581H13.2475C10.3573 10.3581 8 12.7152 8 15.613V18.2929H39.52V15.613C39.52 12.7152 37.1627 10.3581 34.2686 10.3581Z" fill="white"/>
</svg>
