<svg width="48" height="48" viewBox="0 0 48 48" fill="none" xmlns="http://www.w3.org/2000/svg">
<path d="M34.2686 10.3583H30.8533V7.93104C30.8533 7.33977 30.3748 6.85742 29.7796 6.85742C29.1845 6.85742 28.706 7.33588 28.706 7.93104V10.3622H19.0396V7.93104C19.0435 7.33588 18.565 6.85742 17.9699 6.85742C17.3747 6.85742 16.8962 7.33588 16.8962 7.93104V10.3622H13.2514C10.3573 10.3583 8 12.7156 8 15.6136V36.627C8 39.5249 10.3573 41.8822 13.2553 41.8822H34.2686C37.1666 41.8822 39.5239 39.5249 39.5239 36.627V15.6136C39.5239 12.7156 37.1666 10.3583 34.2686 10.3583ZM36.9488 36.627C36.9488 38.1051 35.7468 39.3071 34.2686 39.3071H13.2553C11.7771 39.3071 10.5751 38.1051 10.5751 36.627V20.865H36.9488V36.627ZM10.5751 18.2938V15.6136C10.5751 14.1355 11.7771 12.9335 13.2553 12.9335H16.9001V14.54C16.9001 15.1313 17.3786 15.6136 17.9737 15.6136C18.5689 15.6136 19.0474 15.1352 19.0474 14.54V12.9335H28.7138V14.54C28.7138 15.1313 29.1923 15.6136 29.7874 15.6136C30.3826 15.6136 30.861 15.1352 30.861 14.54V12.9335H34.2764C35.7546 12.9335 36.9565 14.1355 36.9565 15.6136V18.2938H10.5751Z" fill="white"/>
<path d="M14.9124 28.816C15.6235 28.816 16.1999 28.2395 16.1999 27.5284C16.1999 26.8173 15.6235 26.2409 14.9124 26.2409C14.2013 26.2409 13.6248 26.8173 13.6248 27.5284C13.6248 28.2395 14.2013 28.816 14.9124 28.816Z" fill="white"/>
<path d="M23.4896 28.816C24.2007 28.816 24.7772 28.2395 24.7772 27.5284C24.7772 26.8173 24.2007 26.2409 23.4896 26.2409C22.7785 26.2409 22.2021 26.8173 22.2021 27.5284C22.2021 28.2395 22.7785 28.816 23.4896 28.816Z" fill="white"/>
<path d="M32.063 28.816C32.7741 28.816 33.3506 28.2395 33.3506 27.5284C33.3506 26.8173 32.7741 26.2409 32.063 26.2409C31.3519 26.2409 30.7755 26.8173 30.7755 27.5284C30.7755 28.2395 31.3519 28.816 32.063 28.816Z" fill="white"/>
<path d="M14.9124 34.8921C15.6235 34.8921 16.1999 34.3156 16.1999 33.6045C16.1999 32.8934 15.6235 32.3169 14.9124 32.3169C14.2013 32.3169 13.6248 32.8934 13.6248 33.6045C13.6248 34.3156 14.2013 34.8921 14.9124 34.8921Z" fill="white"/>
<path d="M23.4896 34.8921C24.2007 34.8921 24.7772 34.3156 24.7772 33.6045C24.7772 32.8934 24.2007 32.3169 23.4896 32.3169C22.7785 32.3169 22.2021 32.8934 22.2021 33.6045C22.2021 34.3156 22.7785 34.8921 23.4896 34.8921Z" fill="white"/>
<path d="M32.063 34.8921C32.7741 34.8921 33.3506 34.3156 33.3506 33.6045C33.3506 32.8934 32.7741 32.3169 32.063 32.3169C31.3519 32.3169 30.7755 32.8934 30.7755 33.6045C30.7755 34.3156 31.3519 34.8921 32.063 34.8921Z" fill="white"/>
</svg>
