<svg width="48" height="48" viewBox="0 0 48 48" fill="none" xmlns="http://www.w3.org/2000/svg">
<path fill-rule="evenodd" clip-rule="evenodd" d="M24 3C25.1835 3 26.1429 3.95939 26.1429 5.14286V21.8571H42.8571C44.0406 21.8571 45 22.8165 45 24C45 25.1835 44.0406 26.1429 42.8571 26.1429H26.1429V42.8571C26.1429 44.0406 25.1835 45 24 45C22.8165 45 21.8571 44.0406 21.8571 42.8571V26.1429H5.14286C3.95939 26.1429 3 25.1835 3 24C3 22.8165 3.95939 21.8571 5.14286 21.8571H21.8571V5.14286C21.8571 3.95939 22.8165 3 24 3Z" fill="white"/>
</svg>
