<svg width="48" height="48" viewBox="0 0 48 48" fill="none" xmlns="http://www.w3.org/2000/svg">
<path fill-rule="evenodd" clip-rule="evenodd" d="M6.32844 18.8873L7.38452 18.5394C9.90478 17.7092 11.4011 15.1388 10.8674 12.5565L10.6271 11.3942C10.3053 9.83751 10.9015 8.13872 12.3343 7.16123C12.78 6.85718 13.2406 6.56844 13.7159 6.29605C14.19 6.02432 14.671 5.77321 15.1579 5.54254C16.7272 4.79908 18.5076 5.13581 19.705 6.19098L20.599 6.97884C22.5848 8.72885 25.5754 8.72765 27.5598 6.97603L28.3933 6.24026C29.5955 5.17914 31.3865 4.84326 32.9602 5.59778C33.9659 6.07996 34.9357 6.64502 35.858 7.29009C37.2728 8.27964 37.85 9.97465 37.5198 11.5213L37.3243 12.4374C36.7687 15.0397 38.2803 17.6388 40.8283 18.4623L41.64 18.7247C43.166 19.2179 44.3614 20.5783 44.5034 22.3044C44.5976 23.4477 44.5936 24.5912 44.4951 25.7228C44.3463 27.4314 43.1654 28.7791 41.6554 29.2765L40.7104 29.5878C38.1901 30.418 36.6938 32.9884 37.2275 35.5707L37.4255 36.5285C37.7462 38.08 37.1553 39.773 35.7314 40.7525C35.2654 41.073 34.7829 41.3768 34.2844 41.6625C33.7847 41.9489 33.2773 42.2124 32.7635 42.4532C31.1972 43.1872 29.4251 42.8486 28.2323 41.7973L27.4959 41.1484C25.5101 39.3984 22.5195 39.3996 20.5351 41.1512L19.793 41.8062C18.6041 42.8557 16.8379 43.1972 15.2729 42.4707C14.2359 41.9892 13.2357 41.4204 12.2848 40.7673C10.8504 39.782 10.2615 38.0743 10.5942 36.516L10.7706 35.6899C11.3261 33.0876 9.81454 30.4884 7.26658 29.6649L6.37253 29.3759C4.85834 28.8865 3.66834 27.5431 3.51227 25.8322C3.41045 24.716 3.40228 23.599 3.4845 22.4925C3.61308 20.7622 4.80163 19.3903 6.32844 18.8873ZM30.0001 23.9997C30.0001 27.3134 27.3138 29.9997 24.0001 29.9997C20.6864 29.9997 18.0001 27.3134 18.0001 23.9997C18.0001 20.686 20.6864 17.9997 24.0001 17.9997C27.3138 17.9997 30.0001 20.686 30.0001 23.9997Z" fill="white"/>
</svg>
