<svg width="48" height="48" viewBox="0 0 48 48" fill="none" xmlns="http://www.w3.org/2000/svg">
<path fill-rule="evenodd" clip-rule="evenodd" d="M40.7104 29.5878C38.1901 30.418 36.6938 32.9884 37.2275 35.5707L37.4255 36.5285C37.7462 38.08 37.1553 39.773 35.7314 40.7525C35.2654 41.073 34.7829 41.3768 34.2844 41.6625C33.7847 41.9489 33.2773 42.2124 32.7635 42.4532C31.1972 43.1872 29.4252 42.8486 28.2323 41.7973L27.4959 41.1484C25.5101 39.3984 22.5195 39.3996 20.5351 41.1512L19.793 41.8062C18.6041 42.8557 16.8379 43.1972 15.2729 42.4707C14.2359 41.9892 13.2357 41.4204 12.2848 40.7673C10.8504 39.782 10.2615 38.0743 10.5942 36.516L10.7706 35.6899C11.3261 33.0876 9.81454 30.4884 7.26658 29.6649L6.37253 29.3759C4.85834 28.8865 3.66834 27.5431 3.51227 25.8322C3.41045 24.716 3.40228 23.599 3.4845 22.4925C3.61308 20.7622 4.80163 19.3903 6.32845 18.8873L7.38452 18.5394C9.90478 17.7092 11.4011 15.1388 10.8674 12.5565L10.6271 11.3942C10.3053 9.83751 10.9015 8.13872 12.3343 7.16123C12.78 6.85718 13.2406 6.56844 13.7159 6.29605C14.19 6.02432 14.671 5.77321 15.1579 5.54254C16.7272 4.79908 18.5076 5.13581 19.705 6.19098L20.599 6.97884C22.5848 8.72885 25.5754 8.72765 27.5598 6.97603L28.3933 6.24026C29.5955 5.17914 31.3865 4.84326 32.9602 5.59778C33.9659 6.07996 34.9357 6.64502 35.858 7.29009C37.2729 8.27964 37.85 9.97465 37.5198 11.5213L37.3243 12.4374C36.7687 15.0397 38.2803 17.6388 40.8283 18.4623L41.64 18.7247C43.166 19.2179 44.3614 20.5783 44.5035 22.3044C44.5976 23.4477 44.5936 24.5912 44.4951 25.7228C44.3463 27.4314 43.1654 28.7791 41.6554 29.2765L40.7104 29.5878ZM34.0679 37.2224C34.1248 37.4974 34.0147 37.7718 33.7883 37.9276C33.3996 38.1949 32.9966 38.4487 32.5795 38.6877C32.1615 38.9273 31.7375 39.1475 31.3086 39.3484C31.0488 39.4702 30.7277 39.4264 30.4991 39.2249L29.7627 38.5759C26.4805 35.6835 21.5461 35.6855 18.2662 38.5806L17.5241 39.2356C17.2963 39.4367 16.9762 39.4812 16.7166 39.3607C15.8514 38.959 15.0178 38.4849 14.226 37.941C13.9985 37.7847 13.8882 37.5082 13.9473 37.2316L14.1236 36.4055C15.0498 32.0669 12.5251 27.7611 8.32102 26.4023L7.42697 26.1134C7.12723 26.0165 6.94942 25.77 6.92666 25.5205C6.84214 24.5939 6.8353 23.6661 6.90365 22.7464C6.92237 22.4944 7.0989 22.2432 7.40118 22.1436L8.45726 21.7957C12.6158 20.4258 15.1148 16.1675 14.2249 11.8623L13.9847 10.7C13.9277 10.424 14.0388 10.1487 14.2666 9.99328C14.6384 9.73962 15.0232 9.49838 15.4208 9.27051C15.8174 9.04318 16.2194 8.83335 16.6258 8.6408C16.886 8.51757 17.2086 8.56076 17.4382 8.76309L18.3322 9.55094C21.6144 12.4434 26.5488 12.4414 29.8287 9.5463L30.6622 8.81053C30.8929 8.60693 31.2174 8.56428 31.4779 8.68921C32.3169 9.09143 33.125 9.5624 33.893 10.0995C34.1174 10.2565 34.2254 10.5309 34.1668 10.8054L33.9713 11.7214C33.045 16.06 35.5698 20.3657 39.7739 21.7246L40.5855 21.9869C40.8878 22.0846 41.0658 22.3342 41.0864 22.5854C41.1646 23.5346 41.1613 24.4846 41.0794 25.4252C41.0577 25.6747 40.8813 25.9215 40.5827 26.0199L39.6376 26.3312C35.479 27.7011 32.9801 31.9594 33.8699 36.2645L34.0679 37.2224Z" fill="white"/>
<path fill-rule="evenodd" clip-rule="evenodd" d="M24.0001 27.4283C25.8937 27.4283 27.4287 25.8933 27.4287 23.9997C27.4287 22.1062 25.8937 20.5711 24.0001 20.5711C22.1066 20.5711 20.5716 22.1062 20.5716 23.9997C20.5716 25.8933 22.1066 27.4283 24.0001 27.4283ZM24.0001 29.9997C27.3138 29.9997 30.0001 27.3134 30.0001 23.9997C30.0001 20.686 27.3138 17.9997 24.0001 17.9997C20.6864 17.9997 18.0001 20.686 18.0001 23.9997C18.0001 27.3134 20.6864 29.9997 24.0001 29.9997Z" fill="white"/>
</svg>
