<svg width="48" height="48" viewBox="0 0 48 48" fill="none" xmlns="http://www.w3.org/2000/svg">
<path d="M29.0002 9.28516C29.9473 9.28516 30.7152 10.053 30.7152 11.0002V37.0002C30.7152 37.9473 29.9473 38.7152 29.0002 38.7152C28.053 38.7152 27.2852 37.9473 27.2852 37.0002V11.0002C27.2852 10.053 28.053 9.28516 29.0002 9.28516Z" fill="white"/>
<path d="M10.7152 16.0002C10.7152 15.053 9.94733 14.2852 9.00016 14.2852C8.05299 14.2852 7.28516 15.053 7.28516 16.0002V32.0002C7.28516 32.9473 8.05299 33.7152 9.00016 33.7152C9.94732 33.7152 10.7152 32.9473 10.7152 32.0002L10.7152 16.0002Z" fill="white"/>
<path d="M20.7152 21.0002C20.7152 20.053 19.9473 19.2852 19.0002 19.2852C18.053 19.2852 17.2852 20.053 17.2852 21.0002V27.0002C17.2852 27.9473 18.053 28.7152 19.0002 28.7152C19.9473 28.7152 20.7152 27.9473 20.7152 27.0002V21.0002Z" fill="white"/>
<path d="M40.7152 16.0002C40.7152 15.053 39.9473 14.2852 39.0002 14.2852C38.053 14.2852 37.2852 15.053 37.2852 16.0002V32.0002C37.2852 32.9473 38.053 33.7152 39.0002 33.7152C39.9473 33.7152 40.7152 32.9473 40.7152 32.0002V16.0002Z" fill="white"/>
</svg>
