<svg width="48" height="48" viewBox="0 0 48 48" fill="none" xmlns="http://www.w3.org/2000/svg">
<path fill-rule="evenodd" clip-rule="evenodd" d="M21 6.8577C21 5.67423 21.9594 4.71484 23.1429 4.71484C34.2674 4.71484 43.2857 13.7331 43.2857 24.8577C43.2857 35.9823 34.2674 45.0006 23.1429 45.0006C12.0183 45.0006 3 35.9823 3 24.8577C3 23.6742 3.95939 22.7148 5.14286 22.7148C6.32632 22.7148 7.28571 23.6742 7.28571 24.8577C7.28571 33.6154 14.3852 40.7148 23.1429 40.7148C31.9005 40.7148 39 33.6154 39 24.8577C39 16.1 31.9005 9.00056 23.1429 9.00056C21.9594 9.00056 21 8.04117 21 6.8577Z" fill="white"/>
<path d="M32.6723 24.8577C32.6723 30.1206 28.4058 34.3871 23.1429 34.3871C17.8799 34.3871 13.6134 30.1206 13.6134 24.8577C13.6134 19.5948 17.8799 15.3283 23.1429 15.3283C28.4058 15.3283 32.6723 19.5948 32.6723 24.8577Z" fill="white"/>
</svg>
