<svg width="48" height="48" viewBox="0 0 48 48" fill="none" xmlns="http://www.w3.org/2000/svg">
<path fill-rule="evenodd" clip-rule="evenodd" d="M21.4287 6.85686C21.4287 5.91009 22.1962 5.14258 23.143 5.14258C34.0309 5.14258 42.8573 13.969 42.8573 24.8569C42.8573 35.7448 34.0309 44.5711 23.143 44.5711C12.2551 44.5711 3.42871 35.7448 3.42871 24.8569C3.42871 23.9101 4.19622 23.1426 5.143 23.1426C6.08977 23.1426 6.85728 23.9101 6.85728 24.8569C6.85728 33.8512 14.1486 41.1426 23.143 41.1426C32.1373 41.1426 39.4287 33.8512 39.4287 24.8569C39.4287 15.8625 32.1373 8.57115 23.143 8.57115C22.1962 8.57115 21.4287 7.80364 21.4287 6.85686Z" fill="white"/>
<path d="M32.6724 24.8569C32.6724 30.1198 28.4059 34.3863 23.143 34.3863C17.88 34.3863 13.6136 30.1198 13.6136 24.8569C13.6136 19.5939 17.88 15.3275 23.143 15.3275C28.4059 15.3275 32.6724 19.5939 32.6724 24.8569Z" fill="white"/>
</svg>
