<svg width="48" height="48" viewBox="0 0 48 48" fill="none" xmlns="http://www.w3.org/2000/svg">
<path fill-rule="evenodd" clip-rule="evenodd" d="M36.6372 18.5121C33.3048 11.3875 24.8276 8.31337 17.703 11.6458C14.6817 13.059 12.3888 15.3958 11.0036 18.1656L14.6229 17.637C15.7979 17.4654 16.8895 18.2788 17.0611 19.4538C17.2327 20.6287 16.4193 21.7203 15.2444 21.8919L4.58027 23.4494L3.02285 12.7857C2.85125 11.6108 3.66463 10.5192 4.83957 10.3476C6.01452 10.176 7.10611 10.9893 7.27771 12.1643L7.72117 15.2006C9.55409 12.0537 12.3315 9.41116 15.8812 7.75083C25.1569 3.41221 36.1936 7.41455 40.5322 16.6903C41.0353 17.7659 40.5712 19.0456 39.4956 19.5487C38.42 20.0518 37.1403 19.5877 36.6372 18.5121ZM42.4482 25.2768L44.0056 35.9405C44.1772 37.1155 43.3639 38.2071 42.1889 38.3787C41.014 38.5503 39.9224 37.7369 39.7508 36.5619L39.3075 33.5265C37.4745 36.6736 34.6971 39.3162 31.1473 40.9766C21.8716 45.3152 10.8349 41.3128 6.49631 32.0371C5.99322 30.9615 6.45731 29.6818 7.53288 29.1787C8.60846 28.6756 9.88821 29.1397 10.3913 30.2153C13.7237 37.3399 22.2009 40.414 29.3255 37.0816C32.3472 35.6682 34.6404 33.3309 36.0255 30.5605L32.4056 31.0892C31.2306 31.2608 30.139 30.4474 29.9674 29.2725C29.7958 28.0975 30.6092 27.0059 31.7841 26.8343L42.4482 25.2768Z" fill="white"/>
</svg>
