<svg width="48" height="48" viewBox="0 0 48 48" fill="none" xmlns="http://www.w3.org/2000/svg">
<path fill-rule="evenodd" clip-rule="evenodd" d="M37.5961 17.8927C34.1619 10.5505 25.4258 7.38245 18.0836 10.8167C14.7038 12.3976 12.2084 15.1005 10.834 18.2774L15.2507 17.6323C16.188 17.4955 17.0587 18.1443 17.1956 19.0815C17.3324 20.0187 16.6836 20.8895 15.7464 21.0263L5.51278 22.521L4.01823 12.2877C3.88135 11.3505 4.53015 10.4798 5.46738 10.3429C6.40461 10.206 7.27534 10.8548 7.41222 11.792L8.04641 16.1343C9.79926 12.5573 12.7398 9.52954 16.6304 7.70975C25.6885 3.47293 36.4662 7.38136 40.703 16.4395C41.1043 17.2974 40.7341 18.3183 39.8762 18.7196C39.0182 19.1209 37.9974 18.7507 37.5961 17.8927ZM42.6456 25.335L44.1401 35.5683C44.277 36.5055 43.6282 37.3762 42.691 37.5131C41.7538 37.65 40.883 37.0012 40.7461 36.064L40.1121 31.7226C38.3593 35.2997 35.4187 38.3276 31.528 40.1474C22.4698 44.3842 11.6922 40.4758 7.45533 31.4177C7.05403 30.5597 7.42422 29.5389 8.28218 29.1376C9.14013 28.7363 10.161 29.1065 10.5623 29.9644C13.9965 37.3067 22.7325 40.4747 30.0747 37.0405C33.4551 35.4594 35.9506 32.7559 37.3249 29.5785L32.9076 30.2236C31.9704 30.3605 31.0997 29.7117 30.9628 28.7745C30.8259 27.8373 31.4747 26.9665 32.4119 26.8297L42.6456 25.335Z" fill="white"/>
</svg>
