<svg width="48" height="48" viewBox="0 0 48 48" fill="none" xmlns="http://www.w3.org/2000/svg">
<path d="M32.354 29.376H32.4194C38.0278 29.376 42.674 33.493 43.4985 38.8691H21.2759C22.1006 33.4935 26.7492 29.3762 32.354 29.376ZM15.1411 25.7344H15.2104C17.5191 25.7344 19.6607 26.4299 21.439 27.623C19.0915 29.5983 17.2853 32.2121 16.2886 35.2236H4.06689C4.89139 29.8499 9.53793 25.7312 15.1411 25.7344ZM32.3882 12.2148C35.7314 12.2148 38.4419 14.9253 38.4419 18.2686C38.4417 21.6116 35.7313 24.3213 32.3882 24.3213C29.0453 24.321 26.3356 21.6115 26.3354 18.2686C26.3354 14.9255 29.0452 12.2151 32.3882 12.2148ZM15.1431 8.57129C18.4862 8.57138 21.1967 11.2819 21.1968 14.625C21.1968 17.9682 18.4862 20.6786 15.1431 20.6787C11.7998 20.6787 9.08936 17.9682 9.08936 14.625C9.08945 11.2818 11.7999 8.57129 15.1431 8.57129Z" fill="white" stroke="white" stroke-width="3.42857"/>
</svg>
