<svg width="48" height="48" viewBox="0 0 48 48" fill="none" xmlns="http://www.w3.org/2000/svg">
<path d="M15.1437 9.53626C17.9488 9.53626 20.2335 11.8171 20.2335 14.626C20.2335 17.435 17.9488 19.7158 15.1437 19.7158C12.3386 19.7158 10.0539 17.435 10.0539 14.626C10.0539 11.8171 12.3386 9.53626 15.1437 9.53626ZM15.1437 6.85742C10.8537 6.85742 7.37891 10.3361 7.37891 14.626C7.37891 18.916 10.8576 22.3947 15.1475 22.3947C19.4375 22.3947 22.9162 18.916 22.9162 14.626C22.9162 10.3361 19.4337 6.85742 15.1437 6.85742Z" fill="white"/>
<path d="M32.392 13.1835C35.1971 13.1835 37.4818 15.4643 37.4818 18.2733C37.4818 21.0822 35.1971 23.3631 32.392 23.3631C29.5869 23.3631 27.3022 21.0822 27.3022 18.2733C27.3022 15.4643 29.583 13.1835 32.392 13.1835ZM32.392 10.5047C28.102 10.5047 24.6234 13.9833 24.6234 18.2733C24.6234 22.5632 28.102 26.0419 32.392 26.0419C36.6819 26.0419 40.1606 22.5632 40.1606 18.2733C40.1606 13.9833 36.6819 10.5047 32.392 10.5047Z" fill="white"/>
<path d="M19.9811 27.8677C21.4583 28.6502 22.6919 29.7525 23.6172 31.0684C22.6142 31.9895 21.757 33.0671 21.0846 34.2624H5.25514C5.98991 31.5339 7.83448 29.2109 10.3985 27.8639L10.4138 27.8562C10.4988 27.8107 10.5838 27.7699 10.6707 27.7283L10.7391 27.6955L10.7965 27.6687C10.8998 27.6189 11.0032 27.573 11.1065 27.5271L11.1409 27.5118L11.183 27.4926C11.2175 27.4786 11.2519 27.4642 11.2864 27.4497C11.3552 27.4208 11.4241 27.3919 11.493 27.3664L11.5581 27.3434C11.8795 27.2209 12.2163 27.1176 12.5531 27.0296L12.6793 26.9951L12.886 26.9492L12.9281 26.9416L12.9625 26.9339C13.0159 26.9225 13.0661 26.9109 13.1156 26.8995C13.1921 26.8842 13.2687 26.8689 13.3491 26.8574C13.3733 26.8536 13.3975 26.8493 13.4218 26.845C13.4702 26.8365 13.5187 26.828 13.5672 26.8229C13.6399 26.8115 13.7126 26.8 13.7891 26.7923C13.8695 26.7808 13.9499 26.7732 14.0302 26.7655H14.0609L14.1489 26.7541L14.2369 26.7426C14.3287 26.7349 14.4244 26.7273 14.5163 26.7234L14.6081 26.7158H14.6923C14.8339 26.7043 14.9755 26.7005 15.1209 26.7005H15.251C15.3964 26.7005 15.5419 26.7043 15.6873 26.712H15.7677L15.8595 26.7234C15.9054 26.7273 15.9523 26.7301 15.9992 26.733C16.0461 26.7359 16.0929 26.7388 16.1389 26.7426C16.1963 26.7464 16.2575 26.7541 16.3149 26.7617H16.3417C16.3818 26.7674 16.4224 26.7723 16.4625 26.777C16.5026 26.7818 16.5427 26.7866 16.5828 26.7923C16.6191 26.7981 16.6555 26.8029 16.6919 26.8076C16.7282 26.8124 16.7646 26.8172 16.8009 26.8229C16.8736 26.8344 16.9463 26.8459 17.0191 26.8612C17.0573 26.8689 17.0958 26.8756 17.1341 26.8823C17.1723 26.889 17.2105 26.8957 17.2487 26.9033C17.2755 26.909 17.3013 26.9148 17.3271 26.9205C17.353 26.9263 17.3788 26.932 17.4056 26.9377L17.4821 26.9531L17.6888 26.999L17.7347 27.0105L17.8227 27.0334C18.1595 27.1214 18.4962 27.2286 18.8177 27.3472L18.8828 27.3702C18.9769 27.4051 19.0744 27.4463 19.1662 27.4852L19.1927 27.4965L19.2348 27.5156L19.2696 27.5311C19.3727 27.5769 19.4761 27.6229 19.5793 27.6725L19.6405 27.7031C19.6841 27.7249 19.7278 27.7461 19.7706 27.7669C19.833 27.7972 19.8938 27.8267 19.9505 27.8562L19.9696 27.8677H19.9811ZM25.7633 29.4716C24.5856 27.8195 23.0348 26.4496 21.2287 25.5027L21.2057 25.4912C21.0718 25.4223 20.934 25.3534 20.8 25.2884C20.7867 25.2826 20.7695 25.2747 20.7571 25.269C20.7447 25.2632 20.7369 25.2596 20.7235 25.2539C20.5934 25.1927 20.4633 25.1353 20.3332 25.0779C20.309 25.0658 20.2825 25.0561 20.2573 25.0469L20.2375 25.0396C20.1074 24.986 19.9773 24.9324 19.8433 24.8789C19.8272 24.8719 19.811 24.8664 19.794 24.8606C19.7828 24.8568 19.7713 24.8528 19.7591 24.8483C19.3496 24.6952 18.9287 24.5612 18.5039 24.4503C18.4503 24.4349 18.3929 24.4196 18.3393 24.4082C18.236 24.3814 18.1327 24.3584 18.0255 24.3354C17.9854 24.3259 17.9452 24.3173 17.905 24.3087C17.8648 24.3001 17.8246 24.2914 17.7844 24.2819C17.6888 24.2627 17.5893 24.2436 17.4936 24.2283L17.2181 24.1824C17.1262 24.1671 17.0344 24.1556 16.9425 24.1441C16.843 24.1288 16.7397 24.1173 16.6364 24.1097C16.5943 24.1058 16.5512 24.1011 16.5082 24.0963C16.4651 24.0915 16.4221 24.0867 16.38 24.0829C16.2613 24.0714 16.1465 24.0637 16.0279 24.0561C15.9915 24.0542 15.955 24.0513 15.9186 24.0484C15.8823 24.0456 15.846 24.0427 15.8098 24.0408C15.6261 24.0331 15.4385 24.0293 15.2549 24.0293H15.2319H15.2013H15.1707H15.1477C14.9602 24.0293 14.7765 24.0331 14.5928 24.0408C14.5201 24.0408 14.4474 24.0484 14.3747 24.0561C14.256 24.0637 14.1374 24.0714 14.0226 24.0829C13.9346 24.0905 13.8504 24.0982 13.7662 24.1097L13.6131 24.1269L13.46 24.1441C13.4141 24.1498 13.3682 24.1565 13.3223 24.1632C13.2763 24.1699 13.2304 24.1766 13.1845 24.1824L12.909 24.2283C12.8133 24.2436 12.7138 24.2627 12.6181 24.2819C12.5377 24.2972 12.4574 24.3163 12.377 24.3354L12.3294 24.346C12.241 24.3655 12.1507 24.3855 12.0632 24.4082C12.0096 24.4235 11.9522 24.4388 11.8987 24.4503C11.47 24.5612 11.0529 24.6952 10.6434 24.8483C10.6273 24.8552 10.6111 24.8607 10.5941 24.8665C10.5829 24.8704 10.5714 24.8743 10.5592 24.8789C10.4253 24.9286 10.2952 24.9822 10.1651 25.0396C10.1498 25.0453 10.1334 25.0521 10.1172 25.0588C10.1009 25.0654 10.0847 25.0721 10.0694 25.0779L9.99512 25.1105C9.88881 25.1572 9.78141 25.2043 9.67905 25.2539C9.6657 25.2596 9.65317 25.2654 9.64078 25.2711C9.62834 25.2769 9.6159 25.2826 9.60251 25.2884C9.46474 25.3534 9.33079 25.4223 9.19685 25.4912L9.1739 25.5027C5.40822 27.4582 2.74852 31.1933 2.29311 35.5866C2.21657 36.3098 2.77913 36.9413 3.50624 36.9413H19.9546C19.7376 37.6801 19.5849 38.4464 19.5028 39.2337C19.4263 39.957 19.9889 40.5885 20.716 40.5885H44.0639C44.791 40.5885 45.3536 39.957 45.2771 39.2337C44.5997 32.7318 39.1081 27.665 32.4263 27.665H32.3919H32.3574C29.9491 27.665 27.6941 28.324 25.7633 29.4716ZM32.3115 30.3438H32.3919H32.4684C37.1602 30.363 41.1402 33.5125 42.3189 37.9096H22.4649C23.6397 33.5125 27.6197 30.363 32.3115 30.3438Z" fill="white"/>
</svg>
