<svg width="48" height="48" viewBox="0 0 48 48" fill="none" xmlns="http://www.w3.org/2000/svg">
<path fill-rule="evenodd" clip-rule="evenodd" d="M40.0195 15.2722L43.9812 27.2012C44.3587 28.1265 44.5716 29.1493 44.5716 30.2259C44.5716 34.361 41.4752 37.7137 37.6564 37.7137C35.5311 37.7137 33.631 36.6758 32.3633 35.0423L29.2203 31.4204H18.78L15.637 35.0423C14.3693 36.6758 12.4692 37.7137 10.3439 37.7137C6.52507 37.7137 3.42871 34.361 3.42871 30.2259C3.42871 29.1493 3.64 28.1265 4.01753 27.2012L7.98081 15.2722C8.09422 14.776 8.25269 14.2982 8.4531 13.8473C9.5686 11.334 11.9425 9.59961 14.6893 9.59961H33.311C36.0593 9.59961 38.4317 11.334 39.5472 13.8473C39.746 14.2999 39.9061 14.776 40.0195 15.2722ZM32.5716 23.1423C33.9917 23.1423 35.143 21.991 35.143 20.5709C35.143 19.1507 33.9917 17.9994 32.5716 17.9994C31.1514 17.9994 30.0001 19.1507 30.0001 20.5709C30.0001 21.991 31.1514 23.1423 32.5716 23.1423ZM18.0001 19.7137H20.5716V21.428H18.0001V23.9994H16.2859V21.428H13.7144V19.7137H16.2859L16.2859 17.1423H18.0001V19.7137Z" fill="white"/>
</svg>
