<svg width="48" height="48" viewBox="0 0 48 48" fill="none" xmlns="http://www.w3.org/2000/svg">
<path d="M31.2001 18.2079C29.8273 18.2079 28.7144 19.3208 28.7144 20.6936C28.7144 22.0664 29.8273 23.1793 31.2001 23.1793C32.573 23.1793 33.6859 22.0664 33.6859 20.6936C33.6859 19.3208 32.573 18.2079 31.2001 18.2079Z" fill="white"/>
<path d="M16.8002 19.7137V17.632H18.5145V19.7137H20.5716V21.428H18.5145V23.6564H16.8002V21.428H14.5716V19.7137H16.8002Z" fill="white"/>
<path fill-rule="evenodd" clip-rule="evenodd" d="M43.9827 27.2012C44.3603 28.1265 44.5716 29.1493 44.5716 30.2259C44.5716 34.361 41.4752 37.7137 37.6564 37.7137C35.5311 37.7137 33.631 36.6758 32.3633 35.0423L29.2203 31.4204H18.78L15.637 35.0423C14.3693 36.6758 12.4692 37.7137 10.3439 37.7137C6.52507 37.7137 3.42871 34.361 3.42871 30.2259C3.42871 29.1493 3.64 28.1265 4.01753 27.2012L7.98081 15.2722C8.09422 14.776 8.25269 14.2982 8.4531 13.8473C9.5686 11.334 11.9425 9.59961 14.6893 9.59961H33.311C36.0593 9.59961 38.4317 11.334 39.5472 13.8473C39.746 14.2999 39.9061 14.776 40.0195 15.2722L43.9827 27.2012ZM41.0231 29.1723L36.7138 16.1966L36.6771 16.0361C36.6142 15.7609 36.5247 15.4927 36.411 15.2329C35.7751 13.8051 34.5385 13.0282 33.311 13.0282H14.6893C13.4614 13.0282 12.2219 13.8075 11.5869 15.2382L11.5861 15.24C11.4781 15.4828 11.3887 15.7495 11.3232 16.0361L11.2865 16.1968L7.23519 28.3907L7.19202 28.4965C6.9797 29.0168 6.85728 29.6002 6.85728 30.2259C6.85728 32.7294 8.67035 34.2852 10.3439 34.2852C11.3067 34.2852 12.2442 33.8219 12.9285 32.9402L12.986 32.8661L17.2157 27.9918H30.7846L35.0143 32.8661L35.0718 32.9402C35.7561 33.8219 36.6936 34.2852 37.6564 34.2852C39.3299 34.2852 41.143 32.7294 41.143 30.2259C41.143 29.8587 41.1008 29.5061 41.0231 29.1723Z" fill="white"/>
</svg>
