<svg width="48" height="48" viewBox="0 0 48 48" fill="none" xmlns="http://www.w3.org/2000/svg">
<path d="M12.6745 29.3258C13.4067 30.0581 14.5939 30.0581 15.3261 29.3258C16.0583 28.5936 16.0583 27.4064 15.3261 26.6742L10.5269 21.875H34.0002C37.3829 21.875 40.1252 24.6173 40.1252 28C40.1252 31.3827 37.3829 34.125 34.0002 34.125H24.0002C22.9646 34.125 22.1252 34.9645 22.1252 36C22.1252 37.0355 22.9646 37.875 24.0002 37.875H34.0002C39.454 37.875 43.8752 33.4538 43.8752 28C43.8752 22.5462 39.454 18.125 34.0002 18.125H10.5269L15.3261 13.3258C16.0583 12.5936 16.0583 11.4064 15.3261 10.6742C14.5939 9.94194 13.4067 9.94194 12.6745 10.6742L3.34863 20L12.6745 29.3258Z" fill="white"/>
</svg>
