<svg width="48" height="48" viewBox="0 0 48 48" fill="none" xmlns="http://www.w3.org/2000/svg">
<path d="M12.9396 29.0607C13.5254 29.6464 14.4751 29.6464 15.0609 29.0607C15.6467 28.4749 15.6467 27.5251 15.0609 26.9393L9.62155 21.5H34.0001C37.59 21.5 40.5001 24.4101 40.5001 28C40.5001 31.5899 37.59 34.5 34.0001 34.5H24.0001C23.1717 34.5 22.5001 35.1716 22.5001 36C22.5001 36.8284 23.1717 37.5 24.0001 37.5H34.0001C39.2468 37.5 43.5001 33.2467 43.5001 28C43.5001 22.7533 39.2468 18.5 34.0001 18.5H9.62155L15.0609 13.0607C15.6467 12.4749 15.6467 11.5251 15.0609 10.9393C14.4751 10.3536 13.5254 10.3536 12.9396 10.9393L3.87891 20L12.9396 29.0607Z" fill="white"/>
</svg>
