<svg width="48" height="48" viewBox="0 0 48 48" fill="none" xmlns="http://www.w3.org/2000/svg">
<path fill-rule="evenodd" clip-rule="evenodd" d="M24.0001 3.42871C24.9469 3.42871 25.7144 4.19622 25.7144 5.143V22.2859H42.8573C43.8041 22.2859 44.5716 23.0534 44.5716 24.0001C44.5716 24.9469 43.8041 25.7144 42.8573 25.7144H25.7144V42.8573C25.7144 43.8041 24.9469 44.5716 24.0001 44.5716C23.0534 44.5716 22.2859 43.8041 22.2859 42.8573V25.7144H5.143C4.19622 25.7144 3.42871 24.9469 3.42871 24.0001C3.42871 23.0534 4.19622 22.2859 5.143 22.2859H22.2859V5.143C22.2859 4.19622 23.0534 3.42871 24.0001 3.42871Z" fill="white"/>
</svg>
