<svg width="48" height="48" viewBox="0 0 48 48" fill="none" xmlns="http://www.w3.org/2000/svg">
<path fill-rule="evenodd" clip-rule="evenodd" d="M8.57164 12.0008V27.4294H39.4288V12.0008H8.57164ZM6.85735 8.57227C5.91058 8.57227 5.14307 9.33978 5.14307 10.2866V29.1437C5.14307 30.0905 5.91058 30.858 6.85735 30.858H41.1431C42.0898 30.858 42.8574 30.0905 42.8574 29.1437V10.2866C42.8574 9.33978 42.0898 8.57227 41.1431 8.57227H6.85735Z" fill="white"/>
<path fill-rule="evenodd" clip-rule="evenodd" d="M12.0002 39.4294C12.0002 38.4826 12.7677 37.7151 13.7145 37.7151H32.9145C33.8613 37.7151 34.6288 38.4826 34.6288 39.4294C34.6288 40.3762 33.8613 41.1437 32.9145 41.1437H13.7145C12.7677 41.1437 12.0002 40.3762 12.0002 39.4294Z" fill="white"/>
</svg>
