<svg width="48" height="48" viewBox="0 0 48 48" fill="none" xmlns="http://www.w3.org/2000/svg">
<path fill-rule="evenodd" clip-rule="evenodd" d="M7.28571 12.4283H27.8571V8.14258H6.85714C4.7269 8.14258 3 9.86948 3 11.9997V37.714C3 39.8442 4.7269 41.5711 6.85714 41.5711H41.1429C43.2731 41.5711 45 39.8442 45 37.714V25.2854H40.7143V37.2854H7.28571V12.4283Z" fill="white"/>
<path fill-rule="evenodd" clip-rule="evenodd" d="M36.8571 8.57115C37.8039 8.57115 38.5714 9.33866 38.5714 10.2854V14.5711L42.8571 14.5711C43.8039 14.5711 44.5714 15.3387 44.5714 16.2854C44.5714 17.2322 43.8039 17.9997 42.8571 17.9997L38.5714 17.9997V22.2854C38.5714 23.2322 37.8039 23.9997 36.8571 23.9997C35.9104 23.9997 35.1429 23.2322 35.1429 22.2854V17.9997L30.8571 17.9997C29.9104 17.9997 29.1429 17.2322 29.1429 16.2854C29.1429 15.3387 29.9104 14.5711 30.8571 14.5711L35.1429 14.5711V10.2854C35.1429 9.33866 35.9104 8.57115 36.8571 8.57115Z" fill="white"/>
</svg>
