<svg width="48" height="48" viewBox="0 0 48 48" fill="none" xmlns="http://www.w3.org/2000/svg">
<path fill-rule="evenodd" clip-rule="evenodd" d="M3.42871 11.9999C3.42871 10.1063 4.96373 8.57129 6.85728 8.57129H27.4287V11.9999H6.85728V37.7141H41.143V25.7141H44.5716V37.7141C44.5716 39.6077 43.0365 41.1427 41.143 41.1427H6.85728C4.96374 41.1427 3.42871 39.6077 3.42871 37.7141V11.9999Z" fill="white"/>
<path fill-rule="evenodd" clip-rule="evenodd" d="M36.8573 8.99986C37.5674 8.99986 38.143 9.57549 38.143 10.2856V14.9999H42.8573C43.5674 14.9999 44.143 15.5755 44.143 16.2856C44.143 16.9957 43.5674 17.5713 42.8573 17.5713L38.143 17.5713V22.2856C38.143 22.9957 37.5674 23.5713 36.8573 23.5713C36.1472 23.5713 35.5716 22.9957 35.5716 22.2856V17.5713L30.8573 17.5713C30.1472 17.5713 29.5716 16.9957 29.5716 16.2856C29.5716 15.5755 30.1472 14.9999 30.8573 14.9999L35.5716 14.9999V10.2856C35.5716 9.57549 36.1472 8.99986 36.8573 8.99986Z" fill="white"/>
</svg>
