<svg width="48" height="48" viewBox="0 0 48 48" fill="none" xmlns="http://www.w3.org/2000/svg">
<path d="M27.5 9C27.5 10.933 25.933 12.5 24 12.5C22.067 12.5 20.5 10.933 20.5 9C20.5 7.067 22.067 5.5 24 5.5C25.933 5.5 27.5 7.067 27.5 9Z" fill="white"/>
<path d="M27.5 24C27.5 25.933 25.933 27.5 24 27.5C22.067 27.5 20.5 25.933 20.5 24C20.5 22.067 22.067 20.5 24 20.5C25.933 20.5 27.5 22.067 27.5 24Z" fill="white"/>
<path d="M27.5 39C27.5 40.933 25.933 42.5 24 42.5C22.067 42.5 20.5 40.933 20.5 39C20.5 37.067 22.067 35.5 24 35.5C25.933 35.5 27.5 37.067 27.5 39Z" fill="white"/>
</svg>
