<svg width="48" height="48" viewBox="0 0 48 48" fill="none" xmlns="http://www.w3.org/2000/svg">
<path d="M26.75 10.5C26.75 12.0188 25.5188 13.25 24 13.25C22.4812 13.25 21.25 12.0188 21.25 10.5C21.25 8.98122 22.4812 7.75 24 7.75C25.5188 7.75 26.75 8.98122 26.75 10.5Z" fill="white"/>
<path d="M26.75 24C26.75 25.5188 25.5188 26.75 24 26.75C22.4812 26.75 21.25 25.5188 21.25 24C21.25 22.4812 22.4812 21.25 24 21.25C25.5188 21.25 26.75 22.4812 26.75 24Z" fill="white"/>
<path d="M26.75 37.5C26.75 39.0188 25.5188 40.25 24 40.25C22.4812 40.25 21.25 39.0188 21.25 37.5C21.25 35.9812 22.4812 34.75 24 34.75C25.5188 34.75 26.75 35.9812 26.75 37.5Z" fill="white"/>
</svg>
