<svg width="48" height="48" viewBox="0 0 48 48" fill="none" xmlns="http://www.w3.org/2000/svg">
<path fill-rule="evenodd" clip-rule="evenodd" d="M23.997 10.2581C15.4241 10.2581 8.47443 17.2078 8.47443 25.7807C8.47443 29.4789 9.76558 32.8709 11.9232 35.5373C12.519 36.2736 12.4051 37.3534 11.6688 37.9493C10.9325 38.5451 9.85262 38.4312 9.25681 37.6949C6.62315 34.4402 5.04443 30.2925 5.04443 25.7807C5.04443 15.3135 13.5298 6.82812 23.997 6.82812C34.4642 6.82812 42.9495 15.3135 42.9495 25.7807C42.9495 30.2925 41.3708 34.4402 38.7371 37.6949C38.1413 38.4312 37.0614 38.5451 36.3251 37.9493C35.5889 37.3534 35.475 36.2736 36.0708 35.5373C38.2284 32.8709 39.5195 29.4789 39.5195 25.7807C39.5195 17.2078 32.5698 10.2581 23.997 10.2581Z" fill="white"/>
<path d="M22.2105 26.4315C22.5722 27.4255 23.6713 27.938 24.6653 27.5762L34.8537 23.3595C35.5992 23.0881 35.9836 22.2638 35.7122 21.5183C35.4409 20.7728 34.6166 20.3885 33.8711 20.6598L23.3552 23.9766C22.3612 24.3384 21.8487 25.4375 22.2105 26.4315Z" fill="white"/>
</svg>
