<svg width="48" height="48" viewBox="0 0 48 48" fill="none" xmlns="http://www.w3.org/2000/svg">
<path fill-rule="evenodd" clip-rule="evenodd" d="M9.43 9.43V38.57H38.57V9.43H9.43ZM9.11111 6C7.39289 6 6 7.39289 6 9.11111V38.8889C6 40.6071 7.39289 42 9.11111 42H38.8889C40.6071 42 42 40.6071 42 38.8889V9.11111C42 7.39289 40.6071 6 38.8889 6H9.11111Z" fill="white"/>
<path fill-rule="evenodd" clip-rule="evenodd" d="M21.0664 26.0245V30.57H26.9336V26.0245H30.57V17.43H17.43V26.0245H21.0664ZM30.3636 29.4545H33C33.5523 29.4545 34 29.0068 34 28.4545V15C34 14.4477 33.5523 14 33 14H15C14.4477 14 14 14.4477 14 15V28.4545C14 29.0068 14.4477 29.4545 15 29.4545H17.6364V33C17.6364 33.5523 18.0841 34 18.6364 34H29.3636C29.9159 34 30.3636 33.5523 30.3636 33V29.4545Z" fill="white"/>
</svg>
