<svg width="48" height="48" viewBox="0 0 48 48" fill="none" xmlns="http://www.w3.org/2000/svg">
<path fill-rule="evenodd" clip-rule="evenodd" d="M30.7875 30.7131C27.0389 26.9645 20.9614 26.9645 17.2128 30.7131C16.5431 31.3828 15.4572 31.3828 14.7875 30.7131C14.1177 30.0433 14.1177 28.9574 14.7875 28.2877C19.8755 23.1997 28.1248 23.1997 33.2128 28.2877C33.8826 28.9574 33.8826 30.0433 33.2128 30.7131C32.5431 31.3828 31.4572 31.3828 30.7875 30.7131Z" fill="white"/>
<path fill-rule="evenodd" clip-rule="evenodd" d="M35.7875 25.0976C29.2775 18.5877 18.7228 18.5877 12.2128 25.0976C11.5431 25.7674 10.4572 25.7674 9.78747 25.0976C9.11772 24.4279 9.11772 23.342 9.78747 22.6722C17.6369 14.8228 30.3634 14.8228 38.2128 22.6722C38.8826 23.342 38.8826 24.4279 38.2128 25.0976C37.5431 25.7674 36.4572 25.7674 35.7875 25.0976Z" fill="white"/>
<path fill-rule="evenodd" clip-rule="evenodd" d="M40.7875 19.1687C31.5161 9.89731 16.4842 9.89731 7.21284 19.1687C6.5431 19.8384 5.45722 19.8384 4.78747 19.1687C4.11772 18.4989 4.11772 17.4131 4.78747 16.7433C15.3983 6.13244 32.602 6.13244 43.2128 16.7433C43.8826 17.4131 43.8826 18.4989 43.2128 19.1687C42.5431 19.8384 41.4572 19.8384 40.7875 19.1687Z" fill="white"/>
<path d="M28.0002 35.5002C28.0002 37.7093 26.2093 39.5002 24.0002 39.5002C21.791 39.5002 20.0002 37.7093 20.0002 35.5002C20.0002 33.291 21.791 31.5002 24.0002 31.5002C26.2093 31.5002 28.0002 33.291 28.0002 35.5002Z" fill="white"/>
</svg>
