<svg width="48" height="48" viewBox="0 0 48 48" fill="none" xmlns="http://www.w3.org/2000/svg">
<path d="M17.1429 28.7137C18.3264 28.7137 19.2858 29.6731 19.2858 30.8566L19.2858 41.1423C19.2858 42.3258 18.3264 43.2852 17.1429 43.2852C15.9595 43.2852 15.0001 42.3258 15.0001 41.1423L15.0001 32.9994L6.85721 32.9994C5.67375 32.9994 4.71436 32.0401 4.71436 30.8566C4.71436 29.6731 5.67375 28.7137 6.85721 28.7137H17.1429Z" fill="white"/>
<path d="M30.8572 28.7137C29.6737 28.7137 28.7144 29.6731 28.7144 30.8566L28.7144 41.1423C28.7144 42.3258 29.6737 43.2852 30.8572 43.2852C32.0407 43.2852 33.0001 42.3258 33.0001 41.1423V32.9994L41.1429 32.9994C42.3264 32.9994 43.2858 32.04 43.2858 30.8566C43.2858 29.6731 42.3264 28.7137 41.1429 28.7137L30.8572 28.7137Z" fill="white"/>
<path d="M28.7144 17.1423C28.7144 18.3258 29.6737 19.2852 30.8572 19.2852L41.1429 19.2852C42.3264 19.2852 43.2858 18.3258 43.2858 17.1423C43.2858 15.9588 42.3264 14.9994 41.1429 14.9994H33.0001V6.85659C33.0001 5.67312 32.0407 4.71373 30.8572 4.71373C29.6737 4.71373 28.7144 5.67312 28.7144 6.85659L28.7144 17.1423Z" fill="white"/>
<path d="M17.1429 19.2852C18.3264 19.2852 19.2858 18.3258 19.2858 17.1423L19.2858 6.85658C19.2858 5.67312 18.3264 4.71373 17.1429 4.71373C15.9595 4.71373 15.0001 5.67312 15.0001 6.85658L15.0001 14.9994H6.85721C5.67375 14.9994 4.71436 15.9588 4.71436 17.1423C4.71436 18.3258 5.67375 19.2852 6.85721 19.2852L17.1429 19.2852Z" fill="white"/>
</svg>
