<svg width="48" height="48" viewBox="0 0 48 48" fill="none" xmlns="http://www.w3.org/2000/svg">
<path d="M17.1431 29.1431C18.0898 29.1431 18.8574 29.9106 18.8574 30.8574L18.8574 41.1431C18.8574 42.0899 18.0898 42.8574 17.1431 42.8574C16.1963 42.8574 15.4288 42.0899 15.4288 41.1431L15.4288 32.5717H6.85735C5.91058 32.5717 5.14307 31.8042 5.14307 30.8574C5.14307 29.9106 5.91058 29.1431 6.85735 29.1431L17.1431 29.1431Z" fill="white"/>
<path d="M30.8574 29.1431C29.9106 29.1431 29.1431 29.9106 29.1431 30.8574L29.1431 41.1431C29.1431 42.0899 29.9106 42.8574 30.8574 42.8574C31.8041 42.8574 32.5716 42.0899 32.5716 41.1431L32.5716 32.5717L41.1431 32.5717C42.0898 32.5717 42.8574 31.8042 42.8574 30.8574C42.8573 29.9106 42.0898 29.1431 41.1431 29.1431L30.8574 29.1431Z" fill="white"/>
<path d="M29.1431 17.1431C29.1431 18.0899 29.9106 18.8574 30.8574 18.8574L41.1431 18.8574C42.0898 18.8574 42.8574 18.0899 42.8574 17.1431C42.8574 16.1964 42.0898 15.4288 41.1431 15.4288L32.5716 15.4289L32.5716 6.85742C32.5716 5.91065 31.8041 5.14314 30.8574 5.14314C29.9106 5.14314 29.1431 5.91065 29.1431 6.85743L29.1431 17.1431Z" fill="white"/>
<path d="M17.1431 18.8574C18.0898 18.8574 18.8574 18.0899 18.8574 17.1431L18.8574 6.85742C18.8574 5.91064 18.0898 5.14314 17.1431 5.14314C16.1963 5.14314 15.4288 5.91065 15.4288 6.85742V15.4289L6.85735 15.4289C5.91058 15.4289 5.14307 16.1964 5.14307 17.1431C5.14307 18.0899 5.91058 18.8574 6.85735 18.8574L17.1431 18.8574Z" fill="white"/>
</svg>
