<svg width="48" height="48" viewBox="0 0 48 48" fill="none" xmlns="http://www.w3.org/2000/svg">
<path fill-rule="evenodd" clip-rule="evenodd" d="M12.9051 11.216C11.2162 11.216 9.84717 12.5347 9.84717 14.1613L9.84717 28.2057C9.84717 29.3679 10.8254 30.3101 12.032 30.3101C13.2387 30.3101 14.2169 29.3679 14.2169 28.2057L14.2169 15.4248L23.7162 15.4248L18.8122 20.3289C17.9751 21.166 18.001 22.4982 18.8701 23.3044C19.7392 24.1107 21.1224 24.0857 21.9595 23.2486L31.8875 13.3203L21.9595 3.39256C21.1224 2.55549 19.7392 2.53051 18.8701 3.33678C18.0011 4.14305 17.9751 5.47524 18.8122 6.31231L23.7161 11.216L12.9051 11.216Z" fill="white"/>
<path fill-rule="evenodd" clip-rule="evenodd" d="M35.1768 37.4488C36.8657 37.4488 38.2347 36.1301 38.2347 34.5035L38.2347 20.4591C38.2347 19.2969 37.2565 18.3547 36.0499 18.3547C34.8432 18.3547 33.865 19.2969 33.865 20.4591L33.865 33.24L24.3657 33.24L29.2698 28.3359C30.1068 27.4988 30.0809 26.1666 29.2118 25.3604C28.3427 24.5541 26.9595 24.5791 26.1225 25.4162L16.1944 35.3445L26.1224 45.2722C26.9595 46.1093 28.3427 46.1343 29.2118 45.328C30.0808 44.5217 30.1068 43.1896 29.2697 42.3525L24.3659 37.4488L35.1768 37.4488Z" fill="white"/>
</svg>
