<svg width="48" height="48" viewBox="0 0 48 48" fill="none" xmlns="http://www.w3.org/2000/svg">
<path fill-rule="evenodd" clip-rule="evenodd" d="M12.9053 11.6374C11.4588 11.6374 10.2861 12.7669 10.2861 14.1602L10.2861 28.2045C10.2861 29.1334 11.0679 29.8864 12.0323 29.8864C12.9966 29.8864 13.7784 29.1334 13.7784 28.2045V15.0011L25.1204 15.0011L19.3215 20.8001C18.7553 21.3663 18.7728 22.2675 19.3608 22.8129C19.9487 23.3583 20.8843 23.3414 21.4506 22.7751L30.9063 13.3192L21.4506 3.86373C20.8843 3.29747 19.9487 3.28058 19.3608 3.82599C18.7729 4.37141 18.7553 5.2726 19.3216 5.83885L25.1203 11.6374L12.9053 11.6374Z" fill="white"/>
<path fill-rule="evenodd" clip-rule="evenodd" d="M35.1771 37.0251C36.6236 37.0251 37.7963 35.8956 37.7963 34.5023L37.7963 20.4579C37.7963 19.5291 37.0145 18.7761 36.0501 18.7761C35.0858 18.7761 34.304 19.5291 34.304 20.4579L34.304 33.6614L22.962 33.6614L28.7609 27.8624C29.3271 27.2962 29.3096 26.395 28.7217 25.8496C28.1337 25.3042 27.1981 25.3211 26.6318 25.8874L17.1761 35.3433L26.6318 44.7988C27.1981 45.365 28.1337 45.3819 28.7216 44.8365C29.3095 44.2911 29.3271 43.3899 28.7608 42.8236L22.9621 37.0251L35.1771 37.0251Z" fill="white"/>
</svg>
