<svg width="48" height="48" viewBox="0 0 48 48" fill="none" xmlns="http://www.w3.org/2000/svg">
<path d="M36.3476 19.7917C37.7895 21.8073 39.2452 23.8423 39.8733 26.2266L39.8769 26.2193C40.3934 28.6011 40.4468 30.9281 40.112 33.1236C38.9843 40.5135 34.4417 44.7922 29.1128 46.2858C30.361 44.1026 31.8569 40.4514 31.0179 36.4324C31.0179 36.4324 29.2381 41.9715 26.56 40.541C24.7662 39.2662 25.1652 36.9406 25.611 34.342C26.1367 31.2781 26.7275 27.8348 23.8653 25.2876C23.5979 27.5958 22.1688 30.0328 20.6972 32.5424C18.1912 36.8159 15.5619 41.2997 18.3361 45.7153C12.3673 43.4026 7.62517 37.7381 8.02337 29.2075C8.19079 25.6056 9.33071 22.0475 11.5535 19.052C11.8741 18.6173 12.5438 18.8218 12.5902 19.3662C12.8573 22.5626 14.2893 25.2037 16.8577 27.3079C12.626 19.1209 16.6152 14.5744 20.0339 10.6782C22.3996 7.98196 24.4921 5.59714 23.398 2.53283C23.2662 2.16387 23.6794 1.8424 23.9857 2.0835C28.2289 5.40309 27.4433 9.0479 26.6599 12.6824C25.8484 16.4472 25.0393 20.201 29.8242 23.5708C28.5169 18.9789 28.3958 13.5687 31.673 10.2408C32.0578 9.84992 32.7061 10.1641 32.6669 10.7193C32.4049 14.2802 34.3631 17.0176 36.3476 19.7917Z" fill="white"/>
</svg>
