<svg width="48" height="48" viewBox="0 0 48 48" fill="none" xmlns="http://www.w3.org/2000/svg">
<path fill-rule="evenodd" clip-rule="evenodd" d="M36.6613 27.0931C36.6596 27.0868 36.6579 27.0804 36.6563 27.0741C36.1965 25.3288 35.1581 23.8675 33.7278 21.8548C33.4378 21.4466 33.1316 21.0157 32.8108 20.5551C32.6937 20.3869 32.5749 20.2148 32.4553 20.0387C32.5775 20.8814 32.7674 21.7589 33.0239 22.6599C33.4099 24.0157 32.8995 25.4677 31.7499 26.2837C30.6003 27.0997 29.0613 27.1025 27.9087 26.2908C24.9435 24.2026 23.3677 21.7268 22.882 18.9412C22.4469 16.4457 22.9711 14.01 23.3482 12.2582C23.3539 12.2314 23.3597 12.2047 23.3654 12.1782C23.3908 12.0602 23.4156 11.9447 23.4397 11.8317C23.3353 11.9539 23.2316 12.074 23.1292 12.192C22.9113 12.4432 22.7009 12.683 22.4958 12.9167C21.9849 13.499 21.507 14.0437 21.028 14.6332C19.7143 16.2501 18.8215 17.7088 18.4949 19.3109C18.1868 20.8227 18.305 22.8627 19.8131 25.7803C20.5376 27.1821 20.1777 28.9001 18.9515 29.8932C17.7252 30.8863 15.97 30.8814 14.7494 29.8814C13.5495 28.8983 12.5328 27.8034 11.7113 26.6027C11.5112 27.5048 11.39 28.4284 11.3466 29.362C10.951 37.8375 16.6501 42.6916 22.9232 43.4612C26.0838 43.8489 29.2498 43.1625 31.7368 41.4421C34.1692 39.7595 36.1635 36.9457 36.8232 32.6218C37.089 30.879 37.0583 29.0188 36.6613 27.0931ZM39.8782 26.2253C39.8785 26.2267 39.8788 26.2281 39.8791 26.2294C40.1199 27.3427 40.2596 28.4439 40.3057 29.5254C40.3582 30.7542 40.2898 31.9575 40.112 33.1236C36.9558 53.8073 7.04732 50.1177 8.02337 29.2075C8.13553 26.7944 8.6842 24.4009 9.70256 22.1831C9.83037 21.9048 9.96558 21.6292 10.1083 21.3567C10.4454 20.7128 10.8242 20.086 11.2455 19.4806C11.246 19.4798 11.2465 19.4791 11.247 19.4784C11.3468 19.3351 11.449 19.1929 11.5535 19.052C11.6297 18.9487 11.7257 18.8815 11.8282 18.8464C12.1573 18.7337 12.5548 18.9512 12.5902 19.3662C12.6039 19.5301 12.6206 19.6926 12.6404 19.8536C12.6407 19.8554 12.6409 19.8572 12.6411 19.859C12.7313 20.5891 12.8845 21.2891 13.1002 21.9594C13.1569 22.1357 13.218 22.3099 13.2834 22.482C13.9828 24.324 15.177 25.9309 16.8577 27.3079C15.1927 24.0866 14.8004 21.4289 15.1453 19.1526C15.1455 19.1513 15.1457 19.15 15.1459 19.1487C15.2249 18.6285 15.3425 18.1281 15.4921 17.6455C16.3513 14.8753 18.2686 12.69 20.0339 10.6782C21.4056 9.11483 22.6855 7.65617 23.3055 6.10904C23.4095 5.84953 23.495 5.58754 23.5592 5.32214C23.7571 4.50407 23.7531 3.65368 23.4688 2.74429C23.4685 2.74335 23.4682 2.74242 23.4679 2.74148C23.4462 2.67228 23.4229 2.60273 23.398 2.53283C23.2662 2.16387 23.6794 1.8424 23.9857 2.0835C24.0561 2.13855 24.1251 2.19369 24.1927 2.24892C24.1927 2.24889 24.1928 2.24895 24.1927 2.24892C24.9874 2.89792 25.5943 3.55915 26.0506 4.22995C26.405 4.75097 26.6685 5.27782 26.8587 5.80933C27.5045 7.61452 27.3037 9.47347 26.9399 11.3406C26.8528 11.7876 26.7563 12.2351 26.6599 12.6824C25.8484 16.4472 25.0393 20.201 29.8242 23.5708C28.9146 20.3758 28.5792 16.7846 29.5634 13.7743C29.7044 13.3429 29.8726 12.9234 30.07 12.5187C30.0858 12.4864 30.1018 12.4541 30.1179 12.4219C30.4402 11.7805 30.8373 11.1774 31.3183 10.6242C31.3194 10.6229 31.3205 10.6216 31.3216 10.6204C31.4341 10.4911 31.5512 10.3645 31.673 10.2408C32.0578 9.84992 32.7061 10.1641 32.6669 10.7193C32.6551 10.8803 32.6478 11.0396 32.6448 11.1972C32.6448 11.1974 32.6448 11.1971 32.6448 11.1972C32.6311 11.9237 32.7094 12.6165 32.8599 13.2827C32.9151 13.527 32.98 13.7677 33.0537 14.0053C33.6997 16.0902 35.0177 17.9327 36.3476 19.7917C37.1329 20.8895 37.9223 21.9931 38.5799 23.1557C39.1279 24.1246 39.5844 25.1345 39.8706 26.2162C39.8709 26.2176 39.8713 26.219 39.8717 26.2204C39.8722 26.2225 39.8728 26.2246 39.8733 26.2266L39.8769 26.2193C39.8773 26.2213 39.8778 26.2233 39.8782 26.2253Z" fill="white"/>
</svg>
