<svg width="48" height="48" viewBox="0 0 48 48" fill="none" xmlns="http://www.w3.org/2000/svg">
<path fill-rule="evenodd" clip-rule="evenodd" d="M34.2556 39.4279C39.4487 35.8774 42.8568 29.9077 42.8568 23.142C42.8568 12.2541 34.0304 3.42773 23.1425 3.42773C12.2546 3.42773 3.42822 12.2541 3.42822 23.142C3.42822 34.0299 12.2546 42.8563 23.1425 42.8563C23.4297 42.8563 23.7154 42.8502 23.9995 42.838V42.8564H46.2852C47.232 42.8564 47.9995 42.0889 47.9995 41.1421C47.9995 40.1954 47.232 39.4279 46.2852 39.4279H34.2556ZM23.1424 17.9649C25.017 17.9649 26.5366 16.4452 26.5366 14.5706C26.5366 12.696 25.017 11.1763 23.1424 11.1763C21.2677 11.1763 19.7481 12.696 19.7481 14.5706C19.7481 16.4452 21.2677 17.9649 23.1424 17.9649ZM26.5371 31.7134C26.5371 33.588 25.0175 35.1077 23.1428 35.1077C21.2682 35.1077 19.7486 33.588 19.7486 31.7134C19.7486 29.8388 21.2682 28.3191 23.1428 28.3191C25.0175 28.3191 26.5371 29.8388 26.5371 31.7134ZM28.3203 23.1421C28.3203 25.0167 29.84 26.5364 31.7146 26.5364C33.5892 26.5364 35.1089 25.0167 35.1089 23.1421C35.1089 21.2675 33.5892 19.7478 31.7146 19.7478C29.84 19.7478 28.3203 21.2675 28.3203 23.1421ZM14.5715 26.5364C12.6969 26.5364 11.1772 25.0167 11.1772 23.1421C11.1772 21.2675 12.6969 19.7478 14.5715 19.7478C16.4461 19.7478 17.9658 21.2675 17.9658 23.1421C17.9658 25.0167 16.4461 26.5364 14.5715 26.5364Z" fill="white"/>
</svg>
