<svg width="48" height="48" viewBox="0 0 48 48" fill="none" xmlns="http://www.w3.org/2000/svg">
<path d="M26.2284 14.5705C26.2284 16.2747 24.8468 17.6562 23.1427 17.6562C21.4385 17.6562 20.0569 16.2747 20.0569 14.5705C20.0569 12.8663 21.4385 11.4848 23.1427 11.4848C24.8468 11.4848 26.2284 12.8663 26.2284 14.5705Z" fill="white"/>
<path d="M26.2285 31.7134C26.2285 33.4176 24.847 34.7991 23.1428 34.7991C21.4386 34.7991 20.0571 33.4176 20.0571 31.7134C20.0571 30.0092 21.4386 28.6277 23.1428 28.6277C24.847 28.6277 26.2285 30.0092 26.2285 31.7134Z" fill="white"/>
<path d="M31.7146 26.2277C30.0104 26.2277 28.6289 24.8462 28.6289 23.142C28.6289 21.4378 30.0104 20.0562 31.7146 20.0562C33.4188 20.0562 34.8003 21.4378 34.8003 23.142C34.8003 24.8462 33.4188 26.2277 31.7146 26.2277Z" fill="white"/>
<path d="M14.5717 26.2277C12.8675 26.2277 11.486 24.8462 11.486 23.142C11.486 21.4378 12.8675 20.0562 14.5717 20.0562C16.2759 20.0562 17.6574 21.4378 17.6574 23.142C17.6574 24.8462 16.2759 26.2277 14.5717 26.2277Z" fill="white"/>
<path fill-rule="evenodd" clip-rule="evenodd" d="M23.9995 42.838C23.7154 42.8502 23.4297 42.8563 23.1425 42.8563C12.2546 42.8563 3.42822 34.0299 3.42822 23.142C3.42822 12.2541 12.2546 3.42773 23.1425 3.42773C34.0304 3.42773 42.8568 12.2541 42.8568 23.142C42.8568 29.9076 39.4488 35.8772 34.2558 39.4277H46.2852C47.232 39.4277 47.9995 40.1952 47.9995 41.142C47.9995 42.0888 47.232 42.8563 46.2852 42.8563H23.9995V42.838ZM39.4282 23.142C39.4282 32.1364 32.1369 39.4278 23.1425 39.4278C14.1482 39.4278 6.8568 32.1364 6.8568 23.142C6.8568 14.1477 14.1482 6.85631 23.1425 6.85631C32.1369 6.85631 39.4282 14.1477 39.4282 23.142Z" fill="white"/>
</svg>
