<svg width="48" height="48" viewBox="0 0 48 48" fill="none" xmlns="http://www.w3.org/2000/svg">
<path fill-rule="evenodd" clip-rule="evenodd" d="M34.0493 11.8623V28.4571L45.2475 35.9823C46.0333 36.5103 46.2422 37.5755 45.7141 38.3613C45.1861 39.1471 44.1209 39.3561 43.3351 38.828L5.86084 13.6451C5.07501 13.1171 4.86607 12.0519 5.39414 11.2661C5.92222 10.4803 6.98734 10.2713 7.77317 10.7994L19.4283 18.6317L32.2322 10.4566C32.4208 10.3366 32.6093 10.2852 32.7979 10.2852C33.4493 10.2852 34.0493 10.9537 34.0493 11.8623ZM30.6208 26.1531L22.5434 20.725L30.6208 15.5823V26.1531Z" fill="white"/>
<path fill-rule="evenodd" clip-rule="evenodd" d="M7.97322 30.308L9.97449 37.6315C10.2872 38.8679 11.4072 39.6334 12.5763 39.6334H16.7763C18.4362 39.6334 19.8493 38.0855 19.3981 36.3152L17.89 30.308H19.0627L32.2284 38.9137C32.417 39.0337 32.6056 39.0852 32.7941 39.0852C33.4456 39.0852 34.0456 38.4166 34.0456 37.508V36.3594L19.9199 26.8794H8.57129V22.2852H13.1141L8.00557 18.8566H6.977C5.96557 18.8737 5.14272 19.9023 5.14272 21.188V27.9937C5.14272 29.2794 5.96557 30.308 6.977 30.308H7.97322ZM11.5275 30.308L13.1389 36.2049H15.8354L14.3551 30.308H11.5275Z" fill="white"/>
</svg>
