<svg width="48" height="48" viewBox="0 0 48 48" fill="none" xmlns="http://www.w3.org/2000/svg">
<path d="M33.1246 24.47C27.7946 24.47 23.4746 28.79 23.4746 34.12C23.4746 39.45 27.7946 43.77 33.1246 43.77C38.4546 43.77 42.7746 39.45 42.7746 34.12C42.7746 28.79 38.4546 24.47 33.1246 24.47ZM38.9746 31.31L38.9546 31.29L30.9646 39.66L26.6246 35.07C26.4046 34.83 26.2846 34.52 26.2946 34.21C26.2946 33.88 26.4346 33.59 26.6746 33.37C27.1546 32.91 27.9246 32.94 28.3746 33.42L30.9646 36.15L37.2046 29.65C37.6646 29.17 38.4246 29.15 38.9146 29.6C39.3946 30.06 39.4146 30.82 38.9646 31.31H38.9746Z" fill="white"/>
<path d="M24.0047 42.78C23.4747 42.95 22.8747 43.05 22.2047 43.05C19.2347 43.05 17.6447 41.22 16.9947 39.4H21.5047C21.5047 39.4 21.4847 39.35 21.4747 39.33H21.5447C20.7947 37.72 20.3647 35.95 20.3647 34.05L20.3447 34.1C20.3447 27.52 25.4547 22.13 31.9447 21.68C31.9447 21.69 31.9447 21.71 31.9447 21.72C33.1247 21.67 34.2947 21.79 35.3947 22.06V22.03C35.3947 21.38 35.3347 20.74 35.2547 20.12L35.2747 19.97L35.2247 19.89C34.3147 13.77 29.5747 9.12 23.4947 8.57V3.29C23.4947 2.59 22.9147 2 22.2047 2C21.4947 2 20.9147 2.58 20.9147 3.29V8.6C14.1347 9.2 8.98472 14.88 8.98472 22.05V31.68L5.33471 36.67C4.95471 37.18 4.88471 37.89 5.19471 38.45C5.48471 39.03 6.06471 39.39 6.72471 39.39H14.3147C15.1247 42.7 17.9147 45.61 22.2047 45.61C23.7947 45.61 25.1747 45.2 26.3347 44.53C25.5947 44.1 24.9147 43.6 24.2647 43.04C24.1747 42.95 24.0947 42.87 24.0047 42.78Z" fill="white"/>
</svg>
