<svg width="48" height="48" viewBox="0 0 48 48" fill="none" xmlns="http://www.w3.org/2000/svg">
<path d="M26.133 44.6634C25.0157 45.2712 23.695 45.6296 22.1945 45.6296C17.9045 45.6296 15.0745 42.6996 14.2845 39.3896H6.71454C5.31454 39.3896 4.50454 37.7896 5.33454 36.6596L8.99454 31.6696V22.0296C8.99454 14.8996 14.0745 9.18961 20.9245 8.58961C20.9245 8.56961 20.9145 8.52961 20.9145 8.52961V3.38961C20.9145 2.67961 22.2045 2.09961 22.2045 2.09961C22.2045 2.09961 23.4945 2.67961 23.4945 3.38961V8.53961C23.4945 8.54961 23.492 8.55961 23.4895 8.56961C23.487 8.57961 23.4845 8.58961 23.4845 8.59961C30.2174 9.18935 35.2403 14.7158 35.4101 21.6751C34.6688 21.5399 33.905 21.4692 33.1246 21.4692C32.7435 21.4692 32.3663 21.4861 31.9937 21.5191C31.7545 16.0207 27.5858 11.9496 22.3145 11.9496H22.1445C16.7045 11.9496 12.4545 16.2596 12.4545 22.0196V32.7896L11.7945 33.6996L10.1345 35.9596H20.6075C20.7839 37.1704 21.1319 38.3256 21.6259 39.3996H16.9945C17.6442 41.2286 19.2428 43.0676 22.2195 43.0696C22.8593 43.0692 23.4358 42.9839 23.9532 42.8321C24.6076 43.5207 25.3388 44.1357 26.133 44.6634Z" fill="white"/>
<path d="M33.1246 24.4695C27.7946 24.4695 23.4746 28.7895 23.4746 34.1195C23.4746 39.4495 27.7946 43.7695 33.1246 43.7695C38.4546 43.7695 42.7746 39.4495 42.7746 34.1195C42.7746 28.7895 38.4546 24.4695 33.1246 24.4695ZM38.9746 31.3095L38.9546 31.2895L30.9646 39.6595L26.6246 35.0695C26.4046 34.8295 26.2846 34.5195 26.2946 34.2095C26.2946 33.8795 26.4346 33.5895 26.6746 33.3695C27.1546 32.9095 27.9246 32.9395 28.3746 33.4195L30.9646 36.1495L37.2046 29.6495C37.6646 29.1695 38.4246 29.1495 38.9146 29.5995C39.3946 30.0595 39.4146 30.8195 38.9646 31.3095H38.9746Z" fill="white"/>
</svg>
