<svg width="48" height="48" viewBox="0 0 48 48" fill="none" xmlns="http://www.w3.org/2000/svg">
<path d="M29.0336 6.0743C33.1338 7.3089 36.4861 9.84204 38.7764 13.0917L33.9208 13.0917C32.7373 13.0917 31.7779 14.0511 31.7779 15.2346C31.7779 16.4181 32.7373 17.3774 33.9208 17.3775L46.3492 17.3775L46.3492 4.94886C46.3492 3.76539 45.3898 2.80601 44.2063 2.80601C43.0229 2.80601 42.0635 3.76541 42.0635 4.94888L42.0635 10.3222C39.2489 6.46319 35.1971 3.4544 30.2693 1.97059C18.2573 -1.64635 5.58752 5.15921 1.97059 17.1712C-1.64635 29.1833 5.15921 41.853 17.1712 45.47C24.3088 47.6192 31.6793 46.0862 37.2389 41.9752C41.041 39.1637 44.0025 35.1427 45.47 30.2693C45.8112 29.1361 45.1691 27.9408 44.0359 27.5996C42.9027 27.2584 41.7075 27.9004 41.3662 29.0336C40.1744 32.9919 37.775 36.2486 34.6907 38.5293C30.1713 41.8712 24.1953 43.1092 18.4069 41.3662C8.6613 38.4318 3.13981 28.1525 6.0743 18.4069C9.0088 8.6613 19.288 3.13981 29.0336 6.0743Z" fill="white"/>
<path fill-rule="evenodd" clip-rule="evenodd" d="M28.0188 17.3394C27.4428 17.0617 26.8153 16.9228 26.1365 16.9228C25.4679 16.9228 24.8456 17.0617 24.2696 17.3394C23.7039 17.6171 23.2102 18.0285 22.7885 18.5737C22.3668 19.1085 22.0376 19.772 21.8011 20.564C21.5645 21.3457 21.4462 22.2405 21.4462 23.2485V23.6651C21.4462 24.6834 21.5645 25.5885 21.8011 26.3805C22.0376 27.1725 22.3668 27.8411 22.7885 28.3862C23.2102 28.9211 23.7039 29.3325 24.2696 29.6205C24.8456 29.8982 25.4679 30.0371 26.1365 30.0371C26.8153 30.0371 27.4428 29.8931 28.0188 29.6051C28.5948 29.3171 29.0885 28.9005 29.4999 28.3554C29.9216 27.8102 30.2508 27.1468 30.4873 26.3651C30.7239 25.5731 30.8422 24.6731 30.8422 23.6651V23.264C30.8422 22.2457 30.7239 21.3457 30.4873 20.564C30.2508 19.772 29.9216 19.1085 29.4999 18.5737C29.0885 18.0285 28.5948 17.6171 28.0188 17.3394ZM24.6399 19.916C24.9588 19.2885 25.4576 18.9748 26.1365 18.9748C26.8051 18.9748 27.3039 19.2885 27.6331 19.916C27.9622 20.5331 28.1268 21.4897 28.1268 22.7857V24.1897C28.1268 25.5062 27.9622 26.4731 27.6331 27.0902C27.3142 27.6971 26.8153 28.0005 26.1365 28.0005C25.4576 28.0005 24.9588 27.6971 24.6399 27.0902C24.3313 26.4731 24.1771 25.5062 24.1771 24.1897V22.7857C24.1771 21.4897 24.3313 20.5331 24.6399 19.916Z" fill="white"/>
<path d="M17.1164 20.0702V29.8057H19.6622V17.1542H17.1936L14.5399 19.7925V22.6005L17.1164 20.0702Z" fill="white"/>
</svg>
