<svg width="48" height="48" viewBox="0 0 48 48" fill="none" xmlns="http://www.w3.org/2000/svg">
<path d="M29.5225 5.8583C33.998 7.20593 37.6028 10.066 39.9463 13.7143L34.2861 13.7143C33.3393 13.7143 32.5718 14.4818 32.5718 15.4286C32.5718 16.3754 33.3393 17.1429 34.2861 17.1429L46.2859 17.1429L46.2859 5.14288C46.2859 4.19611 45.5184 3.4286 44.5716 3.4286C43.6248 3.4286 42.8573 4.19612 42.8573 5.14289L42.8574 11.9028C40.0899 7.57417 35.8184 4.17342 30.511 2.57532C18.7256 -0.973369 6.29491 5.70378 2.74622 17.4892C-0.80247 29.2745 5.87469 41.7053 17.6601 45.254C24.6627 47.3625 31.8938 45.8591 37.3493 41.825C41.0796 39.0666 43.985 35.122 45.4249 30.3401C45.6978 29.4335 45.1842 28.4773 44.2776 28.2044C43.3711 27.9314 42.4149 28.445 42.1419 29.3516C40.9225 33.4013 38.4669 36.7345 35.3108 39.0682C30.6874 42.4871 24.5719 43.7546 18.6486 41.971C8.67635 38.9682 3.02645 28.4499 6.02919 18.4777C9.03193 8.50546 19.5502 2.85556 29.5225 5.8583Z" fill="white"/>
<path fill-rule="evenodd" clip-rule="evenodd" d="M28.384 17.5334C27.808 17.2557 27.1806 17.1169 26.5017 17.1169C25.8332 17.1169 25.2109 17.2557 24.6349 17.5334C24.0692 17.8112 23.5755 18.2226 23.1537 18.7677C22.732 19.3026 22.4029 19.966 22.1663 20.758C21.9297 21.5397 21.8115 22.4346 21.8115 23.4426V23.8592C21.8115 24.8774 21.9297 25.7826 22.1663 26.5746C22.4029 27.3666 22.732 28.0352 23.1537 28.5803C23.5755 29.1152 24.0692 29.5266 24.6349 29.8146C25.2109 30.0923 25.8332 30.2312 26.5017 30.2312C27.1806 30.2312 27.808 30.0872 28.384 29.7992C28.96 29.5112 29.4537 29.0946 29.8652 28.5494C30.2869 28.0043 30.616 27.3409 30.8526 26.5592C31.0892 25.7672 31.2075 24.8672 31.2075 23.8592V23.458C31.2075 22.4397 31.0892 21.5397 30.8526 20.758C30.616 19.966 30.2869 19.3026 29.8652 18.7677C29.4537 18.2226 28.96 17.8112 28.384 17.5334ZM25.0052 20.11C25.324 19.4826 25.8229 19.1689 26.5017 19.1689C27.1703 19.1689 27.6692 19.4826 27.9983 20.11C28.3275 20.7272 28.492 21.6837 28.492 22.9797V24.3837C28.492 25.7003 28.3275 26.6672 27.9983 27.2843C27.6795 27.8912 27.1806 28.1946 26.5017 28.1946C25.8229 28.1946 25.324 27.8912 25.0052 27.2843C24.6966 26.6672 24.5423 25.7003 24.5423 24.3837V22.9797C24.5423 21.6837 24.6966 20.7272 25.0052 20.11Z" fill="white"/>
<path d="M17.4817 20.2643V29.9997H20.0274V17.3483H17.5589L14.9051 19.9866V22.7946L17.4817 20.2643Z" fill="white"/>
</svg>
