<svg width="48" height="48" viewBox="0 0 48 48" fill="none" xmlns="http://www.w3.org/2000/svg">
<path fill-rule="evenodd" clip-rule="evenodd" d="M26.4678 7.59749C26.2484 7.78842 26.0345 7.98906 25.8265 8.19942L23.9275 10.1319L22.0285 8.19942C21.821 7.98862 21.6074 7.78757 21.3884 7.59628C16.877 3.65552 10.0541 3.85657 5.75985 8.19942C1.27667 12.7531 1.27667 20.1193 5.75985 24.6729L22.4271 41.5778C23.2313 42.3934 24.5468 42.3948 25.3527 41.5809L42.0951 24.6729C46.5783 20.1193 46.5783 12.7531 42.0951 8.19942C37.8191 3.85613 30.9961 3.65548 26.4678 7.59749ZM39.5382 22.1556C39.5393 22.1544 39.5404 22.1533 39.5415 22.1522C42.6464 18.9949 42.6452 13.8727 39.5382 10.7168C36.4649 7.5952 31.4831 7.58596 28.3815 10.7188C28.3803 10.72 28.3791 10.7212 28.3779 10.7224L23.9275 15.2512L19.4715 10.7168C19.4712 10.7165 19.4719 10.7171 19.4715 10.7168C16.3979 7.59591 11.4152 7.58629 8.31403 10.7196C5.20891 13.8766 5.20955 18.9985 8.31594 22.1547C8.31565 22.1544 8.31623 22.155 8.31594 22.1547L23.8938 37.9546L39.5382 22.1556Z" fill="white"/>
</svg>
