<svg width="48" height="48" viewBox="0 0 48 48" fill="none" xmlns="http://www.w3.org/2000/svg">
<path d="M29.3201 9.56069C29.3201 10.2911 29.4346 10.9947 29.6466 11.6546L16.5856 19.8347C15.3556 18.6496 13.6829 17.9207 11.84 17.9207C8.06237 17.9207 5 20.9831 5 24.7607C5 28.5383 8.06237 31.6007 11.84 31.6007C13.8206 31.6007 15.6046 30.7588 16.8537 29.4134L29.5658 36.6169C29.4056 37.1975 29.32 37.8091 29.32 38.4406C29.32 42.2183 32.3824 45.2806 36.16 45.2806C39.9376 45.2806 43 42.2183 43 38.4406C43 34.663 39.9376 31.6007 36.16 31.6007C34.0908 31.6007 32.2363 32.5194 30.982 33.9712L18.3642 26.8211C18.5693 26.1709 18.68 25.4787 18.68 24.7607C18.68 23.908 18.524 23.0918 18.2389 22.3391L31.1709 14.2398C32.4188 15.5698 34.1924 16.4007 36.1601 16.4007C39.9377 16.4007 43.0001 13.3383 43.0001 9.56069C43.0001 5.78307 39.9377 2.7207 36.1601 2.7207C32.3825 2.7207 29.3201 5.78307 29.3201 9.56069Z" fill="white"/>
</svg>
