<svg width="48" height="48" viewBox="0 0 48 48" fill="none" xmlns="http://www.w3.org/2000/svg">
<path fill-rule="evenodd" clip-rule="evenodd" d="M36.1601 16.4007C34.1924 16.4007 32.4188 15.5698 31.1709 14.2398L18.2389 22.3391C18.524 23.0918 18.68 23.908 18.68 24.7607C18.68 25.4787 18.5693 26.1709 18.3642 26.8211L30.982 33.9712C32.2363 32.5194 34.0908 31.6007 36.16 31.6007C39.9376 31.6007 43 34.663 43 38.4406C43 42.2183 39.9376 45.2806 36.16 45.2806C32.3824 45.2806 29.32 42.2183 29.32 38.4406C29.32 37.8091 29.4056 37.1975 29.5658 36.6169L16.8537 29.4134C15.6046 30.7588 13.8206 31.6007 11.84 31.6007C8.06237 31.6007 5 28.5383 5 24.7607C5 20.9831 8.06237 17.9207 11.84 17.9207C13.6829 17.9207 15.3556 18.6496 16.5856 19.8347L29.6466 11.6546C29.4346 10.9947 29.3201 10.2911 29.3201 9.56069C29.3201 5.78307 32.3825 2.7207 36.1601 2.7207C39.9377 2.7207 43.0001 5.78307 43.0001 9.56069C43.0001 13.3383 39.9377 16.4007 36.1601 16.4007ZM36.1601 12.4007C34.5916 12.4007 33.3201 11.1292 33.3201 9.56069C33.3201 7.99221 34.5916 6.7207 36.1601 6.7207C37.7286 6.7207 39.0001 7.99221 39.0001 9.56069C39.0001 11.1292 37.7286 12.4007 36.1601 12.4007ZM36.16 41.2806C37.7285 41.2806 39 40.0091 39 38.4406C39 36.8722 37.7285 35.6007 36.16 35.6007C34.5915 35.6007 33.32 36.8722 33.32 38.4406C33.32 40.0091 34.5915 41.2806 36.16 41.2806ZM14.68 24.7607C14.68 26.3292 13.4085 27.6007 11.84 27.6007C10.2715 27.6007 9 26.3292 9 24.7607C9 23.1922 10.2715 21.9207 11.84 21.9207C13.4085 21.9207 14.68 23.1922 14.68 24.7607Z" fill="white"/>
</svg>
