<svg width="48" height="48" viewBox="0 0 48 48" fill="none" xmlns="http://www.w3.org/2000/svg">
<path d="M25.2397 24.4857C24.8111 25.3429 23.7826 25.6686 22.9425 25.24C22.1025 24.7943 21.7597 23.7657 22.1882 22.9257C22.634 22.0857 23.6626 21.76 24.5026 22.1886C25.3426 22.6171 25.6854 23.6457 25.2397 24.4857Z" fill="white"/>
<path fill-rule="evenodd" clip-rule="evenodd" d="M4 23.7143C4 12.8286 12.8286 4 23.7143 4C34.6 4 43.4286 12.8286 43.4286 23.7143C43.4286 34.6 34.6 43.4286 23.7143 43.4286C12.8286 43.4286 4 34.6 4 23.7143ZM18.2457 34.3771L26.7658 25.2743L29.2 13.0343L20.6628 22.1371L18.2457 34.3771Z" fill="white"/>
</svg>
