<svg width="48" height="48" viewBox="0 0 48 48" fill="none" xmlns="http://www.w3.org/2000/svg">
<path fill-rule="evenodd" clip-rule="evenodd" d="M26.7654 25.2743L18.2282 34.3771L20.6625 22.1371L29.1997 13.0343L26.7654 25.2743ZM24.5025 22.1886C23.6625 21.7429 22.6168 22.0857 22.1882 22.9257C21.7597 23.7657 22.0854 24.7943 22.9254 25.24C23.7654 25.6686 24.8111 25.3257 25.2397 24.4857C25.6682 23.6457 25.3425 22.6171 24.5025 22.1886Z" fill="white"/>
<path fill-rule="evenodd" clip-rule="evenodd" d="M4 23.7143C4 12.8286 12.8286 4 23.7143 4C34.6 4 43.4286 12.8286 43.4286 23.7143C43.4286 34.6 34.6 43.4286 23.7143 43.4286C12.8286 43.4286 4 34.6 4 23.7143ZM7.58286 23.7143C7.58286 32.6286 14.8 39.8457 23.7143 39.8457C32.6286 39.8457 39.8457 32.6286 39.8457 23.7143C39.8457 14.8 32.6286 7.58286 23.7143 7.58286C14.8 7.58286 7.58286 14.8 7.58286 23.7143Z" fill="white"/>
</svg>
