<svg width="48" height="48" viewBox="0 0 48 48" fill="none" xmlns="http://www.w3.org/2000/svg">
<path fill-rule="evenodd" clip-rule="evenodd" d="M41.8619 33.2214C42.8219 32.3335 43.4219 31.0614 43.4219 29.6694H43.4459C43.4459 29.0214 43.3019 28.3974 43.0859 27.8454C44.0939 26.8614 44.6939 25.5174 44.6939 24.0774C44.6939 22.6374 44.1419 21.2934 43.1579 20.3094C42.1499 19.3014 40.8059 18.7494 39.4139 18.7494H31.9499C32.3339 17.4534 32.8859 15.6294 33.6059 13.3734C34.1339 11.6934 33.9659 10.0854 33.1499 8.69345C31.3979 5.76545 28.1099 4.27745 26.9819 6.82145L24.0051 15.1205L18.1739 19.5414L18.2219 44.7415L36.0299 44.7895C37.3259 44.7895 38.5259 44.2854 39.4379 43.3974C40.3499 42.4855 40.8539 41.2614 40.8539 39.9894C40.8539 39.4374 40.7579 38.8855 40.5659 38.3815C41.5499 37.4935 42.1259 36.2214 42.1259 34.8294C42.1259 34.2774 42.0299 33.7255 41.8619 33.2214ZM13.5064 19.5403H6.59443C5.61043 19.5403 4.79443 20.3323 4.79443 21.3403V42.9163C4.79443 43.9003 5.61043 44.7163 6.59443 44.7403H13.5064V19.5403Z" fill="white"/>
</svg>
