<svg width="48" height="48" viewBox="0 0 48 48" fill="none" xmlns="http://www.w3.org/2000/svg">
<path fill-rule="evenodd" clip-rule="evenodd" d="M35.224 44.0174L5.8 43.9454C4.816 43.9454 4 43.1294 4 42.1454V20.5694C4 19.5854 4.816 18.7694 5.8 18.7694H14.752L21.304 12.1934L23.92 5.16138C24.232 4.34538 25.096 3.86538 25.96 4.03338C26.416 4.12938 30.544 5.01738 32.296 7.94538C33.112 9.33738 33.28 10.9454 32.752 12.6254C32.032 14.9054 31.48 16.7054 31.096 18.0014H38.56C39.976 18.0014 41.296 18.5534 42.304 19.5614C43.312 20.5694 43.84 21.8894 43.84 23.3294C43.84 24.7694 43.24 26.1134 42.232 27.0734C42.472 27.6494 42.592 28.2734 42.592 28.8974C42.592 30.2894 41.992 31.5614 41.032 32.4494C41.224 32.9534 41.32 33.5054 41.32 34.0574C41.32 35.4494 40.72 36.7214 39.76 37.6094C39.952 38.1134 40.048 38.6654 40.048 39.2174C40.048 40.4894 39.544 41.7134 38.632 42.6254C37.72 43.5374 36.52 44.0174 35.224 44.0174ZM7.024 40.8535L13.6094 40.8691V21.191H7V40.3454L7.024 40.8535ZM16.7095 21.191V40.8691L35.2468 40.9174H35.2481C35.715 40.9174 36.1204 40.7466 36.4466 40.453L36.4564 40.4442L36.4657 40.435C36.7983 40.1023 36.9721 39.6875 36.9721 39.2174C36.9721 38.7502 36.7752 38.2713 36.392 37.9517C36.0366 37.6253 35.8954 37.1468 35.9983 36.6705C36.1237 36.1992 36.4919 35.8363 36.9381 35.7162L36.9397 35.7158C37.6756 35.5151 38.2201 34.8447 38.2201 34.0574C38.2201 33.5902 38.0232 33.1113 37.64 32.7917C37.2846 32.4653 37.1434 31.9868 37.2463 31.5105C37.3717 31.0392 37.7399 30.6763 38.1861 30.5562L38.1877 30.5558C38.9236 30.3551 39.4681 29.6847 39.4681 28.8974C39.4681 28.3941 39.2378 27.8895 38.8527 27.5744L38.8507 27.5728C38.4834 27.2754 38.2945 26.785 38.3797 26.3244C38.4668 25.8546 38.7964 25.4717 39.2511 25.3141C40.1326 25.0101 40.7401 24.2073 40.7401 23.3054C40.7401 22.8814 40.6192 22.2646 40.1242 21.7387L40.119 21.7332L40.1136 21.7278C39.6855 21.2997 39.151 21.0774 38.5601 21.0774H28.6721C28.1549 21.0774 27.6852 20.767 27.475 20.2988C27.3357 19.9645 27.3405 19.5825 27.473 19.2845L27.4882 19.2504L27.4981 19.2144C27.6874 18.528 28.4767 15.8964 29.7971 11.6714C29.9606 11.1531 29.9892 10.7167 29.9348 10.3475C29.8806 9.97989 29.7483 9.70697 29.6285 9.5116C29.3344 9.01372 28.8764 8.61641 28.3979 8.30166C27.914 7.98341 27.3779 7.72938 26.8939 7.53082L26.4174 7.33533L24.054 13.6203C23.9742 13.8187 23.8865 13.9679 23.7585 14.0958L16.7095 21.191Z" fill="white"/>
</svg>
