<svg width="48" height="48" viewBox="0 0 48 48" fill="none" xmlns="http://www.w3.org/2000/svg">
<path d="M37.0284 22.8003H34.2856V17.1431C34.2856 11.4688 29.6742 6.85742 23.9999 6.85742C18.3256 6.85742 13.7141 11.4688 13.7141 17.1431V22.8003H10.9713C9.65129 22.8003 8.57129 23.8803 8.57129 25.2003V40.1146C8.57129 41.4346 9.65129 42.5146 10.9713 42.5146H37.0284C38.3484 42.5146 39.4284 41.4346 39.4284 40.1146V25.2003C39.4284 23.8803 38.3484 22.8003 37.0284 22.8003ZM17.1427 17.1431C17.1427 13.3546 20.2113 10.286 23.9999 10.286C27.7884 10.286 30.857 13.3546 30.857 17.1431V22.8003H17.1427V17.1431ZM35.9999 39.086H11.9999V26.2289H35.9999V39.086Z" fill="white"/>
<path d="M23.9999 37.0289C24.9427 37.0289 25.7141 36.2574 25.7141 35.3146V30.1717C25.7141 29.2289 24.9427 28.4574 23.9999 28.4574C23.057 28.4574 22.2856 29.2289 22.2856 30.1717V35.3146C22.2856 36.2574 23.057 37.0289 23.9999 37.0289Z" fill="white"/>
</svg>
