<svg width="48" height="48" viewBox="0 0 48 48" fill="none" xmlns="http://www.w3.org/2000/svg">
<path fill-rule="evenodd" clip-rule="evenodd" d="M14.3008 15.8969C14.1467 16.0256 13.9522 16.0961 13.7514 16.0961H2.5715C2.09811 16.0961 1.71436 16.4799 1.71436 16.9532L1.71436 32.1319C1.71436 32.6053 2.09811 32.9891 2.5715 32.9891H12.8704C13.0712 32.9891 13.2657 33.0596 13.4198 33.1883L21.4241 39.8733C21.9822 40.3394 22.8306 39.9426 22.8306 39.2154L22.8306 10.6063C22.8306 9.87914 21.9822 9.48229 21.4241 9.94836L14.3008 15.8969Z" fill="white"/>
<path fill-rule="evenodd" clip-rule="evenodd" d="M26.5262 30.0585C27.0246 30.5643 27.8327 30.5643 28.3311 30.0585C29.0042 29.3754 29.5381 28.5645 29.9024 27.672C30.2667 26.7796 30.4542 25.823 30.4542 24.857C30.4542 23.891 30.2667 22.9344 29.9024 22.042C29.5381 21.1495 29.0042 20.3386 28.3311 19.6555C27.8327 19.1497 27.0246 19.1497 26.5262 19.6555C26.0278 20.1613 26.0278 20.9813 26.5262 21.4871C26.9623 21.9296 27.3082 22.455 27.5442 23.0332C27.7802 23.6114 27.9017 24.2312 27.9017 24.857C27.9017 25.4829 27.7802 26.1026 27.5442 26.6808C27.3082 27.259 26.9623 27.7844 26.5262 28.2269C26.0278 28.7327 26.0278 29.5527 26.5262 30.0585Z" fill="white"/>
<path fill-rule="evenodd" clip-rule="evenodd" d="M31.6691 35.2014C32.1675 35.7071 32.9755 35.7071 33.4739 35.2014C34.8126 33.8429 35.8744 32.2302 36.5989 30.4553C37.3233 28.6804 37.6962 26.7781 37.6962 24.857C37.6962 22.9359 37.3233 21.0336 36.5989 19.2587C35.8744 17.4838 34.8126 15.8711 33.4739 14.5126C32.9755 14.0069 32.1675 14.0069 31.6691 14.5126C31.1707 15.0184 31.1707 15.8384 31.6691 16.3442C32.7707 17.4621 33.6445 18.7893 34.2407 20.2499C34.8369 21.7105 35.1437 23.276 35.1437 24.857C35.1437 26.438 34.8369 28.0035 34.2407 29.4641C33.6445 30.9247 32.7707 32.2519 31.6691 33.3698C31.1707 33.8756 31.1707 34.6956 31.6691 35.2014Z" fill="white"/>
</svg>
