<svg width="48" height="48" viewBox="0 0 48 48" fill="none" xmlns="http://www.w3.org/2000/svg">
<path d="M13.7139 6.97168H34.2852C38.0722 6.97168 41.1425 10.0421 41.1426 13.8291V41.0264L34.1455 35.1953C33.5293 34.6818 32.7523 34.4004 31.9502 34.4004H13.7139C9.92698 34.4003 6.85667 31.3308 6.85645 27.5439V13.8291C6.85652 10.0421 9.92688 6.97175 13.7139 6.97168ZM33.9189 12.6143C31.2076 9.77426 26.8425 9.66988 24 12.2881C21.1627 9.66681 16.7992 9.77856 14.083 12.6113L14.0801 12.6133C11.3058 15.5192 11.3058 20.1918 14.0801 23.0977L14.0811 23.0986L20.1992 29.4971C22.2596 31.6521 25.7005 31.6562 27.7656 29.5059L33.916 23.1006L33.9189 23.0977C36.6931 20.1918 36.693 15.5202 33.9189 12.6143Z" fill="white" stroke="white" stroke-width="3.42857"/>
</svg>
