<svg width="48" height="48" viewBox="0 0 48 48" fill="none" xmlns="http://www.w3.org/2000/svg">
<path fill-rule="evenodd" clip-rule="evenodd" d="M24.7644 13.5397C25.0339 13.2586 25.3244 13.0127 25.6304 12.802C27.7665 11.3315 30.6631 11.5774 32.5365 13.5397C34.6783 15.7832 34.6783 19.4123 32.5365 21.6557L26.3867 28.0604C24.9973 29.5074 22.6822 29.5049 21.2959 28.0549L15.1778 21.6557C13.036 19.4123 13.036 15.7832 15.1778 13.5397C17.0561 11.5808 19.9469 11.3324 22.0758 12.7943C22.3851 13.0067 22.6783 13.2552 22.9499 13.5397L23.8571 14.4918L24.7644 13.5397ZM30.0593 19.2854L30.0566 19.2882L23.9137 25.6857C23.8991 25.7008 23.8896 25.7056 23.8831 25.7083C23.8741 25.7121 23.8605 25.7154 23.8438 25.7154C23.8271 25.7154 23.8136 25.712 23.8045 25.7082C23.7981 25.7055 23.7885 25.7007 23.774 25.6856L17.657 19.2874C16.7816 18.3697 16.781 16.8286 17.6551 15.91C18.4593 15.074 19.6826 15.0833 20.47 15.9073L23.8571 19.4617L27.2419 15.9097C28.0464 15.0737 29.2693 15.0826 30.0566 15.9073C30.9326 16.8248 30.9335 18.3665 30.0593 19.2854Z" fill="white"/>
<path fill-rule="evenodd" clip-rule="evenodd" d="M5 13.5714C5 8.83756 8.83756 5 13.5714 5H34.1429C38.8767 5 42.7143 8.83756 42.7143 13.5714V41.3356C42.7143 42.682 41.2332 43.5029 40.0914 42.7893L29.4169 36.1177C29.1445 35.9474 28.8296 35.8571 28.5083 35.8571H13.5714C8.83756 35.8571 5 32.0196 5 27.2857V13.5714ZM13.5714 8.42857H34.1429C36.9832 8.42857 39.2857 10.7311 39.2857 13.5714V38.2426L31.2341 33.2103C30.4167 32.6994 29.4722 32.4286 28.5083 32.4286H13.5714C10.7311 32.4286 8.42857 30.126 8.42857 27.2857V13.5714C8.42857 10.7311 10.7311 8.42857 13.5714 8.42857Z" fill="white"/>
</svg>
