<svg width="48" height="48" viewBox="0 0 48 48" fill="none" xmlns="http://www.w3.org/2000/svg">
<path fill-rule="evenodd" clip-rule="evenodd" d="M22.7145 8.57115C22.7145 8.58867 22.7148 8.60611 22.7155 8.62345C15.8726 9.22517 10.8001 14.9472 10.8001 22.0711V31.714L7.14354 36.7002C6.31317 37.8326 7.12178 39.4283 8.52595 39.4283H16.0466C16.7533 42.6601 19.4339 45.8569 24.0002 45.8569C28.5666 45.8569 31.2471 42.6601 31.9538 39.4283H39.4743C40.8784 39.4283 41.6871 37.8326 40.8567 36.7002L37.2001 31.714V27.7797C36.4894 27.924 35.7537 27.9997 35.0004 27.9997C28.9253 27.9997 24.0004 23.0749 24.0004 16.9997C24.0004 13.8464 25.3272 11.0031 27.453 8.99739C26.7541 8.81524 26.03 8.689 25.2849 8.62347C25.2856 8.60612 25.2859 8.58867 25.2859 8.57115V3.42829C25.2859 2.71821 24.7103 2.14258 24.0002 2.14258C23.2901 2.14258 22.7145 2.71821 22.7145 3.42829V8.57115ZM18.697 39.4283C19.3429 41.4752 21.1455 43.2854 24.0002 43.2854C26.855 43.2854 28.6576 41.4752 29.3034 39.4283H18.697Z" fill="white"/>
<circle cx="35" cy="17" r="7" fill="#4F8BFF"/>
</svg>
