<svg width="48" height="48" viewBox="0 0 48 48" fill="none" xmlns="http://www.w3.org/2000/svg">
<path fill-rule="evenodd" clip-rule="evenodd" d="M22.7145 8.57115C22.7145 8.58867 22.7148 8.60611 22.7155 8.62345C15.8726 9.22517 10.8001 14.9472 10.8001 22.0711V31.714L7.14354 36.7002C6.31317 37.8326 7.12178 39.4283 8.52595 39.4283H16.0466C16.7533 42.6601 19.4339 45.8569 24.0002 45.8569C28.5666 45.8569 31.2471 42.6601 31.9538 39.4283H39.4743C40.8784 39.4283 41.6871 37.8326 40.8567 36.7002L37.2001 31.714V27.7793C36.4894 27.9236 35.7537 27.9993 35.0004 27.9993C34.585 27.9993 34.175 27.9763 33.7715 27.9314V32.8364L36.0913 35.9997H11.9089L14.2287 32.8364V22.0711C14.2287 16.315 18.4806 11.9997 23.914 11.9997H24.0862C24.4532 11.9997 24.8148 12.0194 25.1701 12.0579C25.7496 10.9074 26.525 9.8726 27.4527 8.9973C26.7539 8.8152 26.0299 8.68899 25.2849 8.62347C25.2856 8.60612 25.2859 8.58867 25.2859 8.57115V3.42829C25.2859 2.71821 24.7103 2.14258 24.0002 2.14258C23.2901 2.14258 22.7145 2.71821 22.7145 3.42829V8.57115ZM29.3034 39.4283H18.697C19.3429 41.4752 21.1455 43.2854 24.0002 43.2854C26.855 43.2854 28.6576 41.4752 29.3034 39.4283Z" fill="white"/>
<circle cx="35" cy="17" r="7" fill="#4F8BFF"/>
</svg>
