<svg width="48" height="48" viewBox="0 0 48 48" fill="none" xmlns="http://www.w3.org/2000/svg">
<path fill-rule="evenodd" clip-rule="evenodd" d="M17.5716 46.2852C18.755 46.2852 19.7144 45.3258 19.7144 44.1423L19.7144 3.85658C19.7144 2.67312 18.755 1.71373 17.5716 1.71373C16.3881 1.71373 15.4287 2.67312 15.4287 3.85658L15.4287 44.1423C15.4287 45.3258 16.3881 46.2852 17.5716 46.2852Z" fill="white"/>
<path fill-rule="evenodd" clip-rule="evenodd" d="M31.2859 46.2852C32.4693 46.2852 33.4287 45.3258 33.4287 44.1423V3.85658C33.4287 2.67312 32.4693 1.71373 31.2859 1.71373C30.1024 1.71373 29.143 2.67312 29.143 3.85658L29.143 44.1423C29.143 45.3258 30.1024 46.2852 31.2859 46.2852Z" fill="white"/>
</svg>
