<svg width="48" height="48" viewBox="0 0 48 48" fill="none" xmlns="http://www.w3.org/2000/svg">
<path fill-rule="evenodd" clip-rule="evenodd" d="M17.143 46.2852C18.0898 46.2852 18.8573 45.5176 18.8573 44.5709L18.8573 3.42801C18.8573 2.48124 18.0898 1.71373 17.143 1.71373C16.1962 1.71373 15.4287 2.48124 15.4287 3.42801L15.4287 44.5709C15.4287 45.5176 16.1962 46.2852 17.143 46.2852Z" fill="white"/>
<path fill-rule="evenodd" clip-rule="evenodd" d="M30.8573 46.2852C31.8041 46.2852 32.5716 45.5176 32.5716 44.5709V3.42801C32.5716 2.48124 31.8041 1.71373 30.8573 1.71373C29.9105 1.71373 29.143 2.48124 29.143 3.42801L29.143 44.5709C29.143 45.5176 29.9105 46.2852 30.8573 46.2852Z" fill="white"/>
</svg>
