<svg width="48" height="48" viewBox="0 0 48 48" fill="none" xmlns="http://www.w3.org/2000/svg">
<path fill-rule="evenodd" clip-rule="evenodd" d="M23.9997 44.5706C35.3609 44.5706 44.5711 35.3604 44.5711 23.9992C44.5711 12.6379 35.3609 3.42773 23.9997 3.42773C12.6384 3.42773 3.42822 12.6379 3.42822 23.9992C3.42822 35.3604 12.6384 44.5706 23.9997 44.5706ZM25.6266 12.7492V27.9857H22.3539V12.7491L25.6266 12.7492ZM23.9902 35.6859C25.2329 35.6859 26.2402 34.6786 26.2402 33.4359C26.2402 32.1933 25.2329 31.1859 23.9902 31.1859C22.7476 31.1859 21.7402 32.1933 21.7402 33.4359C21.7402 34.6786 22.7476 35.6859 23.9902 35.6859Z" fill="white"/>
</svg>
