<svg width="48" height="48" viewBox="0 0 48 48" fill="none" xmlns="http://www.w3.org/2000/svg">
<path d="M25.6364 12.7626V27.9992H22.3636V12.7626L25.6364 12.7626Z" fill="white"/>
<path d="M24 35.6994C25.2426 35.6994 26.25 34.692 26.25 33.4494C26.25 32.2068 25.2426 31.1994 24 31.1994C22.7574 31.1994 21.75 32.2068 21.75 33.4494C21.75 34.692 22.7574 35.6994 24 35.6994Z" fill="white"/>
<path fill-rule="evenodd" clip-rule="evenodd" d="M23.9997 44.5706C35.3609 44.5706 44.5711 35.3604 44.5711 23.9992C44.5711 12.6379 35.3609 3.42773 23.9997 3.42773C12.6384 3.42773 3.42822 12.6379 3.42822 23.9992C3.42822 35.3604 12.6384 44.5706 23.9997 44.5706ZM41.9997 23.9992C41.9997 33.9403 33.9408 41.9992 23.9997 41.9992C14.0585 41.9992 5.99965 33.9403 5.99965 23.9992C5.99965 14.058 14.0585 5.99916 23.9997 5.99916C33.9408 5.99916 41.9997 14.058 41.9997 23.9992Z" fill="white"/>
</svg>
