<svg width="48" height="48" viewBox="0 0 48 48" fill="none" xmlns="http://www.w3.org/2000/svg">
<path fill-rule="evenodd" clip-rule="evenodd" d="M22.9688 3.42886C20.5959 3.44127 18.3233 3.87399 16.2212 4.65614C8.72555 7.44528 3.39937 14.6779 3.42883 23.1399C3.46655 33.9749 12.2706 42.7331 23.1056 42.7143C27.2791 42.7071 31.1467 41.3987 34.3249 39.1734L42.0757 46.9244C43.4146 48.2634 45.5855 48.2634 46.9244 46.9245C48.2634 45.5856 48.2634 43.4147 46.9245 42.0758L39.1735 34.3246C41.4051 31.1374 42.7143 27.2573 42.7144 23.0718C42.7076 17.8464 40.6218 12.8385 36.9173 9.15328C34.8619 7.1086 32.402 5.56434 29.7267 4.59812C27.5802 3.82287 25.295 3.41975 22.9688 3.42886ZM23.0937 35.8572C30.1449 35.845 35.8549 30.1266 35.8572 23.0758C35.8515 19.6739 34.4931 16.4139 32.0812 14.0146C29.6692 11.6152 26.402 10.2737 22.9999 10.2859C15.9496 10.3254 10.2614 16.065 10.2859 23.116C10.3105 30.1686 16.0411 35.8694 23.0937 35.8572Z" fill="white"/>
</svg>
