<svg width="48" height="48" viewBox="0 0 48 48" fill="none" xmlns="http://www.w3.org/2000/svg">
<path fill-rule="evenodd" clip-rule="evenodd" d="M22.9688 3.42886C21.8037 3.43495 20.6628 3.54237 19.5545 3.74272C10.3552 5.40554 3.39517 13.47 3.42883 23.1399C3.46655 33.9749 12.2706 42.7331 23.1056 42.7143C27.9 42.706 32.2907 40.9806 35.6964 38.1205L43.2879 45.7123C43.9574 46.3817 45.0428 46.3818 45.7123 45.7123C46.3817 45.0428 46.3817 43.9574 45.7123 43.2879L38.1207 35.6961C40.9878 32.282 42.7143 27.8782 42.7144 23.0718C42.7076 17.8464 40.6218 12.8385 36.9173 9.15328C34.0302 6.28121 30.3449 4.39648 26.3857 3.71426C25.2648 3.52111 24.1218 3.42435 22.9688 3.42886ZM23.0997 39.2858C32.0428 39.2703 39.2846 32.0167 39.2858 23.0737C39.2795 18.7601 37.5574 14.6262 34.4993 11.584C31.4411 8.54167 27.2982 6.84112 22.9846 6.8574C14.0419 6.90533 6.82625 14.1848 6.85738 23.1279C6.88852 32.0717 14.1559 39.3013 23.0997 39.2858Z" fill="white"/>
</svg>
