<svg width="48" height="48" viewBox="0 0 48 48" fill="none" xmlns="http://www.w3.org/2000/svg">
<path fill-rule="evenodd" clip-rule="evenodd" d="M7.17548 23.4748C6.74828 23.8201 6.75156 24.4724 7.18222 24.8134L24.3251 38.3862C24.887 38.8311 25.7143 38.4309 25.7143 37.7142L25.7143 10.2857C25.7143 9.56493 24.8789 9.16598 24.3183 9.61903L7.17548 23.4748Z" fill="white"/>
<path d="M4.28571 35.5714C4.28571 36.7549 3.32632 37.7143 2.14286 37.7143C0.95939 37.7143 0 36.7549 0 35.5714V12.1427C0 10.9592 0.95939 9.99986 2.14286 9.99986C3.32632 9.99986 4.28571 10.9592 4.28571 12.1427V35.5714Z" fill="white"/>
<path fill-rule="evenodd" clip-rule="evenodd" d="M29.4679 24.8938C29.0373 24.5528 29.034 23.9004 29.4612 23.5551L46.6041 9.69939C47.1646 9.24634 48 9.6453 48 10.366V37.7946C48 38.5113 47.1727 38.9115 46.6108 38.4666L29.4679 24.8938Z" fill="white"/>
</svg>
