<svg width="48" height="48" viewBox="0 0 48 48" fill="none" xmlns="http://www.w3.org/2000/svg">
<path d="M1.71401 37.7139C2.66078 37.7139 3.42829 36.9464 3.42829 35.9996V11.7137C3.42829 10.767 2.66078 9.99944 1.71401 9.99944C0.767235 9.99944 -0.000278473 10.767 -0.000278473 11.7137V35.9996C-0.000278473 36.9464 0.767235 37.7139 1.71401 37.7139Z" fill="white"/>
<path d="M8.54733 23.4672C8.12012 23.8125 8.1234 24.4649 8.55405 24.8058L23.4677 36.6137C24.0296 37.0585 24.8569 36.6583 24.8569 35.9416L24.8569 12.0799C24.8569 11.3592 24.0214 10.9602 23.4609 11.4133L8.54733 23.4672Z" fill="white"/>
<path d="M30.8398 24.887C30.4091 24.5461 30.4058 23.8937 30.833 23.5484L45.7466 11.4945C46.3072 11.0414 47.1426 11.4404 47.1426 12.1611V36.0228C47.1426 36.7395 46.3153 37.1397 45.7534 36.6948L30.8398 24.887Z" fill="white"/>
</svg>
