<svg width="48" height="48" viewBox="0 0 48 48" fill="none" xmlns="http://www.w3.org/2000/svg">
<path fill-rule="evenodd" clip-rule="evenodd" d="M8.00009 7C7.44782 7 7.00015 7.44786 7.00014 8.00014C6.99995 18.9912 6.99996 29.3857 7.00014 40.1224C7.00015 40.6747 7.44757 41.1224 7.99985 41.1224H40.1227C40.675 41.1224 41.1226 40.6748 41.1226 40.1225V7.9999C41.1226 7.44762 40.675 7.00001 40.1227 7.00001L8.00009 7ZM16.6024 23.137C18.3188 23.137 19.7102 21.7456 19.7102 20.0291C19.7102 18.3127 18.3188 16.9212 16.6024 16.9212C14.8859 16.9212 13.4945 18.3127 13.4945 20.0291C13.4945 21.7456 14.8859 23.137 16.6024 23.137ZM31.2519 28.0459C31.4382 27.4519 31.5318 26.5016 30.8764 26.1512V26.1502C30.283 25.8334 29.5059 26.0415 28.8106 26.2277C28.5669 26.2929 28.3331 26.3555 28.121 26.3918C25.127 26.9053 22.0424 26.7573 19.0705 26.1794C19.0119 26.168 18.9513 26.1555 18.8892 26.1427C18.3044 26.0222 17.5881 25.8745 17.1376 26.3586C16.6554 26.8771 16.8919 27.7449 17.1124 28.3258C17.3943 29.0717 17.8503 29.7483 18.401 30.3231C20.1779 32.1775 22.9343 32.9366 25.4391 32.5409C27.9025 32.1513 30.4737 30.5285 31.2519 28.0459ZM33.9734 20.0291C33.9734 21.7456 32.582 23.137 30.8655 23.137C29.1491 23.137 27.7577 21.7456 27.7577 20.0291C27.7577 18.3127 29.1491 16.9212 30.8655 16.9212C32.582 16.9212 33.9734 18.3127 33.9734 20.0291Z" fill="white"/>
</svg>
