<svg width="48" height="48" viewBox="0 0 48 48" fill="none" xmlns="http://www.w3.org/2000/svg">
<path fill-rule="evenodd" clip-rule="evenodd" d="M10.4286 37.6939H37.6939V10.4286H10.4286V37.6939ZM7.99996 7C7.44768 7 7 7.44768 7 7.99996V40.1224C7 40.6747 7.44737 41.1224 7.99965 41.1224H40.1238C40.6761 41.1224 41.1224 40.6746 41.1224 40.1223V7.99999C41.1224 7.4477 40.6747 7 40.1224 7H7.99996Z" fill="white"/>
<path d="M30.2579 26.4393C30.8537 26.7578 30.7686 27.6218 30.5993 28.1617C29.8918 30.4186 27.5544 31.894 25.3149 32.2481C23.0378 32.6078 20.532 31.9178 18.9166 30.2319C18.416 29.7094 18.0014 29.0943 17.7452 28.4162C17.5447 27.8881 17.3297 27.0992 17.7681 26.6279C18.2211 26.141 18.9697 26.357 19.5253 26.4649C22.2269 26.9903 25.0311 27.1248 27.753 26.6581C28.4961 26.5308 29.5294 26.0504 30.2579 26.4393Z" fill="white"/>
<path d="M19.426 20.0295C19.426 21.5899 18.161 22.8548 16.6006 22.8548C15.0402 22.8548 13.7753 21.5899 13.7753 20.0295C13.7753 18.4691 15.0402 17.2041 16.6006 17.2041C18.161 17.2041 19.426 18.4691 19.426 20.0295Z" fill="white"/>
<path d="M33.6894 20.0295C33.6894 21.5899 32.4244 22.8548 30.864 22.8548C29.3036 22.8548 28.0387 21.5899 28.0387 20.0295C28.0387 18.4691 29.3036 17.2041 30.864 17.2041C32.4244 17.2041 33.6894 18.4691 33.6894 20.0295Z" fill="white"/>
</svg>
