<svg width="48" height="48" viewBox="0 0 48 48" fill="none" xmlns="http://www.w3.org/2000/svg">
<path fill-rule="evenodd" clip-rule="evenodd" d="M9.6001 19.8551C10.9808 19.8551 12.1001 20.9744 12.1001 22.3551V36.3551C12.1001 37.1835 12.7717 37.8551 13.6001 37.8551H34.4001C35.2286 37.8551 35.9001 37.1835 35.9001 36.3551V22.3551C35.9001 20.9744 37.0194 19.8551 38.4001 19.8551C39.7808 19.8551 40.9001 20.9744 40.9001 22.3551V36.3551C40.9001 39.945 37.99 42.8551 34.4001 42.8551H13.6001C10.0102 42.8551 7.1001 39.945 7.1001 36.3551V22.3551C7.1001 20.9744 8.21939 19.8551 9.6001 19.8551Z" fill="white"/>
<path fill-rule="evenodd" clip-rule="evenodd" d="M21.5967 29.6063C21.5967 31.0126 22.6948 32.1527 24.0494 32.1527C25.404 32.1527 26.5021 31.0126 26.5021 29.6063L26.5021 14.8954L29.5984 18.1102C30.5562 19.1046 32.1092 19.1046 33.067 18.1102C34.0248 17.1157 34.0248 15.5034 33.067 14.5089L24.0494 5.14648L15.0318 14.5089C14.074 15.5034 14.074 17.1157 15.0318 18.1102C15.9896 19.1046 17.5425 19.1046 18.5004 18.1102L21.5967 14.8954L21.5967 29.6063Z" fill="white"/>
</svg>
