<svg width="48" height="48" viewBox="0 0 48 48" fill="none" xmlns="http://www.w3.org/2000/svg">
<path fill-rule="evenodd" clip-rule="evenodd" d="M9.6001 20.2442C10.7047 20.2442 11.6001 21.1396 11.6001 22.2442V36.2442C11.6001 37.3488 12.4955 38.2442 13.6001 38.2442H34.4001C35.5047 38.2442 36.4001 37.3488 36.4001 36.2442V22.2442C36.4001 21.1396 37.2956 20.2442 38.4001 20.2442C39.5047 20.2442 40.4001 21.1396 40.4001 22.2442V36.2442C40.4001 39.5579 37.7138 42.2442 34.4001 42.2442H13.6001C10.2864 42.2442 7.6001 39.5579 7.6001 36.2442V22.2442C7.6001 21.1396 8.49553 20.2442 9.6001 20.2442Z" fill="white"/>
<path fill-rule="evenodd" clip-rule="evenodd" d="M22.0873 29.4954C22.0873 30.6205 22.9657 31.5325 24.0494 31.5325C25.1331 31.5325 26.0115 30.6205 26.0115 29.4954L26.0115 13.555L29.9453 17.6392C30.7115 18.4347 31.9539 18.4347 32.7202 17.6392C33.4864 16.8436 33.4864 15.5537 32.7202 14.7582L24.0494 5.75586L15.3786 14.7582C14.6124 15.5537 14.6124 16.8436 15.3786 17.6392C16.1449 18.4347 17.3873 18.4347 18.1535 17.6392L22.0873 13.555L22.0873 29.4954Z" fill="white"/>
</svg>
