<svg width="48" height="48" viewBox="0 0 48 48" fill="none" xmlns="http://www.w3.org/2000/svg">
<path d="M24.044 3H23.956C19.0097 3 15 6.66121 15 11.1775V23.3225C15 27.8388 19.0097 31.5 23.956 31.5H24.044C28.9903 31.5 33 27.8388 33 23.3225V11.1775C33 6.66121 28.9903 3 24.044 3Z" fill="white"/>
<path d="M10.5 22.5C11.3284 22.5 12 23.1716 12 24V24.7734C12 29.9409 17.0974 34.5 24 34.5C30.9026 34.5 36 29.9409 36 24.7734V24C36 23.1716 36.6716 22.5 37.5 22.5C38.3284 22.5 39 23.1716 39 24V24.7734C39 31.6263 32.8824 36.7949 25.5363 37.4334V43.5H31.5C32.3284 43.5 33 44.1716 33 45C33 45.8284 32.3284 46.5 31.5 46.5H16.5C15.6716 46.5 15 45.8284 15 45C15 44.1716 15.6716 43.5 16.5 43.5H22.5363V37.4396C15.1581 36.8289 9 31.6489 9 24.7734V24C9 23.1716 9.67157 22.5 10.5 22.5Z" fill="white"/>
</svg>
