<svg width="48" height="48" viewBox="0 0 48 48" fill="none" xmlns="http://www.w3.org/2000/svg">
<path d="M25.0859 3.81525C24.4544 3.29857 23.5463 3.29856 22.9148 3.81524L4.05753 19.2441C3.49674 19.7029 3.28499 20.4648 3.52858 21.1472C3.77218 21.8296 4.41851 22.2852 5.14309 22.2852H12.0002V32.5706C12.0002 33.5174 12.7677 34.2849 13.7145 34.2849H34.2859C35.2327 34.2849 36.0002 33.5174 36.0002 32.5706V22.2852H42.8574C43.582 22.2852 44.2283 21.8296 44.4719 21.1472C44.7155 20.4648 44.5037 19.7029 43.9429 19.2441L25.0859 3.81525Z" fill="white"/>
<path fill-rule="evenodd" clip-rule="evenodd" d="M12.0002 42.8563C12.0002 41.9095 12.7678 41.142 13.7145 41.142H34.286C35.2327 41.142 36.0002 41.9095 36.0002 42.8563C36.0002 43.8031 35.2327 44.5706 34.286 44.5706H13.7145C12.7678 44.5706 12.0002 43.8031 12.0002 42.8563Z" fill="white"/>
</svg>
