<svg width="48" height="48" viewBox="0 0 48 48" fill="none" xmlns="http://www.w3.org/2000/svg">
<path fill-rule="evenodd" clip-rule="evenodd" d="M22.9143 3.81524C23.5458 3.29856 24.4539 3.29857 25.0854 3.81525L43.9425 19.2441C44.5032 19.7029 44.715 20.4648 44.4714 21.1472C44.2278 21.8296 43.5815 22.2852 42.8569 22.2852H35.9997V32.5706C35.9997 33.5174 35.2322 34.2849 34.2855 34.2849H13.714C12.7673 34.2849 11.9997 33.5174 11.9997 32.5706V22.2852H5.1426C4.41802 22.2852 3.77169 21.8296 3.5281 21.1472C3.2845 20.4648 3.49625 19.7029 4.05704 19.2441L22.9143 3.81524ZM9.94497 18.8566H15.4283V30.8563H32.5712V18.8566H38.0546L23.9998 7.357L9.94497 18.8566Z" fill="white"/>
<path fill-rule="evenodd" clip-rule="evenodd" d="M11.9998 42.8564C11.9998 41.9097 12.7673 41.1422 13.714 41.1422H34.2855C35.2323 41.1422 35.9998 41.9097 35.9998 42.8564C35.9998 43.8032 35.2323 44.5707 34.2855 44.5707H13.714C12.7673 44.5707 11.9998 43.8032 11.9998 42.8564Z" fill="white"/>
</svg>
