<svg width="48" height="48" viewBox="0 0 48 48" fill="none" xmlns="http://www.w3.org/2000/svg">
<path fill-rule="evenodd" clip-rule="evenodd" d="M23.9999 6.43679C14.2998 6.43679 6.4363 14.3003 6.4363 24.0004C6.4363 33.7006 14.2998 41.5641 23.9999 41.5641C33.7001 41.5641 41.5636 33.7006 41.5636 24.0004C41.5636 14.3003 33.7001 6.43679 23.9999 6.43679ZM3.16357 24.0004C3.16357 12.4928 12.4923 3.16406 23.9999 3.16406C35.5075 3.16406 44.8363 12.4928 44.8363 24.0004C44.8363 35.508 35.5075 44.8368 23.9999 44.8368C12.4923 44.8368 3.16357 35.508 3.16357 24.0004Z" fill="white"/>
<path d="M25.6365 14.4003C25.6365 13.4966 24.9039 12.764 24.0002 12.764C23.0964 12.764 22.3638 13.4966 22.3638 14.4003V26.4003C22.3638 27.3041 23.0964 28.0367 24.0002 28.0367C24.9039 28.0367 25.6365 27.3041 25.6365 26.4003V14.4003Z" fill="white"/>
<path d="M26.2502 33.4507C26.2502 34.6934 25.2428 35.7007 24.0002 35.7007C22.7575 35.7007 21.7502 34.6934 21.7502 33.4507C21.7502 32.2081 22.7575 31.2007 24.0002 31.2007C25.2428 31.2007 26.2502 32.2081 26.2502 33.4507Z" fill="white"/>
</svg>
