<svg width="48" height="48" viewBox="0 0 48 48" fill="none" xmlns="http://www.w3.org/2000/svg">
<path fill-rule="evenodd" clip-rule="evenodd" d="M41.1426 11.9997C41.1426 11.0529 40.3751 10.2854 39.4284 10.2854H32.5712V6.85686C32.5712 5.91009 31.8037 5.14258 30.8569 5.14258H17.1426C16.1959 5.14258 15.4284 5.91009 15.4284 6.85686V10.2854H8.57122C7.62445 10.2854 6.85693 11.0529 6.85693 11.9997C6.85693 12.9465 7.62445 13.714 8.57122 13.714H10.2855V42.8569C10.2855 43.8036 11.053 44.5711 11.9998 44.5711H35.9998C36.9466 44.5711 37.7141 43.8036 37.7141 42.8569V13.714H39.4284C40.3751 13.714 41.1426 12.9465 41.1426 11.9997ZM18.8569 35.9997L18.8569 20.5711H21.4284V35.9997H18.8569ZM17.9998 7.71401V10.2854H29.9998V7.71401H17.9998ZM26.5712 35.9997H29.1426V20.5711H26.5712V35.9997Z" fill="white"/>
</svg>
