<svg width="48" height="48" viewBox="0 0 48 48" fill="none" xmlns="http://www.w3.org/2000/svg">
<path d="M18.8569 20.5711L18.8569 34.2854H21.4284V20.5711H18.8569Z" fill="white"/>
<path d="M26.5712 34.2854V20.5711H29.1426V34.2854H26.5712Z" fill="white"/>
<path fill-rule="evenodd" clip-rule="evenodd" d="M17.1426 5.14258C16.1959 5.14258 15.4284 5.91009 15.4284 6.85686V10.2854H8.57122C7.62445 10.2854 6.85693 11.0529 6.85693 11.9997C6.85693 12.9465 7.62445 13.714 8.57122 13.714H10.2855V42.8569C10.2855 43.8036 11.053 44.5711 11.9998 44.5711H35.9998C36.9466 44.5711 37.7141 43.8036 37.7141 42.8569V13.714H39.4284C40.3751 13.714 41.1426 12.9465 41.1426 11.9997C41.1426 11.0529 40.3751 10.2854 39.4284 10.2854H32.5712V6.85686C32.5712 5.91009 31.8037 5.14258 30.8569 5.14258H17.1426ZM29.9998 10.2854V7.71401H17.9998V10.2854H29.9998ZM34.2855 13.714H13.7141V41.1426H34.2855V13.714Z" fill="white"/>
</svg>
