<svg width="48" height="48" viewBox="0 0 48 48" fill="none" xmlns="http://www.w3.org/2000/svg">
<path d="M5 7.76172C5 6.65715 5.89543 5.76172 7 5.76172H20C21.1046 5.76172 22 6.65715 22 7.76172V20.7617C22 21.8663 21.1046 22.7617 20 22.7617H7C5.89543 22.7617 5 21.8663 5 20.7617V7.76172Z" fill="white"/>
<path d="M25.4302 7.76172C25.4302 6.65715 26.3256 5.76172 27.4302 5.76172H40.4302C41.5347 5.76172 42.4302 6.65715 42.4302 7.76172V20.7617C42.4302 21.8663 41.5347 22.7617 40.4302 22.7617H27.4302C26.3256 22.7617 25.4302 21.8663 25.4302 20.7617V7.76172Z" fill="white"/>
<path d="M5 28.1917C5 27.0871 5.89543 26.1917 7 26.1917H20C21.1046 26.1917 22 27.0871 22 28.1917V41.1917C22 42.2962 21.1046 43.1917 20 43.1917H7C5.89543 43.1917 5 42.2962 5 41.1917V28.1917Z" fill="white"/>
<path d="M25.4302 28.1917C25.4302 27.0871 26.3256 26.1917 27.4302 26.1917H40.4302C41.5347 26.1917 42.4302 27.0871 42.4302 28.1917V41.1917C42.4302 42.2962 41.5347 43.1917 40.4302 43.1917H27.4302C26.3256 43.1917 25.4302 42.2962 25.4302 41.1917V28.1917Z" fill="white"/>
</svg>
