<svg width="48" height="48" viewBox="0 0 48 48" fill="none" xmlns="http://www.w3.org/2000/svg">
<path fill-rule="evenodd" clip-rule="evenodd" d="M8.43 9.19172V19.3317H18.57V9.19172H8.43ZM7 5.76172C5.89543 5.76172 5 6.65715 5 7.76172V20.7617C5 21.8663 5.89543 22.7617 7 22.7617H20C21.1046 22.7617 22 21.8663 22 20.7617V7.76172C22 6.65715 21.1046 5.76172 20 5.76172H7Z" fill="white"/>
<path fill-rule="evenodd" clip-rule="evenodd" d="M28.8602 9.19172V19.3317H39.0002V9.19172H28.8602ZM27.4302 5.76172C26.3256 5.76172 25.4302 6.65715 25.4302 7.76172V20.7617C25.4302 21.8663 26.3256 22.7617 27.4302 22.7617H40.4302C41.5347 22.7617 42.4302 21.8663 42.4302 20.7617V7.76172C42.4302 6.65715 41.5347 5.76172 40.4302 5.76172H27.4302Z" fill="white"/>
<path fill-rule="evenodd" clip-rule="evenodd" d="M8.43 29.6217V39.7617H18.57V29.6217H8.43ZM7 26.1917C5.89543 26.1917 5 27.0871 5 28.1917V41.1917C5 42.2962 5.89543 43.1917 7 43.1917H20C21.1046 43.1917 22 42.2962 22 41.1917V28.1917C22 27.0871 21.1046 26.1917 20 26.1917H7Z" fill="white"/>
<path fill-rule="evenodd" clip-rule="evenodd" d="M28.8602 29.6217V39.7617H39.0002V29.6217H28.8602ZM27.4302 26.1917C26.3256 26.1917 25.4302 27.0871 25.4302 28.1917V41.1917C25.4302 42.2962 26.3256 43.1917 27.4302 43.1917H40.4302C41.5347 43.1917 42.4302 42.2962 42.4302 41.1917V28.1917C42.4302 27.0871 41.5347 26.1917 40.4302 26.1917H27.4302Z" fill="white"/>
</svg>
