<svg width="48" height="48" viewBox="0 0 48 48" fill="none" xmlns="http://www.w3.org/2000/svg">
<path d="M44.4008 25.4465C45.1801 24.5559 45.0898 23.2021 44.1992 22.4228C43.3085 21.6435 41.9548 21.7337 41.1754 22.6244C35.5048 29.1051 29.661 32.1798 24.4042 32.2863C19.044 32.1932 13.0798 29.8168 6.67541 22.6118C5.88916 21.7273 4.53472 21.6476 3.65018 22.4339C2.76565 23.2201 2.68597 24.5746 3.47223 25.4591C4.24925 26.3333 5.02628 27.1484 5.80297 27.9071L2.09851 31.3185C1.40206 31.9599 1.40206 32.9998 2.09851 33.6411C2.79496 34.2825 3.92412 34.2825 4.62057 33.6411L8.35536 30.2017C10.1208 31.6539 11.8825 32.8279 13.6363 33.7534L10.9774 37.9945C10.4745 38.7966 10.7445 39.8072 11.5805 40.2517C12.4164 40.6962 13.5018 40.4062 14.0047 39.604L16.7908 35.16C18.9026 35.9325 20.9994 36.3667 23.0738 36.5156L23.0738 41.1782C23.0738 42.125 23.8413 42.8925 24.7881 42.8925C25.7349 42.8925 26.5024 42.125 26.5024 41.1782L26.5024 36.4224C28.5154 36.1654 30.5215 35.5863 32.5016 34.7067L35.5719 39.6039C36.0748 40.4061 37.1602 40.6961 37.9961 40.2516C38.8321 39.8071 39.1021 38.7965 38.5992 37.9944L35.5377 33.1112C37.1971 32.1029 38.8305 30.8845 40.426 29.4693L44.9558 33.6409C45.6523 34.2822 46.7815 34.2822 47.4779 33.6409C48.1744 32.9995 48.1744 31.9596 47.4779 31.3183L42.8913 27.0945C43.3993 26.5653 43.9026 26.0159 44.4008 25.4465Z" fill="white"/>
</svg>
