<svg width="48" height="48" viewBox="0 0 48 48" fill="none" xmlns="http://www.w3.org/2000/svg">
<path d="M44.0562 25.3432C44.6797 24.6307 44.6075 23.5476 43.895 22.9242C43.1825 22.3007 42.0994 22.3729 41.476 23.0854C35.7577 29.6206 29.806 32.7871 24.3829 32.8938C18.8784 32.8006 12.8041 30.3552 6.3331 23.0754C5.70409 22.3678 4.62054 22.304 3.91291 22.933C3.20529 23.562 3.14155 24.6456 3.77055 25.3532C4.64933 26.3418 5.52742 27.2537 6.40432 28.0925L2.39175 31.7877C1.86942 32.2687 1.86942 33.0486 2.39175 33.5296C2.91409 34.0107 3.76096 34.0107 4.2833 33.5296L8.31992 29.8123C10.2977 31.4729 12.2675 32.7754 14.2237 33.7647L11.3338 38.3742C10.9566 38.9758 11.1591 39.7337 11.7861 40.0671C12.4131 40.4004 13.2271 40.1829 13.6043 39.5813L16.5924 34.8152C18.9144 35.7027 21.2136 36.1694 23.4804 36.292L23.4804 41.3571C23.4804 42.0672 24.056 42.6428 24.7661 42.6428C25.4762 42.6428 26.0518 42.0672 26.0518 41.3571L26.0518 36.22C28.2586 35.983 30.4645 35.3481 32.6428 34.3408L35.9283 39.5815C36.3055 40.1831 37.1195 40.4006 37.7465 40.0672C38.3735 39.7339 38.576 38.9759 38.1988 38.3743L34.921 33.1461C36.7831 32.0532 38.6175 30.6891 40.4068 29.0704L45.2491 33.5297C45.7714 34.0107 46.6183 34.0107 47.1407 33.5297C47.663 33.0486 47.663 32.2687 47.1407 31.7877L42.2564 27.2899C42.8627 26.6704 43.4629 26.0213 44.0562 25.3432Z" fill="white"/>
</svg>
