<svg width="48" height="48" viewBox="0 0 48 48" fill="none" xmlns="http://www.w3.org/2000/svg">
<path fill-rule="evenodd" clip-rule="evenodd" d="M16.4573 28.8009H31.543V41.1437H41.143V23.4707L24.0001 8.04211L6.85728 23.4707V41.1437H16.4573V28.8009ZM3.42871 42.858V22.7072C3.42871 22.2212 3.63498 21.7581 3.9962 21.433L22.8533 4.46155C23.5053 3.87479 24.495 3.8748 25.1469 4.46155L44.0041 21.433C44.3653 21.7581 44.5716 22.2212 44.5716 22.7072V42.858C44.5716 43.8048 43.8041 44.5723 42.8573 44.5723H28.9716C28.4982 44.5723 28.1144 44.1885 28.1144 43.7151V32.2294H19.8859V43.7152C19.8859 44.1885 19.5021 44.5723 19.0287 44.5723H5.143C4.19622 44.5723 3.42871 43.8048 3.42871 42.858Z" fill="white"/>
</svg>
