<svg width="48" height="48" viewBox="0 0 48 48" fill="none" xmlns="http://www.w3.org/2000/svg">
<path fill-rule="evenodd" clip-rule="evenodd" d="M27.4492 35.1427L32.2287 39.7894L37.0082 35.1427L41.143 35.1427V11.9999H6.85728V35.1427H27.4492ZM32.2287 44.5713L26.0573 38.5712H5.143C4.19622 38.5712 3.42871 37.8037 3.42871 36.857V10.2856C3.42871 9.3388 4.19622 8.57129 5.143 8.57129H42.8573C43.8041 8.57129 44.5716 9.3388 44.5716 10.2856V36.857C44.5716 37.8037 43.8041 38.5713 42.8573 38.5713L38.4001 38.5713L32.2287 44.5713Z" fill="white"/>
<path fill-rule="evenodd" clip-rule="evenodd" d="M24.0002 21.4286H12.0002V18.8571H24.0002V21.4286Z" fill="white"/>
<path fill-rule="evenodd" clip-rule="evenodd" d="M36.0002 29.1429H12.0002V26.5714H36.0002V29.1429Z" fill="white"/>
</svg>
