<svg width="48" height="48" viewBox="0 0 48 48" fill="none" xmlns="http://www.w3.org/2000/svg">
<path fill-rule="evenodd" clip-rule="evenodd" d="M40.8245 23.4756C41.2517 23.8209 41.2484 24.4733 40.8178 24.8142L23.6749 38.3871C23.113 38.832 22.2857 38.4318 22.2857 37.7151V10.2865C22.2857 9.56577 23.1211 9.16683 23.6817 9.61987L40.8245 23.4756Z" fill="white"/>
<path d="M43.7143 35.5723C43.7143 36.7557 44.6737 37.7151 45.8571 37.7151C47.0406 37.7151 48 36.7557 48 35.5723V12.1436C48 10.9601 47.0406 10.0007 45.8571 10.0007C44.6737 10.0007 43.7143 10.9601 43.7143 12.1436V35.5723Z" fill="white"/>
<path fill-rule="evenodd" clip-rule="evenodd" d="M18.5321 24.8946C18.9627 24.5536 18.966 23.9013 18.5388 23.556L1.39594 9.70023C0.83542 9.24718 0 9.64613 0 10.3669V37.7954C0 38.5121 0.827299 38.9123 1.38921 38.4674L18.5321 24.8946Z" fill="white"/>
</svg>
