<svg width="48" height="48" viewBox="0 0 48 48" fill="none" xmlns="http://www.w3.org/2000/svg">
<path d="M46.2855 37.7144C45.3387 37.7144 44.5712 36.9469 44.5712 36.0001V11.7143C44.5712 10.7675 45.3387 10 46.2855 10C47.2323 10 47.9998 10.7675 47.9998 11.7143V36.0001C47.9998 36.9469 47.2323 37.7144 46.2855 37.7144Z" fill="white"/>
<path d="M39.4522 23.4678C39.8794 23.813 39.8761 24.4654 39.4455 24.8064L24.5319 36.6142C23.9699 37.0591 23.1426 36.6589 23.1426 35.9422V12.0804C23.1426 11.3597 23.9781 10.9608 24.5386 11.4138L39.4522 23.4678Z" fill="white"/>
<path d="M17.1597 24.8876C17.5904 24.5466 17.5937 23.8942 17.1665 23.5489L2.25288 11.495C1.69235 11.042 0.856934 11.4409 0.856934 12.1616V36.0234C0.856934 36.7401 1.68423 37.1403 2.24614 36.6954L17.1597 24.8876Z" fill="white"/>
</svg>
