<svg width="48" height="48" viewBox="0 0 48 48" fill="none" xmlns="http://www.w3.org/2000/svg">
<path fill-rule="evenodd" clip-rule="evenodd" d="M33.6055 6.15515C33.997 5.96073 34.3937 5.76375 34.7972 5.57376C35.4985 5.24348 36.3234 5.47686 36.7885 6.09707L40.2506 10.7142C40.7622 11.3964 40.6888 12.3456 40.0991 12.9616C38.7958 14.323 37.7135 15.6844 37.7135 17.0459C37.7135 18.8067 38.6178 19.6632 39.4976 20.0798C40.3493 20.4832 41.1524 21.2358 41.1211 22.1776C40.8432 30.5398 37.7991 36.1165 24.7848 42.409C24.325 42.6314 23.7745 42.6321 23.314 42.4111C10.2039 36.1177 7.15717 30.5407 6.87931 22.1776C6.84801 21.2358 7.64767 20.4825 8.50913 20.1004C9.43076 19.6917 10.3952 18.8363 10.3952 17.0459C10.3952 15.6808 9.30708 14.3157 7.99906 12.9506C7.41369 12.3397 7.33624 11.3995 7.83691 10.7175L11.2145 6.11625C11.677 5.48611 12.5088 5.2464 13.216 5.57953C13.6102 5.76522 13.9981 5.95748 14.3814 6.14742C17.1725 7.53055 19.7148 8.79045 22.5983 6.49238C23.4351 5.82556 24.6723 5.83384 25.5043 6.50656C28.3171 8.781 30.8318 7.53238 33.6055 6.15515ZM26.2674 20.7825L24.0002 15.3316L21.7331 20.7825L15.8483 21.2543L20.3319 25.0949L18.9621 30.8374L24.0002 27.7601L29.0384 30.8374L27.6686 25.0949L32.1521 21.2543L26.2674 20.7825Z" fill="white"/>
</svg>
