<svg width="48" height="48" viewBox="0 0 48 48" fill="none" xmlns="http://www.w3.org/2000/svg">
<path fill-rule="evenodd" clip-rule="evenodd" d="M24.0296 9.68563C21.7057 11.2498 19.3289 11.4572 17.1045 10.9284C15.7211 10.5996 14.2694 9.92154 13.0986 9.34358L11.426 11.6221C11.8316 12.096 12.2308 12.61 12.5779 13.1539C13.194 14.1194 13.8238 15.4517 13.8238 17.0459C13.8238 18.5954 13.3926 19.9804 12.5683 21.1111C11.9065 22.0188 11.0967 22.6194 10.3521 23.0145C10.5641 26.2837 11.3142 28.7436 13.0211 31.005C14.8965 33.4896 18.1676 36.055 24.0446 38.9537C29.8733 36.0577 33.1222 33.4946 34.9875 31.0107C36.6923 28.7405 37.441 26.2695 37.6503 22.9842C36.9032 22.5727 36.0999 21.9494 35.455 21.0161C34.681 19.8961 34.2849 18.5449 34.2849 17.0459C34.2849 15.4558 34.9114 14.1264 35.5256 13.1621C35.8685 12.6237 36.2624 12.1147 36.6631 11.645L34.928 9.33094C33.7584 9.90908 32.3058 10.5909 30.9311 10.9225C28.7174 11.4564 26.3409 11.2602 24.0296 9.68563ZM33.6077 6.15364C33.9986 5.95969 34.3945 5.76322 34.7971 5.57369C35.4985 5.24352 36.3234 5.47689 36.7885 6.09709L40.2506 10.7142C40.7622 11.3965 40.6888 12.3456 40.0991 12.9616C38.7958 14.323 37.7135 15.6844 37.7135 17.0459C37.7135 18.8067 38.6178 19.6632 39.4976 20.0798C40.3493 20.4832 41.1524 21.2358 41.1211 22.1777C40.8432 30.5398 37.7991 36.1166 24.7848 42.4091C24.325 42.6314 23.7745 42.6321 23.314 42.4111C10.2039 36.1178 7.15717 30.5407 6.87931 22.1777C6.84801 21.2358 7.64767 20.4825 8.50913 20.1005C9.43076 19.6917 10.3952 18.8363 10.3952 17.0459C10.3952 15.6808 9.30708 14.3157 7.99906 12.9506C7.41369 12.3397 7.33624 11.3995 7.83691 10.7175L11.2145 6.11627C11.677 5.48613 12.5088 5.24641 13.2159 5.57964C13.611 5.7658 13.9997 5.95856 14.3836 6.14897C17.1715 7.53147 19.7086 8.78958 22.5897 6.49255C23.4263 5.82558 24.6636 5.83387 25.4957 6.50643C28.3109 8.78192 30.8308 7.53151 33.6077 6.15364Z" fill="white"/>
<path d="M23.9992 15.3316L26.2663 20.7825L32.1511 21.2543L27.6675 25.0949L29.0373 30.8374L23.9992 27.7602L18.961 30.8374L20.3308 25.0949L15.8473 21.2543L21.732 20.7825L23.9992 15.3316Z" fill="white"/>
</svg>
