<svg width="48" height="48" viewBox="0 0 48 48" fill="none" xmlns="http://www.w3.org/2000/svg">
<path fill-rule="evenodd" clip-rule="evenodd" d="M4 9.8577C4 8.67423 4.95939 7.71484 6.14286 7.71484H41.8571C43.0406 7.71484 44 8.67423 44 9.8577C44 11.0412 43.0406 12.0006 41.8571 12.0006H6.14286C4.95939 12.0006 4 11.0412 4 9.8577ZM4 23.572C4 22.3885 4.95939 21.4291 6.14286 21.4291H41.8571C43.0406 21.4291 44 22.3885 44 23.572C44 24.7555 43.0406 25.7148 41.8571 25.7148H6.14286C4.95939 25.7148 4 24.7555 4 23.572ZM4 37.2863C4 36.1028 4.95939 35.1434 6.14286 35.1434H41.8571C43.0406 35.1434 44 36.1028 44 37.2863C44 38.4697 43.0406 39.4291 41.8571 39.4291H6.14286C4.95939 39.4291 4 38.4697 4 37.2863Z" fill="white"/>
</svg>
