<svg width="48" height="48" viewBox="0 0 48 48" fill="none" xmlns="http://www.w3.org/2000/svg">
<path fill-rule="evenodd" clip-rule="evenodd" d="M4 10.2866C4 9.33978 4.76751 8.57227 5.71429 8.57227H42.2857C43.2325 8.57227 44 9.33978 44 10.2866C44 11.2333 43.2325 12.0008 42.2857 12.0008H5.71429C4.76751 12.0008 4 11.2333 4 10.2866ZM4 24.0008C4 23.0541 4.76751 22.2866 5.71429 22.2866H42.2857C43.2325 22.2866 44 23.0541 44 24.0008C44 24.9476 43.2325 25.7151 42.2857 25.7151H5.71429C4.76751 25.7151 4 24.9476 4 24.0008ZM4 37.7151C4 36.7683 4.76751 36.0008 5.71429 36.0008H42.2857C43.2325 36.0008 44 36.7683 44 37.7151C44 38.6619 43.2325 39.4294 42.2857 39.4294H5.71429C4.76751 39.4294 4 38.6619 4 37.7151Z" fill="white"/>
</svg>
