<svg width="48" height="48" viewBox="0 0 48 48" fill="none" xmlns="http://www.w3.org/2000/svg">
<path fill-rule="evenodd" clip-rule="evenodd" d="M5.55995 23.4709L17.0236 8.89943C17.1861 8.69286 17.4344 8.57227 17.6972 8.57227H42.0001C42.4735 8.57227 42.8573 8.95602 42.8573 9.42941V38.5723C42.8573 39.0457 42.4735 39.4294 42.0001 39.4294H17.6972C17.4344 39.4294 17.1861 39.3088 17.0236 39.1022L5.55995 24.5308C5.3153 24.2198 5.3153 23.7818 5.55995 23.4709ZM33.959 28.1413L32.1407 29.9595L27.5005 25.3193L22.8573 29.9625L21.039 28.1443L25.6822 23.5011L21.0409 18.8597L22.8592 17.0415L27.5005 21.6828L32.1433 17.0399L33.9616 18.8582L29.3187 23.5011L33.959 28.1413Z" fill="white"/>
</svg>
