<svg width="48" height="48" viewBox="0 0 48 48" fill="none" xmlns="http://www.w3.org/2000/svg">
<path fill-rule="evenodd" clip-rule="evenodd" d="M18.946 12.0008L9.50542 24.0008L18.946 36.0008H39.4287V12.0008H18.946ZM5.55995 23.4709L17.0236 8.89943C17.1861 8.69286 17.4344 8.57227 17.6972 8.57227H42.0002C42.4735 8.57227 42.8573 8.95602 42.8573 9.42941V38.5723C42.8573 39.0457 42.4735 39.4294 42.0002 39.4294H17.6972C17.4344 39.4294 17.1861 39.3088 17.0236 39.1022L5.55995 24.5308C5.3153 24.2198 5.3153 23.7818 5.55995 23.4709Z" fill="white"/>
<path d="M32.8204 19.9991L31.0021 18.1808L27.5004 21.6825L24.0001 18.1823L22.1819 20.0006L25.6821 23.5008L22.1804 27.0025L23.9987 28.8208L27.5004 25.3191L31.0001 28.8188L32.8184 27.0006L29.3187 23.5008L32.8204 19.9991Z" fill="white"/>
</svg>
