<svg width="48" height="48" viewBox="0 0 48 48" fill="none" xmlns="http://www.w3.org/2000/svg">
<path fill-rule="evenodd" clip-rule="evenodd" d="M19.9353 3.55965C21.2512 3.29932 22.6105 3.16309 23.9999 3.16309C25.3894 3.16309 26.7487 3.29932 28.0646 3.55965L29.6699 3.87722L29.0347 7.08772L27.4295 6.77016C26.3216 6.55098 25.175 6.43581 23.9999 6.43581C22.8248 6.43581 21.6783 6.55098 20.5704 6.77016L18.9651 7.08772L18.33 3.87722L19.9353 3.55965ZM15.6022 8.48282L14.2425 9.39316C12.3264 10.6759 10.6764 12.3259 9.39365 14.242L8.48331 15.6017L5.76377 13.7811L6.67412 12.4213C8.19487 10.1498 10.1502 8.19438 12.4218 6.67363L13.7815 5.76329L15.6022 8.48282ZM34.2183 5.76329L35.5781 6.67363C37.8496 8.19438 39.805 10.1498 41.3258 12.4213L42.2361 13.7811L39.5166 15.6017L38.6062 14.242C37.3235 12.3259 35.6735 10.6759 33.7574 9.39316L32.3977 8.48282L34.2183 5.76329ZM7.08821 18.9647L6.77064 20.5699C6.55147 21.6778 6.4363 22.8244 6.4363 23.9995C6.4363 25.1745 6.55147 26.3211 6.77064 27.429L7.08821 29.0342L3.87771 29.6694L3.56014 28.0641C3.29981 26.7482 3.16357 25.3889 3.16357 23.9995C3.16357 22.61 3.29981 21.2507 3.56014 19.9348L3.87771 18.3295L7.08821 18.9647ZM44.1222 18.3295L44.4397 19.9348C44.7001 21.2507 44.8363 22.61 44.8363 23.9995C44.8363 25.3889 44.7001 26.7482 44.4397 28.0641L44.1222 29.6694L40.9117 29.0342L41.2292 27.429C41.4484 26.3211 41.5636 25.1745 41.5636 23.9995C41.5636 22.8244 41.4484 21.6778 41.2292 20.5699L40.9117 18.9647L44.1222 18.3295ZM8.48331 32.3972L9.39365 33.7569C10.6764 35.673 12.3264 37.323 14.2425 38.6057L15.6022 39.5161L13.7815 42.2356L12.4218 41.3253C10.1502 39.8045 8.19487 37.8491 6.67412 35.5776L5.76377 34.2178L8.48331 32.3972ZM42.2361 34.2178L41.3258 35.5776C39.805 37.8491 37.8496 39.8045 35.5781 41.3253L34.2183 42.2356L32.3977 39.5161L33.7574 38.6057C35.6735 37.323 37.3235 35.673 38.6062 33.7569L39.5166 32.3972L42.2361 34.2178ZM18.9651 40.9112L20.5704 41.2287C21.6783 41.4479 22.8248 41.5631 23.9999 41.5631C25.175 41.5631 26.3216 41.4479 27.4295 41.2287L29.0347 40.9112L29.6699 44.1217L28.0646 44.4393C26.7487 44.6996 25.3894 44.8358 23.9999 44.8358C22.6105 44.8358 21.2512 44.6996 19.9353 44.4393L18.33 44.1217L18.9651 40.9112Z" fill="white" fill-opacity="0.5"/>
</svg>
