<svg width="48" height="48" viewBox="0 0 48 48" fill="none" xmlns="http://www.w3.org/2000/svg">
<path fill-rule="evenodd" clip-rule="evenodd" d="M24.313 11.5723C24.2086 11.5723 24.1043 11.573 24 11.5746C23.8957 11.573 23.7914 11.5723 23.687 11.5723V11.5815C16.8344 11.7837 10.1789 15.3038 3.87915 21.8314C2.70694 23.046 2.70695 24.9557 3.87915 26.1703C10.1789 32.6979 16.8352 36.218 23.687 36.4202V36.4294C23.7914 36.4294 23.8957 36.4286 24 36.4271C24.1043 36.4286 24.2086 36.4294 24.313 36.4294V36.4202C31.1648 36.218 37.8211 32.6979 44.1208 26.1703C45.293 24.9557 45.2931 23.046 44.1209 21.8314C37.8211 15.3038 31.1656 11.7837 24.313 11.5815V11.5723ZM15.5462 18.1401C12.9911 19.469 10.392 21.4021 7.76025 24.0008C10.3919 26.5994 12.9909 28.5324 15.546 29.8613C14.3912 28.1985 13.7143 26.1787 13.7143 24.0008C13.7143 21.8228 14.3912 19.8029 15.5462 18.1401ZM32.454 29.8613C35.0091 28.5324 37.6081 26.5994 40.2398 24.0008C37.608 21.4021 35.0089 19.469 32.4538 18.1401C33.6088 19.8029 34.2857 21.8228 34.2857 24.0008C34.2857 26.1787 33.6088 28.1985 32.454 29.8613ZM17.1429 24.0008C17.1429 20.2137 20.2129 17.1437 24 17.1437C27.7871 17.1437 30.8571 20.2137 30.8571 24.0008C30.8571 27.7879 27.7871 30.858 24 30.858C20.2129 30.858 17.1429 27.7879 17.1429 24.0008Z" fill="white"/>
</svg>
