<svg width="48" height="48" viewBox="0 0 48 48" fill="none" xmlns="http://www.w3.org/2000/svg">
<path fill-rule="evenodd" clip-rule="evenodd" d="M23.6872 12C23.7915 12 23.8958 12.0008 24.0001 12.0024C24.1045 12.0008 24.2088 12 24.3131 12V12.0095C31.0165 12.2118 37.5668 15.6564 43.8126 22.1282C44.8246 23.1767 44.8245 24.8233 43.8126 25.8718C37.5667 32.3436 31.0157 35.7881 24.3131 35.9905V36C24.2088 36 24.1045 35.9992 24.0001 35.9976C23.8958 35.9992 23.7915 36 23.6872 36V35.9905C16.9845 35.7881 10.4336 32.3436 4.18767 25.8718C3.17573 24.8233 3.17572 23.1767 4.18767 22.1282C10.4335 15.6564 16.9838 12.2118 23.6872 12.0095V12ZM17.1419 16.9198C13.8637 18.2831 10.5261 20.6072 7.1533 24C10.5259 27.3925 13.8636 29.7166 17.1417 31.0799C15.2924 29.2881 14.143 26.7783 14.143 24C14.143 21.2216 15.2925 18.7116 17.1419 16.9198ZM30.8583 16.9198C32.7077 18.7116 33.8573 21.2216 33.8573 24C33.8573 26.7783 32.7079 29.2881 30.8586 31.0799C34.1367 29.7166 37.4744 27.3925 40.847 24C37.4742 20.6072 34.1366 18.283 30.8583 16.9198ZM16.7144 24C16.7144 19.9762 19.9764 16.7143 24.0001 16.7143C28.0239 16.7143 31.2859 19.9762 31.2859 24C31.2859 28.0238 28.0239 31.2857 24.0001 31.2857C19.9764 31.2857 16.7144 28.0238 16.7144 24Z" fill="white"/>
</svg>
