<svg width="48" height="48" viewBox="0 0 48 48" fill="none" xmlns="http://www.w3.org/2000/svg">
<path d="M24.6374 26.4218C24.2969 26.0434 23.7037 26.0434 23.3632 26.4218L9.85918 41.4262C9.36275 41.9778 9.7542 42.8567 10.4963 42.8567H37.5042C38.2463 42.8567 38.6378 41.9778 38.1413 41.4262L24.6374 26.4218Z" fill="white"/>
<path d="M6.85728 8.57115V30.8569H15.5226L12.4368 34.2854H5.143C4.19622 34.2854 3.42871 33.5179 3.42871 32.5711V6.85686C3.42871 5.91009 4.19622 5.14258 5.143 5.14258H42.8573C43.8041 5.14258 44.5716 5.91009 44.5716 6.85686V32.5711C44.5716 33.5179 43.8041 34.2854 42.8573 34.2854H35.5634L32.4776 30.8569H41.143V8.57115H6.85728Z" fill="white"/>
</svg>
