<svg width="48" height="48" viewBox="0 0 48 48" fill="none" xmlns="http://www.w3.org/2000/svg">
<path fill-rule="evenodd" clip-rule="evenodd" d="M16.2339 36.8057C16.736 36.3036 17.55 36.3036 18.0521 36.8057L24.0001 42.7537L29.9481 36.8057C30.4502 36.3036 31.2643 36.3036 31.7664 36.8057C32.2685 37.3078 32.2685 38.1219 31.7664 38.624L24.0001 46.3903L16.2339 38.624C15.7318 38.1219 15.7318 37.3078 16.2339 36.8057Z" fill="white"/>
<path fill-rule="evenodd" clip-rule="evenodd" d="M3.42871 3.42913C3.42871 2.48236 4.19622 1.71484 5.143 1.71484H42.8573C43.8041 1.71484 44.5716 2.48236 44.5716 3.42913V29.1434C44.5716 30.0902 43.8041 30.8577 42.8573 30.8577H5.143C4.19622 30.8577 3.42871 30.0902 3.42871 29.1434V3.42913ZM10.2859 18.0006L37.7144 18.0006V20.572L10.2859 20.572V18.0006ZM10.2833 11.1434V13.7148H15.4823V11.1434H10.2833ZM29.143 13.7148L18.8573 13.7148V11.1434L29.143 11.1434V13.7148ZM32.518 11.1434V13.7148H37.7144V11.1434H32.518Z" fill="white"/>
</svg>
