<svg width="48" height="48" viewBox="0 0 48 48" fill="none" xmlns="http://www.w3.org/2000/svg">
<path fill-rule="evenodd" clip-rule="evenodd" d="M6.85728 5.14342V27.4291H41.143V5.14342H6.85728ZM5.143 1.71484C4.19622 1.71484 3.42871 2.48236 3.42871 3.42913V29.1434C3.42871 30.0902 4.19622 30.8577 5.143 30.8577H42.8573C43.8041 30.8577 44.5716 30.0902 44.5716 29.1434V3.42913C44.5716 2.48236 43.8041 1.71484 42.8573 1.71484H5.143Z" fill="white"/>
<path fill-rule="evenodd" clip-rule="evenodd" d="M16.2339 36.8057C16.736 36.3036 17.55 36.3036 18.0521 36.8057L24.0001 42.7537L29.9481 36.8057C30.4502 36.3036 31.2643 36.3036 31.7664 36.8057C32.2685 37.3078 32.2685 38.1219 31.7664 38.624L24.0001 46.3903L16.2339 38.624C15.7318 38.1219 15.7318 37.3078 16.2339 36.8057Z" fill="white"/>
<path fill-rule="evenodd" clip-rule="evenodd" d="M12.0001 18.0006H36.0001V20.572H12.0001V18.0006Z" fill="white"/>
<path fill-rule="evenodd" clip-rule="evenodd" d="M12.0001 11.1434H15.4823V13.7148H12.0001V11.1434Z" fill="white"/>
<path fill-rule="evenodd" clip-rule="evenodd" d="M29.143 13.7148L18.8573 13.7148L18.8573 11.1434L29.143 11.1434V13.7148Z" fill="white"/>
<path fill-rule="evenodd" clip-rule="evenodd" d="M32.518 11.1434H36.0001V13.7148H32.518V11.1434Z" fill="white"/>
</svg>
