<svg width="48" height="48" viewBox="0 0 48 48" fill="none" xmlns="http://www.w3.org/2000/svg">
<path d="M26.1816 2.56463C26.1816 1.35965 25.2048 0.382812 23.9998 0.382812C22.7948 0.382812 21.818 1.35965 21.818 2.56463V23.6973L15.9425 17.8219C15.0905 16.9698 13.709 16.9698 12.857 17.8219C12.0049 18.6739 12.0049 20.0554 12.857 20.9074L23.9998 32.0502L35.1425 20.9074C35.9946 20.0554 35.9946 18.6739 35.1425 17.8219C34.2905 16.9698 32.909 16.9698 32.057 17.8219L26.1816 23.6973V2.56463Z" fill="white"/>
<path d="M2.61816 43.3645C2.61816 42.1595 3.595 41.1827 4.79998 41.1827H43.2C44.405 41.1827 45.3818 42.1595 45.3818 43.3645C45.3818 44.5695 44.405 45.5463 43.2 45.5463H4.79998C3.595 45.5463 2.61816 44.5695 2.61816 43.3645Z" fill="white"/>
</svg>
