<svg width="48" height="48" viewBox="0 0 48 48" fill="none" xmlns="http://www.w3.org/2000/svg">
<path d="M25.6361 2.5641C25.6361 1.66036 24.9035 0.927734 23.9997 0.927734C23.096 0.927734 22.3634 1.66036 22.3634 2.5641V25.0136L15.5568 18.207C14.9178 17.568 13.8817 17.568 13.2426 18.207C12.6036 18.8461 12.6036 19.8821 13.2426 20.5212L23.9997 31.2783L34.7568 20.5212C35.3959 19.8821 35.3958 18.8461 34.7568 18.207C34.1178 17.568 33.0817 17.568 32.4426 18.207L25.6361 25.0136V2.5641Z" fill="white"/>
<path d="M3.16357 43.364C3.16357 42.4603 3.8962 41.7276 4.79994 41.7276H43.1999C44.1037 41.7276 44.8363 42.4603 44.8363 43.364C44.8363 44.2677 44.1037 45.0004 43.1999 45.0004H4.79994C3.8962 45.0004 3.16357 44.2677 3.16357 43.364Z" fill="white"/>
</svg>
