<svg width="48" height="48" viewBox="0 0 48 48" fill="none" xmlns="http://www.w3.org/2000/svg">
<path d="M12.4286 5H9V15.4544C9 19.1455 10.9778 22.5536 14.1826 24.3849L15 24.852V41C15 41.9468 15.7675 42.7143 16.7143 42.7143C17.6611 42.7143 18.4286 41.9468 18.4286 41V24.852L19.246 24.3849C22.4508 22.5536 24.4286 19.1455 24.4286 15.4544V5H21V13.5714H18.4286V5H15V13.5714H12.4286V5Z" fill="white"/>
<path d="M38.1712 5H39.8855V41H39.8571C39.8571 41.9468 39.0896 42.7143 38.1429 42.7143C37.1961 42.7143 36.4286 41.9468 36.4286 41C36.4286 40.8934 36.4383 40.7891 36.4569 40.6879V29.8571H31.3141C30.3673 29.8571 29.5998 29.0896 29.5998 28.1429C29.5998 26.7733 29.592 25.4586 29.5846 24.2062C29.5725 22.1692 29.5615 20.2966 29.5864 18.6218C29.6267 15.915 29.7606 13.5502 30.1724 11.6086C30.5848 9.66416 31.3181 7.93474 32.7222 6.7179C34.1456 5.48428 35.9984 5 38.1712 5Z" fill="white"/>
</svg>
