<svg width="48" height="48" viewBox="0 0 48 48" fill="none" xmlns="http://www.w3.org/2000/svg">
<path fill-rule="evenodd" clip-rule="evenodd" d="M12.4286 5H9V15.4544C9 19.1455 10.9778 22.5536 14.1826 24.3849L15 24.852V41C15 41.9468 15.7675 42.7143 16.7143 42.7143C17.6611 42.7143 18.4286 41.9468 18.4286 41V24.852L19.246 24.3849C22.4508 22.5536 24.4286 19.1455 24.4286 15.4544V5H21V13.5714H18.4286V5H15V13.5714H12.4286V5ZM17.545 21.408L16.7143 21.8827L15.8836 21.408C14.2044 20.4485 13.0305 18.8395 12.6049 17H20.8237C20.3981 18.8395 19.2242 20.4485 17.545 21.408Z" fill="white"/>
<path fill-rule="evenodd" clip-rule="evenodd" d="M39.8683 26.4286L39.887 5H38.1713C36.0877 5 34.2955 5.44466 32.8921 6.57594C31.4947 7.70232 30.726 9.31417 30.2794 11.1396C29.8357 12.9531 29.6685 15.1507 29.6057 17.6513C29.5571 19.5822 29.5702 21.7751 29.5846 24.1967C29.5889 24.9211 29.5933 25.6661 29.5963 26.4306C29.6035 28.3116 31.1275 29.8571 33.0284 29.8571H36.4368L36.4286 41C36.4286 41.9468 37.1961 42.7143 38.1429 42.7143C39.0896 42.7143 39.8571 41.9468 39.8571 41V39.2785L39.8899 26.4286H39.8683ZM33.0129 24.1367C33.0173 24.8697 33.0218 25.6295 33.0248 26.4174C33.0248 26.4201 33.0251 26.4213 33.0251 26.4214C33.0253 26.4218 33.0258 26.4228 33.0265 26.4239C33.0272 26.4251 33.0282 26.4265 33.0294 26.4277L36.4398 26.4286L36.4553 8.59903C35.8279 8.745 35.38 8.97422 35.0437 9.24529C34.4524 9.72191 33.9591 10.5264 33.6097 11.9544C33.2575 13.3942 33.0948 15.287 33.0332 17.7375C32.9861 19.6099 32.9987 21.7288 33.0129 24.1367Z" fill="white"/>
</svg>
