<svg width="48" height="48" viewBox="0 0 48 48" fill="none" xmlns="http://www.w3.org/2000/svg">
<path fill-rule="evenodd" clip-rule="evenodd" d="M41.5606 18.6022C38.6261 8.85661 28.3468 3.33512 18.6012 6.26962C14.501 7.50423 11.1491 10.0371 8.8589 13.2866L13.7141 13.2866C14.8976 13.2866 15.857 14.246 15.857 15.4294C15.857 16.6129 14.8976 17.5723 13.7141 17.5723L1.28564 17.5723L1.28569 5.14369C1.2857 3.96022 2.24509 3.00084 3.42856 3.00084C4.61203 3.00085 5.57141 3.96024 5.57141 5.14371L5.57139 10.5174C8.38608 6.65848 12.4381 3.64962 17.3656 2.1659C29.3776 -1.45103 42.0474 5.35453 45.6643 17.3665C49.2812 29.3786 42.4757 42.0483 30.4636 45.6653C23.326 47.8145 15.9555 46.2816 10.396 42.1705C6.59393 39.3591 3.63234 35.338 2.16492 30.4646C1.8237 29.3314 2.46573 28.1362 3.59894 27.7949C4.73215 27.4537 5.92741 28.0958 6.26863 29.229C7.46049 33.1872 9.85987 36.4439 12.9441 38.7246C17.4635 42.0665 23.4396 43.3045 29.228 41.5616C38.9736 38.6271 44.4951 28.3478 41.5606 18.6022Z" fill="white"/>
</svg>
