<svg width="48" height="48" viewBox="0 0 48 48" fill="none" xmlns="http://www.w3.org/2000/svg">
<path fill-rule="evenodd" clip-rule="evenodd" d="M41.9711 18.4777C38.9683 8.50546 28.45 2.85556 18.4778 5.85829C14.0021 7.20598 10.3976 10.0659 8.05408 13.7142L13.7142 13.7142C14.661 13.7142 15.4285 14.4817 15.4285 15.4285C15.4285 16.3752 14.661 17.1428 13.7142 17.1428L1.71436 17.1428L1.7144 5.14274C1.71441 4.19597 2.48192 3.42846 3.42869 3.42846C4.37547 3.42847 5.14298 4.19598 5.14297 5.14276L5.14295 11.9027C7.91038 7.57414 12.1822 4.17333 17.4893 2.57532C29.2746 -0.973369 41.7054 5.70379 45.2541 17.4892C48.8027 29.2745 42.1256 41.7053 30.3402 45.254C23.3375 47.3625 16.1065 45.8591 10.651 41.825C6.92066 39.0666 4.0153 35.122 2.57543 30.3401C2.30245 29.4335 2.81608 28.4773 3.72265 28.2044C4.62921 27.9314 5.58542 28.445 5.8584 29.3516C7.07781 33.4013 9.53342 36.7345 12.6895 39.0682C17.3129 42.4871 23.4283 43.7546 29.3517 41.971C39.3239 38.9682 44.9738 28.4499 41.9711 18.4777Z" fill="white"/>
</svg>
