<svg width="48" height="48" viewBox="0 0 48 48" fill="none" xmlns="http://www.w3.org/2000/svg">
<path d="M29.9571 22.7566C30.5962 22.1175 30.5962 21.0814 29.9571 20.4424C29.3181 19.8034 28.282 19.8034 27.643 20.4424L21.6 26.4853L19.1571 24.0424C18.5181 23.4034 17.482 23.4034 16.843 24.0424C16.2039 24.6814 16.2039 25.7175 16.843 26.3566L21.6 31.1137L29.9571 22.7566Z" fill="white"/>
<path fill-rule="evenodd" clip-rule="evenodd" d="M11.7819 43.1998C10.5769 43.1998 9.6001 42.223 9.6001 41.018V6.98163C9.6001 5.77664 10.5769 4.7998 11.7819 4.7998H36.2183C37.4233 4.7998 38.4001 5.77664 38.4001 6.98162L38.4001 41.018C38.4001 42.223 37.4233 43.1998 36.2183 43.1998H11.7819ZM35.1274 39.9271H12.8728L12.8728 8.07253L35.1274 8.07253L35.1274 39.9271Z" fill="white"/>
</svg>
