<svg width="48" height="48" viewBox="0 0 48 48" fill="none" xmlns="http://www.w3.org/2000/svg">
<path fill-rule="evenodd" clip-rule="evenodd" d="M6.12888 17.1793C5.16888 18.0673 4.56888 19.3393 4.56888 20.7313H4.54488C4.54488 21.3793 4.68888 22.0033 4.90488 22.5553C3.89688 23.5393 3.29687 24.8833 3.29687 26.3233C3.29687 27.7633 3.84888 29.1073 4.83288 30.0913C5.84088 31.0993 7.18488 31.6513 8.57688 31.6513H16.0409C15.6569 32.9473 15.1049 34.7713 14.3849 37.0273C13.8569 38.7073 14.0249 40.3153 14.8409 41.7073C16.5929 44.6353 19.8809 46.1233 21.0089 43.5793L23.9856 35.2803L29.8169 30.8593L29.7689 5.65933L11.9609 5.61133C10.6649 5.61133 9.46488 6.11533 8.55288 7.00333C7.64088 7.91533 7.13688 9.13933 7.13688 10.4113C7.13688 10.9633 7.23288 11.5153 7.42488 12.0193C6.44088 12.9073 5.86488 14.1793 5.86488 15.5713C5.86488 16.1233 5.96088 16.6753 6.12888 17.1793ZM34.4799 30.8596H41.3919C42.3759 30.8596 43.1919 30.0676 43.1919 29.0596V7.48363C43.1919 6.49963 42.3759 5.68364 41.3919 5.65964L34.4799 5.65964V30.8596Z" fill="white"/>
</svg>
