<svg width="48" height="48" viewBox="0 0 48 48" fill="none" xmlns="http://www.w3.org/2000/svg">
<path fill-rule="evenodd" clip-rule="evenodd" d="M12.776 3.98262L42.2 4.05463C43.184 4.05463 44 4.87062 44 5.85462L44 27.4306C44 28.4146 43.184 29.2306 42.2 29.2306H33.248L26.696 35.8066L24.08 42.8386C23.768 43.6546 22.904 44.1346 22.04 43.9666C21.584 43.8706 17.456 42.9826 15.704 40.0546C14.888 38.6626 14.72 37.0546 15.248 35.3746C15.968 33.0946 16.52 31.2946 16.904 29.9986H9.44C8.024 29.9986 6.70399 29.4466 5.696 28.4386C4.688 27.4306 4.16 26.1106 4.16 24.6706C4.16 23.2306 4.76 21.8866 5.768 20.9266C5.528 20.3506 5.408 19.7266 5.408 19.1026C5.408 17.7106 6.008 16.4386 6.96799 15.5506C6.776 15.0466 6.68 14.4946 6.68 13.9426C6.68 12.5506 7.28 11.2786 8.24 10.3906C8.048 9.88662 7.95199 9.33463 7.95199 8.78262C7.95199 7.51062 8.45599 6.28662 9.36799 5.37462C10.28 4.46262 11.48 3.98262 12.776 3.98262ZM40.976 7.14652L34.3906 7.13092L34.3906 26.809H41L41 7.65462L40.976 7.14652ZM31.2905 26.809L31.2905 7.13092L12.7532 7.0826H12.7519C12.285 7.0826 11.8796 7.25341 11.5534 7.54696L11.5436 7.55575L11.5343 7.56505C11.2017 7.89774 11.0279 8.31248 11.0279 8.7826C11.0279 9.24983 11.2248 9.72865 11.608 10.0483C11.9634 10.3747 12.1046 10.8532 12.0017 11.3295C11.8763 11.8008 11.5081 12.1637 11.0619 12.2838L11.0603 12.2842C10.3244 12.4849 9.7799 13.1553 9.7799 13.9426C9.7799 14.4098 9.97681 14.8887 10.36 15.2083C10.7154 15.5347 10.8566 16.0132 10.7537 16.4895C10.6283 16.9608 10.2601 17.3237 9.81391 17.4438L9.81234 17.4442C9.07641 17.6449 8.5319 18.3153 8.5319 19.1026C8.5319 19.6059 8.76215 20.1105 9.14727 20.4256L9.1493 20.4272C9.51663 20.7246 9.70554 21.215 9.62025 21.6756C9.53325 22.1454 9.20359 22.5283 8.74891 22.6859C7.86739 22.9899 7.2599 23.7927 7.2599 24.6946C7.2599 25.1186 7.38081 25.7354 7.8758 26.2613L7.881 26.2668L7.88635 26.2722C8.3145 26.7003 8.84903 26.9226 9.4399 26.9226H19.3279C19.8451 26.9226 20.3148 27.233 20.525 27.7012C20.6643 28.0355 20.6595 28.4175 20.527 28.7155L20.5118 28.7496L20.5019 28.7856C20.3126 29.472 19.5233 32.1036 18.2029 36.3286C18.0394 36.8469 18.0108 37.2833 18.0652 37.6525C18.1194 38.0201 18.2517 38.293 18.3715 38.4884C18.6656 38.9863 19.1236 39.3836 19.6021 39.6983C20.086 40.0166 20.6221 40.2706 21.1061 40.4692L21.5826 40.6647L23.946 34.3797C24.0258 34.1813 24.1135 34.0321 24.2415 33.9042L31.2905 26.809Z" fill="white"/>
</svg>
