<svg width="48" height="48" viewBox="0 0 48 48" fill="none" xmlns="http://www.w3.org/2000/svg">
<path d="M33.332 8.49038C33.2117 8.61512 30.9421 10.9146 28.5084 13.4093L8.92926 9.41234C7.98312 9.2171 6.99869 9.5425 6.35882 10.2638L5.06813 11.7172C4.50482 12.3463 4.72358 13.3388 5.50018 13.6805L21.6174 20.8338C18.5657 24.6464 15.0928 29.9612 14.3819 31.0676L8.0214 29.625C7.73701 29.5599 7.43621 29.6467 7.23386 29.8527L4.95875 32.1414C4.72358 32.38 4.80014 32.7759 5.11188 32.9061L12.3802 35.9702L15.3827 42.6734C15.6179 43.194 16.307 43.3188 16.7117 42.912L18.6258 40.9813C18.8282 40.7753 18.9157 40.477 18.8446 40.195L17.2641 33.7955C17.9641 33.3074 24.0566 29.0664 27.6497 26.3005L34.7813 42.4511C35.1204 43.2212 36.1158 43.4435 36.7611 42.8958L38.2378 41.6267C38.9706 40.9976 39.3042 40.0268 39.1183 39.0832L35.1696 19.2394C37.5432 16.788 39.6324 14.5536 39.6324 14.5536C42.8755 11.24 44.1006 7.19964 42.3614 5.52384C40.6223 3.84804 36.5806 5.17675 33.3375 8.48496L33.332 8.49038Z" fill="white"/>
</svg>
