<svg width="48" height="48" viewBox="0 0 48 48" fill="none" xmlns="http://www.w3.org/2000/svg">
<path fill-rule="evenodd" clip-rule="evenodd" d="M39.2294 8.77069C40.0663 9.60753 40.0663 10.9643 39.2294 11.8012L27.0303 24.0003L39.2294 36.1995C40.0663 37.0363 40.0663 38.3931 39.2294 39.2299C38.3926 40.0667 37.0358 40.0667 36.199 39.2299L23.9998 27.0308L11.8007 39.2299C10.9638 40.0667 9.60704 40.0667 8.77021 39.2299C7.93337 38.3931 7.93337 37.0363 8.77021 36.1994L20.9694 24.0003L8.77021 11.8012C7.93337 10.9643 7.93337 9.60753 8.77021 8.77069C9.60705 7.93386 10.9638 7.93386 11.8007 8.77069L23.9998 20.9698L36.199 8.77069C37.0358 7.93386 38.3926 7.93386 39.2294 8.77069Z" fill="white"/>
</svg>
