<svg width="48" height="48" viewBox="0 0 48 48" fill="none" xmlns="http://www.w3.org/2000/svg">
<path fill-rule="evenodd" clip-rule="evenodd" d="M38.9265 9.07339C39.596 9.74286 39.596 10.8283 38.9265 11.4978L26.4243 24L38.9265 36.5021C39.596 37.1716 39.596 38.257 38.9265 38.9265C38.257 39.596 37.1716 39.596 36.5021 38.9265L24 26.4243L11.4978 38.9265C10.8283 39.596 9.74286 39.596 9.07339 38.9265C8.40392 38.257 8.40392 37.1716 9.07339 36.5021L21.5756 24L9.07339 11.4978C8.40392 10.8283 8.40392 9.74286 9.07339 9.07339C9.74286 8.40392 10.8283 8.40392 11.4978 9.07339L24 21.5756L36.5021 9.07339C37.1716 8.40392 38.257 8.40392 38.9265 9.07339Z" fill="white"/>
</svg>
