<svg width="48" height="48" viewBox="0 0 48 48" fill="none" xmlns="http://www.w3.org/2000/svg">
<path d="M11.7158 38.8848H27.4863V32.7148H19.5723C18.0728 32.7148 16.8574 31.4995 16.8574 30V18.3154H11.7158V38.8848ZM20.2871 29.2852H36.0566V8.71484H20.2871V29.2852ZM39.4873 30C39.4873 31.4993 38.2717 32.7146 36.7725 32.7148H30.916V39.5996C30.916 41.099 29.7005 42.3153 28.2012 42.3154H11.001C9.50152 42.3154 8.28613 41.0991 8.28613 39.5996V17.5996C8.28634 16.1003 9.50165 14.8848 11.001 14.8848H16.8574V8C16.8574 6.50055 18.0728 5.28516 19.5723 5.28516H36.7725C38.2717 5.28537 39.4873 6.50068 39.4873 8V30Z" fill="white"/>
</svg>
