<svg width="48" height="48" viewBox="0 0 48 48" fill="none" xmlns="http://www.w3.org/2000/svg">
<path d="M25.3991 7.02328C25.0618 6.8701 24.6749 6.86983 24.3374 7.02254L5.44544 15.5711C4.98596 15.779 4.69047 16.2363 4.68977 16.7407C4.68907 17.245 4.9833 17.7032 5.4422 17.9123L24.2962 26.5067C24.6349 26.6611 25.0239 26.6611 25.3626 26.5067L44.2229 17.9124C44.6816 17.7034 44.9758 17.2457 44.9755 16.7416C44.9752 16.2376 44.6804 15.7802 44.2214 15.5718L25.3991 7.02328Z" fill="white"/>
<path fill-rule="evenodd" clip-rule="evenodd" d="M44.8603 24.8048C45.1541 25.4513 44.8682 26.2135 44.2217 26.5073L25.3614 35.0787C25.0234 35.2323 24.6354 35.2323 24.2974 35.0786L5.44338 26.5072C4.79696 26.2133 4.51117 25.4511 4.80504 24.8047C5.09892 24.1583 5.86117 23.8725 6.50759 24.1663L24.8296 32.4959L43.1578 24.1663C43.8043 23.8725 44.5665 24.1584 44.8603 24.8048Z" fill="white"/>
<path fill-rule="evenodd" clip-rule="evenodd" d="M44.8603 33.3762C45.1541 34.0227 44.8682 34.7849 44.2217 35.0787L25.3614 43.6501C25.0234 43.8038 24.6354 43.8037 24.2974 43.6501L5.44338 35.0786C4.79696 34.7848 4.51117 34.0225 4.80504 33.3761C5.09892 32.7297 5.86117 32.4439 6.50759 32.7378L24.8296 41.0673L43.1578 32.7377C43.8043 32.4439 44.5665 32.7298 44.8603 33.3762Z" fill="white"/>
</svg>
