<svg width="48" height="48" viewBox="0 0 48 48" fill="none" xmlns="http://www.w3.org/2000/svg">
<path fill-rule="evenodd" clip-rule="evenodd" d="M24.3374 7.52352C24.6749 7.37081 25.0618 7.37108 25.3991 7.52426L44.2214 16.0728C44.6804 16.2812 44.9752 16.7386 44.9755 17.2426C44.9758 17.7466 44.6816 18.2044 44.2229 18.4134L25.3626 27.0077C25.0239 27.1621 24.6349 27.162 24.2962 27.0077L5.4422 18.4133C4.9833 18.2041 4.68907 17.746 4.68977 17.2416C4.69047 16.7373 4.98596 16.28 5.44544 16.072L24.3374 7.52352ZM9.0847 17.2477L24.8296 24.4248L40.5849 17.2454L24.8664 10.1066L9.0847 17.2477Z" fill="white"/>
<path fill-rule="evenodd" clip-rule="evenodd" d="M44.8603 25.3058C45.1541 25.9522 44.8682 26.7145 44.2217 27.0083L25.3614 35.5797C25.0234 35.7333 24.6354 35.7333 24.2974 35.5796L5.44338 27.0082C4.79696 26.7143 4.51117 25.9521 4.80504 25.3056C5.09892 24.6592 5.86117 24.3734 6.50759 24.6673L24.8296 32.9969L43.1578 24.6672C43.8043 24.3735 44.5665 24.6593 44.8603 25.3058Z" fill="white"/>
<path fill-rule="evenodd" clip-rule="evenodd" d="M44.8603 33.8772C45.1541 34.5237 44.8682 35.2859 44.2217 35.5797L25.3614 44.1511C25.0234 44.3047 24.6354 44.3047 24.2974 44.151L5.44338 35.5796C4.79696 35.2857 4.51117 34.5235 4.80504 33.8771C5.09892 33.2307 5.86117 32.9449 6.50759 33.2387L24.8296 41.5683L43.1578 33.2387C43.8043 32.9449 44.5665 33.2308 44.8603 33.8772Z" fill="white"/>
</svg>
