<svg width="48" height="48" viewBox="0 0 48 48" fill="none" xmlns="http://www.w3.org/2000/svg">
<path fill-rule="evenodd" clip-rule="evenodd" d="M37.0284 22.8003H34.2856V17.1431C34.2856 11.4688 29.6741 6.85742 23.9999 6.85742C18.3256 6.85742 13.7141 11.4688 13.7141 17.1431V22.8003H10.9713C9.65129 22.8003 8.57129 23.8803 8.57129 25.2003V40.1146C8.57129 41.4346 9.65129 42.5146 10.9713 42.5146H37.0284C38.3484 42.5146 39.4284 41.4346 39.4284 40.1146V25.2003C39.4284 23.8803 38.3484 22.8003 37.0284 22.8003ZM25.7141 36.5146C25.7141 37.4574 24.9427 38.2289 23.9999 38.2289C23.057 38.2289 22.2856 37.4574 22.2856 36.5146V28.8003C22.2856 27.8574 23.057 27.086 23.9999 27.086C24.9427 27.086 25.7141 27.8574 25.7141 28.8003V36.5146ZM30.857 22.8003H17.1427V17.1431C17.1427 13.3546 20.2113 10.286 23.9999 10.286C27.7884 10.286 30.857 13.3546 30.857 17.1431V22.8003Z" fill="white"/>
</svg>
