<svg width="48" height="48" viewBox="0 0 48 48" fill="none" xmlns="http://www.w3.org/2000/svg">
<path fill-rule="evenodd" clip-rule="evenodd" d="M5.14293 19.5247H13.7514C14.7555 19.5247 15.7277 19.1721 16.4985 18.5285L19.4021 16.1038L19.4021 33.7175L15.6176 30.5568C14.8469 29.9131 13.8746 29.5605 12.8704 29.5605H5.14293L5.14293 19.5247ZM13.4198 33.1883C13.2657 33.0596 13.0712 32.9891 12.8704 32.9891H2.5715C2.09811 32.9891 1.71436 32.6053 1.71436 32.1319L1.71436 16.9532C1.71436 16.4799 2.09811 16.0961 2.5715 16.0961H13.7514C13.9522 16.0961 14.1467 16.0256 14.3008 15.8969L21.4241 9.94836C21.9822 9.48229 22.8306 9.87914 22.8306 10.6063L22.8306 39.2154C22.8306 39.9426 21.9822 40.3394 21.4241 39.8733L13.4198 33.1883Z" fill="white"/>
<path fill-rule="evenodd" clip-rule="evenodd" d="M26.5262 30.0585C27.0246 30.5643 27.8327 30.5643 28.3311 30.0585C29.0042 29.3754 29.5381 28.5645 29.9024 27.672C30.2667 26.7796 30.4542 25.823 30.4542 24.857C30.4542 23.891 30.2667 22.9344 29.9024 22.042C29.5381 21.1495 29.0042 20.3386 28.3311 19.6555C27.8327 19.1497 27.0246 19.1497 26.5262 19.6555C26.0278 20.1613 26.0278 20.9813 26.5262 21.4871C26.9623 21.9296 27.3082 22.455 27.5442 23.0332C27.7802 23.6114 27.9017 24.2312 27.9017 24.857C27.9017 25.4829 27.7802 26.1026 27.5442 26.6808C27.3082 27.259 26.9623 27.7844 26.5262 28.2269C26.0278 28.7327 26.0278 29.5527 26.5262 30.0585Z" fill="white"/>
<path fill-rule="evenodd" clip-rule="evenodd" d="M31.6691 35.2014C32.1675 35.7071 32.9755 35.7071 33.4739 35.2014C34.8126 33.8429 35.8744 32.2302 36.5989 30.4553C37.3233 28.6804 37.6962 26.7781 37.6962 24.857C37.6962 22.9359 37.3233 21.0336 36.5989 19.2587C35.8744 17.4838 34.8126 15.8711 33.4739 14.5126C32.9755 14.0069 32.1675 14.0069 31.6691 14.5126C31.1707 15.0184 31.1707 15.8384 31.6691 16.3442C32.7707 17.4621 33.6445 18.7893 34.2407 20.2499C34.8369 21.7105 35.1438 23.276 35.1438 24.857C35.1438 26.438 34.8369 28.0035 34.2407 29.4641C33.6445 30.9247 32.7707 32.2519 31.6691 33.3698C31.1707 33.8756 31.1707 34.6956 31.6691 35.2014Z" fill="white"/>
<path fill-rule="evenodd" clip-rule="evenodd" d="M38.5262 38.6299C39.0246 39.1357 39.8327 39.1357 40.3311 38.6299C42.1134 36.8212 43.5272 34.674 44.4918 32.3109C45.4564 29.9477 45.9528 27.4149 45.9528 24.857C45.9528 22.2991 45.4564 19.7663 44.4918 17.4031C43.5272 15.04 42.1134 12.8928 40.3311 11.0841C39.8327 10.5783 39.0246 10.5783 38.5262 11.0841C38.0278 11.5898 38.0278 12.4099 38.5262 12.9157C40.0715 14.4838 41.2973 16.3455 42.1336 18.3944C42.9699 20.4433 43.4003 22.6393 43.4003 24.857C43.4003 27.0747 42.9699 29.2707 42.1336 31.3196C41.2973 33.3685 40.0715 35.2302 38.5262 36.7984C38.0278 37.3041 38.0278 38.1242 38.5262 38.6299Z" fill="white"/>
</svg>
