<svg width="48" height="48" viewBox="0 0 48 48" fill="none" xmlns="http://www.w3.org/2000/svg">
<path d="M6.86551 43.2695C5.68205 43.2695 4.72266 42.3101 4.72266 41.1267L4.72266 29.7062C4.72266 28.5227 5.68205 27.5633 6.86551 27.5633C8.04898 27.5633 9.00837 28.5227 9.00837 29.7062L9.00837 38.9838H18.286C19.4695 38.9838 20.4289 39.9432 20.4289 41.1267C20.4289 42.3101 19.4695 43.2695 18.286 43.2695H6.86551Z" fill="white"/>
<path d="M41.127 43.2695C42.3105 43.2695 43.2699 42.3101 43.2699 41.1267V29.7062C43.2699 28.5227 42.3105 27.5633 41.127 27.5633C39.9435 27.5633 38.9841 28.5227 38.9841 29.7062V38.9838L31.6099 38.9838C30.4265 38.9838 29.4671 39.9432 29.4671 41.1267C29.4671 42.3101 30.4265 43.2695 31.6099 43.2695L41.127 43.2695Z" fill="white"/>
<path d="M43.2699 6.86523C43.2699 5.68177 42.3105 4.72238 41.127 4.72238L31.6099 4.72238C30.4265 4.72238 29.4671 5.68177 29.4671 6.86523C29.4671 8.0487 30.4265 9.00809 31.6099 9.00809L38.9841 9.00809L38.9841 16.3823C38.9841 17.5658 39.9435 18.5252 41.127 18.5252C42.3105 18.5252 43.2699 17.5658 43.2699 16.3823L43.2699 6.86523Z" fill="white"/>
<path d="M6.86551 4.72238C5.68205 4.72238 4.72266 5.68177 4.72266 6.86523L4.72266 16.3823C4.72266 17.5658 5.68205 18.5252 6.86551 18.5252C8.04898 18.5252 9.00837 17.5658 9.00837 16.3823V9.00809H18.286C19.4695 9.00809 20.4289 8.0487 20.4289 6.86523C20.4289 5.68177 19.4695 4.72238 18.286 4.72238H6.86551Z" fill="white"/>
</svg>
