<svg width="48" height="48" viewBox="0 0 48 48" fill="none" xmlns="http://www.w3.org/2000/svg">
<path d="M6.86516 42.8398C5.91839 42.8398 5.15088 42.0723 5.15088 41.1256L5.15088 29.7051C5.15088 28.7583 5.91839 27.9908 6.86516 27.9908C7.81194 27.9908 8.57945 28.7583 8.57945 29.7051L8.57945 39.4113H18.2857C19.2324 39.4113 19.9999 40.1788 19.9999 41.1256C19.9999 42.0723 19.2324 42.8398 18.2857 42.8398H6.86516Z" fill="white"/>
<path d="M41.1267 42.8398C42.0734 42.8398 42.8409 42.0723 42.8409 41.1256V29.7051C42.8409 28.7583 42.0734 27.9908 41.1267 27.9908C40.1799 27.9908 39.4124 28.7583 39.4124 29.7051V39.4113L31.6096 39.4113C30.6628 39.4113 29.8953 40.1788 29.8953 41.1256C29.8953 42.0723 30.6628 42.8398 31.6096 42.8398L41.1267 42.8398Z" fill="white"/>
<path d="M42.8409 6.86412C42.8409 5.91735 42.0734 5.14983 41.1267 5.14983L31.6096 5.14983C30.6628 5.14983 29.8953 5.91735 29.8953 6.86412C29.8953 7.81089 30.6628 8.57841 31.6096 8.57841L39.4124 8.57841L39.4124 16.3812C39.4124 17.328 40.1799 18.0955 41.1267 18.0955C42.0734 18.0955 42.8409 17.328 42.8409 16.3812L42.8409 6.86412Z" fill="white"/>
<path d="M6.86516 5.14983C5.91839 5.14983 5.15088 5.91735 5.15088 6.86412L5.15088 16.3812C5.15088 17.328 5.91839 18.0955 6.86516 18.0955C7.81194 18.0955 8.57945 17.328 8.57945 16.3812V8.57841H18.2857C19.2324 8.57841 19.9999 7.81089 19.9999 6.86412C19.9999 5.91735 19.2324 5.14983 18.2857 5.14983H6.86516Z" fill="white"/>
</svg>
