<svg width="48" height="48" viewBox="0 0 48 48" fill="none" xmlns="http://www.w3.org/2000/svg">
<path d="M18.6012 6.26766C14.5011 7.50226 11.1488 10.0354 8.85852 13.2851L13.7141 13.2851C14.8976 13.2851 15.857 14.2445 15.857 15.428C15.857 16.6114 14.8976 17.5708 13.7141 17.5708L1.28564 17.5708L1.28569 5.14222C1.2857 3.95875 2.24509 2.99937 3.42856 2.99937C4.61203 2.99937 5.57141 3.95877 5.57141 5.14224L5.57139 10.5155C8.38603 6.65655 12.4378 3.64776 17.3656 2.16395C29.3776 -1.45299 42.0474 5.35257 45.6643 17.3646C49.2812 29.3766 42.4757 42.0464 30.4636 45.6633C23.326 47.8125 15.9555 46.2796 10.396 42.1686C6.59393 39.3571 3.63235 35.3361 2.16492 30.4627C1.8237 29.3295 2.46574 28.1342 3.59895 27.793C4.73216 27.4518 5.92742 28.0938 6.26864 29.227C7.46049 33.1852 9.85988 36.442 12.9441 38.7226C17.4635 42.0646 23.4396 43.3026 29.228 41.5596C38.9736 38.6251 44.4951 28.3459 41.5606 18.6003C38.6261 8.85466 28.3468 3.33317 18.6012 6.26766Z" fill="white"/>
<path fill-rule="evenodd" clip-rule="evenodd" d="M29.2407 17.5327C28.6647 17.255 28.0373 17.1162 27.3585 17.1162C26.6899 17.1162 26.0676 17.255 25.4916 17.5327C24.9259 17.8105 24.4322 18.2219 24.0105 18.767C23.5887 19.3019 23.2596 19.9653 23.023 20.7573C22.7865 21.539 22.6682 22.4339 22.6682 23.4419V23.8585C22.6682 24.8767 22.7865 25.7819 23.023 26.5739C23.2596 27.3659 23.5887 28.0345 24.0105 28.5796C24.4322 29.1145 24.9259 29.5259 25.4916 29.8139C26.0676 30.0916 26.6899 30.2305 27.3585 30.2305C28.0373 30.2305 28.6647 30.0865 29.2407 29.7985C29.8167 29.5105 30.3105 29.0939 30.7219 28.5487C31.1436 28.0036 31.4727 27.3402 31.7093 26.5585C31.9459 25.7665 32.0642 24.8665 32.0642 23.8585V23.4573C32.0642 22.439 31.9459 21.539 31.7093 20.7573C31.4727 19.9653 31.1436 19.3019 30.7219 18.767C30.3105 18.2219 29.8167 17.8105 29.2407 17.5327ZM25.8619 20.1093C26.1807 19.4819 26.6796 19.1682 27.3585 19.1682C28.027 19.1682 28.5259 19.4819 28.855 20.1093C29.1842 20.7265 29.3487 21.683 29.3487 22.979V24.383C29.3487 25.6996 29.1842 26.6665 28.855 27.2836C28.5362 27.8905 28.0373 28.1939 27.3585 28.1939C26.6796 28.1939 26.1807 27.8905 25.8619 27.2836C25.5533 26.6665 25.399 25.6996 25.399 24.383V22.979C25.399 21.683 25.5533 20.7265 25.8619 20.1093Z" fill="white"/>
<path d="M18.3384 20.2636V29.999H20.8841V17.3476H18.4156L15.7619 19.9859V22.7939L18.3384 20.2636Z" fill="white"/>
</svg>
