<svg width="48" height="48" viewBox="0 0 48 48" fill="none" xmlns="http://www.w3.org/2000/svg">
<path d="M18.4778 5.85829C14.0022 7.20593 10.3975 10.066 8.05395 13.7143L13.7142 13.7143C14.661 13.7143 15.4285 14.4818 15.4285 15.4286C15.4285 16.3754 14.661 17.1429 13.7142 17.1429L1.71436 17.1429L1.7144 5.14288C1.71441 4.19611 2.48192 3.4286 3.42869 3.4286C4.37547 3.4286 5.14298 4.19612 5.14297 5.14289L5.14295 11.9028C7.91038 7.57415 12.1819 4.17341 17.4893 2.57532C29.2746 -0.973368 41.7054 5.70378 45.2541 17.4892C48.8027 29.2745 42.1256 41.7053 30.3402 45.2539C23.3375 47.3625 16.1065 45.8591 10.651 41.825C6.92065 39.0666 4.01529 35.122 2.57542 30.3401C2.30245 29.4335 2.81607 28.4773 3.72264 28.2044C4.62921 27.9314 5.58542 28.445 5.85839 29.3516C7.07781 33.4013 9.53341 36.7345 12.6895 39.0682C17.3129 42.4871 23.4283 43.7546 29.3517 41.971C39.3239 38.9682 44.9738 28.4499 41.9711 18.4777C38.9683 8.50545 28.45 2.85556 18.4778 5.85829Z" fill="white"/>
<path fill-rule="evenodd" clip-rule="evenodd" d="M29.2409 17.5334C28.6649 17.2557 28.0374 17.1169 27.3586 17.1169C26.69 17.1169 26.0677 17.2557 25.4917 17.5334C24.926 17.8112 24.4323 18.2226 24.0106 18.7677C23.5889 19.3026 23.2597 19.966 23.0232 20.758C22.7866 21.5397 22.6683 22.4346 22.6683 23.4426V23.8592C22.6683 24.8774 22.7866 25.7826 23.0232 26.5746C23.2597 27.3666 23.5889 28.0352 24.0106 28.5803C24.4323 29.1152 24.926 29.5266 25.4917 29.8146C26.0677 30.0923 26.69 30.2312 27.3586 30.2312C28.0374 30.2312 28.6649 30.0872 29.2409 29.7992C29.8169 29.5112 30.3106 29.0946 30.722 28.5494C31.1437 28.0043 31.4729 27.3409 31.7094 26.5592C31.946 25.7672 32.0643 24.8672 32.0643 23.8592V23.458C32.0643 22.4397 31.946 21.5397 31.7094 20.758C31.4729 19.966 31.1437 19.3026 30.722 18.7677C30.3106 18.2226 29.8169 17.8112 29.2409 17.5334ZM25.862 20.11C26.1809 19.4826 26.6797 19.1689 27.3586 19.1689C28.0272 19.1689 28.526 19.4826 28.8552 20.11C29.1843 20.7272 29.3489 21.6837 29.3489 22.9797V24.3837C29.3489 25.7003 29.1843 26.6672 28.8552 27.2843C28.5363 27.8912 28.0374 28.1946 27.3586 28.1946C26.6797 28.1946 26.1809 27.8912 25.862 27.2843C25.5534 26.6672 25.3992 25.7003 25.3992 24.3837V22.9797C25.3992 21.6837 25.5534 20.7272 25.862 20.11Z" fill="white"/>
<path d="M18.3386 20.2643V29.9997H20.8843V17.3483H18.4157L15.762 19.9866V22.7946L18.3386 20.2643Z" fill="white"/>
</svg>
