<svg width="48" height="48" viewBox="0 0 48 48" fill="none" xmlns="http://www.w3.org/2000/svg">
<path fill-rule="evenodd" clip-rule="evenodd" d="M7.89998 29.8098L7.8999 39.5999L17.6898 39.5998C18.1444 39.5998 18.5805 39.4192 18.902 39.0977L40.2879 17.7118C40.9573 17.0424 40.9573 15.9569 40.2878 15.2875L32.2122 7.21204C31.5428 6.54259 30.4574 6.5426 29.7879 7.21206L8.40209 28.5976C8.08059 28.9191 7.89998 29.3551 7.89998 29.8098ZM11.3285 36.1713L11.3285 30.5199L24.9589 16.8897C25.0287 17.0046 25.1133 17.1131 25.2126 17.2124L30.5756 22.5754L16.9797 36.1713L11.3285 36.1713ZM33 20.151L36.6513 16.4997L31.0001 10.8486L27.3143 14.5343C27.4292 14.6041 27.5377 14.6887 27.637 14.788L33 20.151Z" fill="white"/>
</svg>
