<svg width="48" height="48" viewBox="0 0 48 48" fill="none" xmlns="http://www.w3.org/2000/svg">
<path fill-rule="evenodd" clip-rule="evenodd" d="M7.0351 5.94131C4.35627 5.98627 2.19987 8.13784 2.15174 10.8166C2.08232 14.6803 2 20.1327 2 24.2617C2 28.3907 2.08232 33.8432 2.15174 37.7068C2.19987 40.3856 4.35628 42.5372 7.03511 42.5821C11.6668 42.6599 18.7382 42.7617 24 42.7617C29.2618 42.7617 36.3332 42.6599 40.9649 42.5821C43.6437 42.5372 45.8001 40.3856 45.8483 37.7068C45.9177 33.8432 46 28.3907 46 24.2617C46 20.1327 45.9177 14.6803 45.8483 10.8166C45.8001 8.13784 43.6437 5.98627 40.9649 5.94131C36.3332 5.86356 29.2618 5.76172 24 5.76172C18.7382 5.76172 11.6668 5.86356 7.0351 5.94131ZM35.6415 21.892C36.5418 21.1038 36.6328 19.7349 35.8446 18.8345C35.0564 17.9342 33.6875 17.8432 32.7871 18.6315L27.0928 23.6164L21.0374 18.6807L12.382 26.0397C11.4703 26.8148 11.3596 28.1822 12.1347 29.0939C12.9098 30.0055 14.2772 30.1162 15.1889 29.3411L21.0959 24.3189L27.1927 29.2882L35.6415 21.892Z" fill="white"/>
<path fill-rule="evenodd" clip-rule="evenodd" d="M27.1927 29.2882L21.0959 24.3189L15.1889 29.3411C14.2772 30.1162 12.9098 30.0055 12.1347 29.0939C11.3596 28.1822 11.4703 26.8148 12.382 26.0397L21.0374 18.6807L27.0928 23.6164L32.7871 18.6315C33.6875 17.8432 35.0564 17.9342 35.8446 18.8345C36.6328 19.7349 36.5418 21.1038 35.6415 21.892L27.1927 29.2882ZM2.15174 10.8166C2.19987 8.13784 4.35627 5.98627 7.0351 5.94131C11.6668 5.86356 18.7382 5.76172 24 5.76172C29.2618 5.76172 36.3332 5.86356 40.9649 5.94131C43.6437 5.98627 45.8001 8.13784 45.8483 10.8166C45.9177 14.6803 46 20.1327 46 24.2617C46 28.3907 45.9177 33.8432 45.8483 37.7068C45.8001 40.3856 43.6437 42.5372 40.9649 42.5821C36.3332 42.6599 29.2618 42.7617 24 42.7617C18.7382 42.7617 11.6668 42.6599 7.03511 42.5821C4.35628 42.5372 2.19987 40.3856 2.15174 37.7068C2.08232 33.8432 2 28.3907 2 24.2617C2 20.1327 2.08232 14.6803 2.15174 10.8166Z" fill="white"/>
</svg>
