<svg width="48" height="48" viewBox="0 0 48 48" fill="none" xmlns="http://www.w3.org/2000/svg">
<path fill-rule="evenodd" clip-rule="evenodd" d="M42.5714 24.2617C42.5714 20.1658 42.4896 14.7398 42.4202 10.8782C42.4053 10.0484 41.7413 9.38339 40.9074 9.3694C36.2766 9.29167 29.2304 9.19029 24 9.19029C18.7696 9.19029 11.7234 9.29167 7.09264 9.3694C6.25867 9.38339 5.59467 10.0484 5.57976 10.8782C5.51038 14.7398 5.42857 20.1658 5.42857 24.2617C5.42857 28.3576 5.51038 33.7836 5.57976 37.6452C5.59467 38.475 6.25867 39.14 7.09265 39.154C11.7234 39.2318 18.7696 39.3331 24 39.3331C29.2304 39.3331 36.2766 39.2318 40.9074 39.154C41.7413 39.14 42.4053 38.4751 42.4202 37.6452C42.4896 33.7836 42.5714 28.3576 42.5714 24.2617ZM7.0351 5.94131C4.35627 5.98627 2.19987 8.13784 2.15174 10.8166C2.08232 14.6803 2 20.1327 2 24.2617C2 28.3907 2.08232 33.8432 2.15174 37.7068C2.19987 40.3856 4.35628 42.5372 7.03511 42.5821C11.6668 42.6599 18.7382 42.7617 24 42.7617C29.2618 42.7617 36.3332 42.6599 40.9649 42.5821C43.6437 42.5372 45.8001 40.3856 45.8483 37.7068C45.9177 33.8432 46 28.3907 46 24.2617C46 20.1327 45.9177 14.6803 45.8483 10.8166C45.8001 8.13784 43.6437 5.98627 40.9649 5.94131C36.3332 5.86356 29.2618 5.76172 24 5.76172C18.7382 5.76172 11.6668 5.86356 7.0351 5.94131Z" fill="white"/>
<path fill-rule="evenodd" clip-rule="evenodd" d="M34.7185 19.4183C35.3421 20.1307 35.2702 21.2137 34.5578 21.8373L26.9407 28.5055L21.3157 23.9208L15.6819 28.7107C14.9606 29.3239 13.8787 29.2363 13.2655 28.515C12.6522 27.7937 12.7398 26.7118 13.4611 26.0986L21.2694 19.4599L26.8617 24.018L32.2995 19.2576C33.0118 18.634 34.0949 18.7059 34.7185 19.4183Z" fill="white"/>
</svg>
