<svg width="48" height="48" viewBox="0 0 48 48" fill="none" xmlns="http://www.w3.org/2000/svg">
<path fill-rule="evenodd" clip-rule="evenodd" d="M2.33582 17.3665C5.95276 5.35453 18.6225 -1.45103 30.6345 2.1659C35.5621 3.64962 39.614 6.65848 42.4287 10.5174L42.4287 5.14371C42.4287 3.96024 43.3881 3.00085 44.5716 3.00084C45.755 3.00084 46.7144 3.96022 46.7144 5.14369L46.7145 17.5723L34.286 17.5723C33.1025 17.5723 32.1432 16.6129 32.1432 15.4294C32.1432 14.246 33.1025 13.2866 34.286 13.2866L39.1412 13.2866C36.851 10.0371 33.4991 7.50423 29.3989 6.26962C19.6533 3.33512 9.37403 8.85662 6.43954 18.6022C3.50504 28.3478 9.02654 38.6271 18.7721 41.5616C24.5606 43.3045 30.5366 42.0665 35.056 38.7246C38.1402 36.4439 40.5396 33.1872 41.7315 29.229C42.0727 28.0958 43.268 27.4537 44.4012 27.7949C45.5344 28.1362 46.1764 29.3314 45.8352 30.4646C44.3678 35.338 41.4062 39.3591 37.6041 42.1705C32.0446 46.2816 24.6741 47.8145 17.5365 45.6653C5.52445 42.0483 -1.28111 29.3786 2.33582 17.3665Z" fill="white"/>
</svg>
