<svg width="48" height="48" viewBox="0 0 48 48" fill="none" xmlns="http://www.w3.org/2000/svg">
<path fill-rule="evenodd" clip-rule="evenodd" d="M2.74622 17.4892C6.29491 5.70379 18.7256 -0.973369 30.511 2.57532C35.8181 4.17333 40.0899 7.57414 42.8573 11.9028L42.8573 5.14276C42.8573 4.19598 43.6248 3.42847 44.5716 3.42846C45.5184 3.42846 46.2859 4.19597 46.2859 5.14274L46.2859 17.1428L34.286 17.1428C33.3393 17.1428 32.5718 16.3752 32.5718 15.4285C32.5718 14.4817 33.3393 13.7142 34.286 13.7142L39.9462 13.7142C37.6027 10.0659 33.9982 7.20598 29.5225 5.85829C19.5502 2.85556 9.03193 8.50545 6.02919 18.4777C3.02645 28.4499 8.67635 38.9682 18.6486 41.971C24.5719 43.7546 30.6874 42.4871 35.3108 39.0682C38.4669 36.7345 40.9225 33.4013 42.1419 29.3516C42.4149 28.445 43.3711 27.9314 44.2776 28.2044C45.1842 28.4773 45.6978 29.4335 45.4249 30.3401C43.985 35.122 41.0796 39.0666 37.3493 41.825C31.8938 45.8591 24.6627 47.3625 17.6601 45.254C5.87468 41.7053 -0.80247 29.2745 2.74622 17.4892Z" fill="white"/>
</svg>
