<svg width="48" height="48" viewBox="0 0 48 48" fill="none" xmlns="http://www.w3.org/2000/svg">
<path fill-rule="evenodd" clip-rule="evenodd" d="M32.2459 10.4566C32.4318 10.3383 32.6178 10.2866 32.8037 10.2852C33.4515 10.2914 34.0459 10.958 34.0459 11.8623V37.508C34.0459 38.4166 33.4459 39.0852 32.7945 39.0852C32.6059 39.0852 32.4173 39.0337 32.2288 38.9137L19.0631 30.308H17.8904L19.3985 36.3152C19.8497 38.0855 18.4366 39.6334 16.7767 39.6334H12.5767C11.4075 39.6334 10.2876 38.8679 9.97484 37.6315L7.97357 30.308H6.97735C5.96592 30.308 5.14307 29.2794 5.14307 27.9937V21.188C5.14307 19.9194 5.96592 18.8737 6.97735 18.8737H19.0631L32.2459 10.4566ZM30.6345 33.7709V15.5652L20.9145 21.7537L20.2636 22.1655V26.9929L20.9488 27.4452L30.6345 33.7709ZM17.6922 26.8794H8.57164V22.2852H17.6922V26.8794ZM11.5279 30.308H14.3554L15.8358 36.2049H13.1393L11.5279 30.308Z" fill="white"/>
<path d="M32.8037 10.2852L32.8116 10.2852H32.7945L32.8037 10.2852Z" fill="white"/>
<path d="M37.9154 23.519C37.2053 23.519 36.6297 24.0946 36.6297 24.8047C36.6297 25.5148 37.2053 26.0904 37.9154 26.0904H42.304C43.014 26.0904 43.5897 25.5148 43.5897 24.8047C43.5897 24.0946 43.014 23.519 42.304 23.519H37.9154Z" fill="white"/>
<path d="M41.9479 16.2079C42.3028 16.8229 42.0918 17.6092 41.4768 17.964L38.3568 19.764C37.7417 20.1189 36.9555 19.9079 36.6006 19.2929C36.2458 18.6778 36.4567 17.8916 37.0718 17.5367L40.1918 15.7367C40.8068 15.3819 41.5931 15.5928 41.9479 16.2079Z" fill="white"/>
<path d="M38.7854 30.1541C38.1703 29.7993 37.384 30.0102 37.0292 30.6253C36.6743 31.2403 36.8853 32.0266 37.5004 32.3815L40.6203 34.1815C41.2354 34.5363 42.0217 34.3254 42.3765 33.7103C42.7314 33.0952 42.5204 32.309 41.9053 31.9541L38.7854 30.1541Z" fill="white"/>
</svg>
