<svg width="48" height="48" viewBox="0 0 48 48" fill="none" xmlns="http://www.w3.org/2000/svg">
<path fill-rule="evenodd" clip-rule="evenodd" d="M10.2859 13.7137V27.428H37.7144V13.7137H10.2859ZM8.57157 10.2852C7.62479 10.2852 6.85728 11.0527 6.85728 11.9994V29.1423C6.85728 30.0891 7.62479 30.8566 8.57157 30.8566H39.4287C40.3755 30.8566 41.143 30.0891 41.143 29.1423V11.9994C41.143 11.0527 40.3755 10.2852 39.4287 10.2852H8.57157Z" fill="white"/>
<path fill-rule="evenodd" clip-rule="evenodd" d="M3.42871 39.428C3.42871 38.4812 4.19622 37.7137 5.143 37.7137H42.8573C43.8041 37.7137 44.5716 38.4812 44.5716 39.428C44.5716 40.3748 43.8041 41.1423 42.8573 41.1423H5.143C4.19622 41.1423 3.42871 40.3748 3.42871 39.428Z" fill="white"/>
</svg>
