<svg width="48" height="48" viewBox="0 0 48 48" fill="none" xmlns="http://www.w3.org/2000/svg">
<path d="M28 5.5C26.6193 5.5 25.5 6.61929 25.5 8C25.5 9.38071 26.6193 10.5 28 10.5H33.9645L18.2322 26.2322C17.2559 27.2085 17.2559 28.7915 18.2322 29.7678C19.2085 30.7441 20.7915 30.7441 21.7678 29.7678L37.5 14.0355V20C37.5 21.3807 38.6193 22.5 40 22.5C41.3807 22.5 42.5 21.3807 42.5 20V5.5H28Z" fill="white"/>
<path fill-rule="evenodd" clip-rule="evenodd" d="M10.5 10.5H20.5V5.5H10C7.51472 5.5 5.5 7.51472 5.5 10V38C5.5 40.4853 7.51472 42.5 10 42.5H38C40.4851 42.5 42.5 40.4855 42.5 38.0001V27.5H37.5V37.5H10.5V10.5Z" fill="white"/>
</svg>
