<svg width="48" height="48" viewBox="0 0 48 48" fill="none" xmlns="http://www.w3.org/2000/svg">
<path d="M28 6C26.8954 6 26 6.89543 26 8C26 9.10457 26.8954 10 28 10H35.1716L18.5858 26.5858C17.8047 27.3668 17.8047 28.6332 18.5858 29.4142C19.3668 30.1953 20.6332 30.1953 21.4142 29.4142L38 12.8284V20C38 21.1046 38.8954 22 40 22C41.1046 22 42 21.1046 42 20V6H28Z" fill="white"/>
<path fill-rule="evenodd" clip-rule="evenodd" d="M6 10C6 7.79086 7.79086 6 10 6H20V10H10V38H38V28H42V38C42 40.2091 40.2091 42 38 42H10C7.79086 42 6 40.2091 6 38V10Z" fill="white"/>
</svg>
