<svg width="48" height="48" viewBox="0 0 48 48" fill="none" xmlns="http://www.w3.org/2000/svg">
<path fill-rule="evenodd" clip-rule="evenodd" d="M14.4171 4C13.0509 4 11.8551 5.08319 11.8571 6.54557C11.8582 7.28914 11.8716 8.49367 11.9306 10H5V11.7143C5 14.4454 5.00519 17.8599 6.2907 20.5672C6.96432 21.9859 7.99709 23.2415 9.54116 24.1224C10.7704 24.8237 12.2457 25.2432 13.9852 25.3794C14.6385 27.8062 15.5085 30.1239 16.6803 32.0069C17.6438 33.5553 18.8786 34.9043 20.4286 35.7264V36.5714C20.4286 38.465 18.8935 40 17 40H15.2857V42.5714C15.2857 43.0448 15.6695 43.4286 16.1429 43.4286H31.5714C32.0448 43.4286 32.4286 43.0448 32.4286 42.5714V40H30.7143C28.8207 40 27.2857 38.465 27.2857 36.5714V35.7257C28.8351 34.9036 30.0695 33.5549 31.0329 32.007C32.2047 30.124 33.0748 27.8063 33.7282 25.3795C35.4681 25.2433 36.9436 24.8238 38.1731 24.1224C39.7172 23.2415 40.75 21.9859 41.4236 20.5672C42.7091 17.8599 42.7143 14.4454 42.7143 11.7143V10H35.7834C35.8425 8.49372 35.8559 7.28923 35.857 6.54567C35.8591 5.08325 34.6632 4 33.2971 4H14.4171ZM13.1805 21.8217C12.6359 18.9344 12.3138 15.9935 12.124 13.4286H8.44276C8.48855 15.6406 8.67421 17.5936 9.38787 19.0966C9.80353 19.9721 10.3868 20.6576 11.2401 21.1444C11.7406 21.4299 12.3736 21.6694 13.1805 21.8217ZM36.4742 21.1444C35.9736 21.43 35.3403 21.6695 34.533 21.8218C35.0777 18.9345 35.4 15.9935 35.5899 13.4286H39.2715C39.2257 15.6406 39.0401 17.5936 38.3264 19.0966C37.9108 19.9721 37.3274 20.6576 36.4742 21.1444ZM16.7373 22.132C15.5612 16.4882 15.3303 10.3415 15.2923 7.42857H32.4218C32.3837 10.3415 32.1526 16.4882 30.9763 22.132C30.316 25.3001 29.3861 28.1642 28.122 30.1954C26.869 32.2087 25.4723 33.1429 23.8565 33.1429C22.2408 33.1429 20.8441 32.2087 19.5912 30.1954C18.3272 28.1642 17.3974 25.3001 16.7373 22.132Z" fill="white"/>
</svg>
