<svg width="48" height="48" viewBox="0 0 48 48" fill="none" xmlns="http://www.w3.org/2000/svg">
<path fill-rule="evenodd" clip-rule="evenodd" d="M44.5716 24.0001C44.5716 35.3614 35.3614 44.5716 24.0001 44.5716C12.6389 44.5716 3.42871 35.3614 3.42871 24.0001C3.42871 12.6389 12.6389 3.42871 24.0001 3.42871C35.3614 3.42871 44.5716 12.6389 44.5716 24.0001ZM27.242 14.7775C27.242 15.9328 26.3054 16.8694 25.1501 16.8694C23.9948 16.8694 23.0583 15.9328 23.0583 14.7775C23.0583 13.6222 23.9948 12.6857 25.1501 12.6857C26.3054 12.6857 27.242 13.6222 27.242 14.7775ZM24.3303 18.9615C24.9334 18.9615 25.4045 19.1321 25.7437 19.4732C26.0829 19.8144 26.2526 20.2555 26.2526 20.7967C26.2526 21.279 26.1395 21.9025 25.9133 22.6671L23.4257 30.5725C23.3127 30.8548 23.2561 31.1489 23.2561 31.4548C23.2561 32.043 23.4446 32.3371 23.8215 32.3371C24.2926 32.3371 24.858 32.1312 25.5176 31.7195C26.1772 31.296 26.7425 30.9372 27.2137 30.6431L27.5529 30.396C27.6283 30.396 27.7696 30.5078 27.9769 30.7313C28.1842 30.9548 28.2878 31.1136 28.2878 31.2077C27.9675 31.5489 27.3833 31.9841 26.5352 32.5135C25.706 33.0429 24.8015 33.5135 23.8215 33.9252C22.8415 34.3252 21.9558 34.5251 21.1643 34.5251C20.5612 34.5251 20.0901 34.3546 19.7509 34.0134C19.4117 33.6723 19.2421 33.2311 19.2421 32.69C19.2421 32.3371 19.374 31.7136 19.6378 30.8195L21.9558 23.4435C22.1443 22.7495 22.2385 22.2789 22.2385 22.0319C22.2385 21.4437 22.05 21.1496 21.6731 21.1496C21.447 21.1496 21.136 21.2437 20.7403 21.4319C20.3634 21.6201 19.9959 21.8319 19.6378 22.0672C19.2798 22.2907 19.0159 22.4671 18.8463 22.5965L18.5636 22.8083C18.4883 22.8083 18.3469 22.6965 18.1396 22.473C17.9323 22.2495 17.8287 22.0907 17.8287 21.9966C18.1302 21.679 18.6767 21.2849 19.4682 20.8143C20.2597 20.332 21.1078 19.9026 22.0123 19.5262C22.9169 19.1497 23.6896 18.9615 24.3303 18.9615Z" fill="white"/>
</svg>
