<svg width="48" height="48" viewBox="0 0 48 48" fill="none" xmlns="http://www.w3.org/2000/svg">
<path d="M27.2419 14.7775C27.2419 15.9328 26.3054 16.8694 25.1501 16.8694C23.9948 16.8694 23.0582 15.9328 23.0582 14.7775C23.0582 13.6222 23.9948 12.6857 25.1501 12.6857C26.3054 12.6857 27.2419 13.6222 27.2419 14.7775Z" fill="white"/>
<path d="M24.3303 18.9611C24.9334 18.9611 25.4045 19.1317 25.7437 19.4728C26.0829 19.814 26.2525 20.2551 26.2525 20.7962C26.2525 21.2786 26.1395 21.9021 25.9133 22.6667L23.4257 30.5721C23.3127 30.8544 23.2561 31.1485 23.2561 31.4543C23.2561 32.0425 23.4446 32.3366 23.8215 32.3366C24.2926 32.3366 24.858 32.1308 25.5176 31.719C26.1771 31.2955 26.7425 30.9367 27.2136 30.6426L27.5529 30.3956C27.6282 30.3956 27.7696 30.5074 27.9769 30.7309C28.1842 30.9544 28.2878 31.1132 28.2878 31.2073C27.9675 31.5485 27.3833 31.9837 26.5352 32.5131C25.706 33.0425 24.8014 33.513 23.8215 33.9248C22.8415 34.3247 21.9558 34.5247 21.1643 34.5247C20.5612 34.5247 20.0901 34.3541 19.7509 34.013C19.4117 33.6718 19.2421 33.2307 19.2421 32.6896C19.2421 32.3366 19.374 31.7132 19.6378 30.8191L21.9558 23.4431C22.1442 22.7491 22.2385 22.2785 22.2385 22.0315C22.2385 21.4433 22.05 21.1492 21.6731 21.1492C21.447 21.1492 21.136 21.2433 20.7403 21.4315C20.3634 21.6197 19.9959 21.8315 19.6378 22.0667C19.2797 22.2903 19.0159 22.4667 18.8463 22.5961L18.5636 22.8079C18.4882 22.8079 18.3469 22.6961 18.1396 22.4726C17.9323 22.2491 17.8286 22.0903 17.8286 21.9962C18.1302 21.6785 18.6767 21.2844 19.4682 20.8139C20.2597 20.3316 21.1077 19.9022 22.0123 19.5257C22.9169 19.1493 23.6896 18.9611 24.3303 18.9611Z" fill="white"/>
<path fill-rule="evenodd" clip-rule="evenodd" d="M24.0001 44.5716C35.3614 44.5716 44.5716 35.3614 44.5716 24.0001C44.5716 12.6389 35.3614 3.42871 24.0001 3.42871C12.6389 3.42871 3.42871 12.6389 3.42871 24.0001C3.42871 35.3614 12.6389 44.5716 24.0001 44.5716ZM41.143 24.0001C41.143 33.4679 33.4679 41.143 24.0001 41.143C14.5324 41.143 6.85728 33.4679 6.85728 24.0001C6.85728 14.5324 14.5324 6.85728 24.0001 6.85728C33.4679 6.85728 41.143 14.5324 41.143 24.0001Z" fill="white"/>
</svg>
