<svg width="48" height="48" viewBox="0 0 48 48" fill="none" xmlns="http://www.w3.org/2000/svg">
<path fill-rule="evenodd" clip-rule="evenodd" d="M10.3516 41.8669L7.23278 42.3419C6.83646 42.4022 6.45123 42.1798 6.30535 41.8064L5.23578 39.0688C4.81289 37.9864 4.96554 36.766 5.64005 35.8197C7.16807 33.6761 9.83929 29.8992 10.4428 28.8539C11.0976 27.7198 9.76946 26.0184 8.63511 24.5652C8.47592 24.3613 8.32055 24.1623 8.175 23.9704C7.9185 23.6322 7.60488 23.3414 7.29249 23.0517C7.21316 22.9781 7.13391 22.9046 7.0557 22.8305C5.93155 21.7644 5.63964 20.0304 6.44829 18.6297L8.16258 15.6605L8.17054 15.6468L9.01976 14.1759C10.3435 11.8831 11.6021 10.1382 13.0701 8.83649C14.5715 7.50506 16.2085 6.71011 18.1728 6.18378L18.8587 6L42.3578 19.5672L38.3601 20.6384C34.96 21.5494 31.5935 23.077 29.8044 26.1759L27.2329 30.6297C26.4243 32.0304 24.7766 32.6446 23.2913 32.2041C23.1879 32.1734 23.0847 32.1415 22.9813 32.1096C22.5742 31.9839 22.1656 31.8577 21.7444 31.8047C21.5056 31.7746 21.2556 31.7396 20.9995 31.7037C19.1739 31.4479 17.0361 31.1483 16.3813 32.2825C16.0422 32.8698 15.5956 33.9115 15.0559 35.1706C14.4161 36.6634 13.6452 38.4619 12.7671 40.1709C12.2911 41.0974 11.3813 41.71 10.3516 41.8669ZM9.41754 20.3441L11.1318 17.3748L25.978 25.9462L24.2637 28.9155L9.41754 20.3441ZM27.7951 23.0364C29.4399 20.9254 31.6129 19.5368 33.7997 18.5852L18.3959 9.69181C17.1769 10.0889 16.2247 10.6215 15.3448 11.4018C14.5416 12.114 13.7531 13.0728 12.88 14.4252L27.7951 23.0364Z" fill="white"/>
</svg>
