<svg width="48" height="48" viewBox="0 0 48 48" fill="none" xmlns="http://www.w3.org/2000/svg">
<path fill-rule="evenodd" clip-rule="evenodd" d="M14.3008 15.8969C14.1467 16.0256 13.9522 16.0961 13.7514 16.0961H2.5715C2.09811 16.0961 1.71436 16.4799 1.71436 16.9532L1.71436 32.1319C1.71436 32.6053 2.09811 32.9891 2.5715 32.9891H12.8704C13.0712 32.9891 13.2657 33.0596 13.4198 33.1883L21.4241 39.8733C21.9822 40.3394 22.8306 39.9426 22.8306 39.2154L22.8306 10.6063C22.8306 9.87914 21.9822 9.48229 21.4241 9.94836L14.3008 15.8969Z" fill="white"/>
<path fill-rule="evenodd" clip-rule="evenodd" d="M42.0521 33.4804C42.5542 32.9783 42.5542 32.1643 42.0521 31.6622L36.1041 25.7142L42.0521 19.7662C42.5542 19.2641 42.5542 18.45 42.0521 17.9479C41.55 17.4458 40.7359 17.4458 40.2338 17.9479L34.2858 23.8959L28.3378 17.9479C27.8357 17.4458 27.0216 17.4458 26.5195 17.9479C26.0174 18.45 26.0174 19.2641 26.5195 19.7662L32.4675 25.7142L26.5195 31.6622C26.0174 32.1643 26.0174 32.9783 26.5195 33.4804C27.0216 33.9825 27.8357 33.9825 28.3378 33.4804L34.2858 27.5324L40.2338 33.4804C40.7359 33.9825 41.55 33.9825 42.0521 33.4804Z" fill="white"/>
</svg>
