<svg width="48" height="48" viewBox="0 0 48 48" fill="none" xmlns="http://www.w3.org/2000/svg">
<path fill-rule="evenodd" clip-rule="evenodd" d="M5.14293 19.5247H13.7514C14.7555 19.5247 15.7277 19.1721 16.4985 18.5285L19.4021 16.1038L19.4021 33.7175L15.6176 30.5568C14.8469 29.9131 13.8746 29.5605 12.8704 29.5605H5.14293L5.14293 19.5247ZM13.4198 33.1883C13.2657 33.0596 13.0712 32.9891 12.8704 32.9891H2.5715C2.09811 32.9891 1.71436 32.6053 1.71436 32.1319L1.71436 16.9532C1.71436 16.4799 2.09811 16.0961 2.5715 16.0961H13.7514C13.9522 16.0961 14.1467 16.0256 14.3008 15.8969L21.4241 9.94836C21.9822 9.48229 22.8306 9.87914 22.8306 10.6063L22.8306 39.2154C22.8306 39.9426 21.9822 40.3394 21.4241 39.8733L13.4198 33.1883Z" fill="white"/>
<path fill-rule="evenodd" clip-rule="evenodd" d="M42.0521 33.4804C42.5542 32.9783 42.5542 32.1643 42.0521 31.6622L36.1041 25.7142L42.0521 19.7662C42.5542 19.2641 42.5542 18.45 42.0521 17.9479C41.55 17.4458 40.7359 17.4458 40.2338 17.9479L34.2858 23.8959L28.3378 17.9479C27.8357 17.4458 27.0216 17.4458 26.5195 17.9479C26.0174 18.45 26.0174 19.2641 26.5195 19.7662L32.4675 25.7142L26.5195 31.6622C26.0174 32.1643 26.0174 32.9783 26.5195 33.4804C27.0216 33.9825 27.8357 33.9825 28.3378 33.4804L34.2858 27.5324L40.2338 33.4804C40.7359 33.9825 41.55 33.9825 42.0521 33.4804Z" fill="white"/>
</svg>
