<svg width="48" height="48" viewBox="0 0 48 48" fill="none" xmlns="http://www.w3.org/2000/svg">
<path d="M5.84785 37.523C5.96666 38.1981 6.79852 38.4728 7.28247 37.9873L11.7035 33.5522L11.703 24.9551C11.703 24.0083 12.4705 23.2407 13.4172 23.2407C14.364 23.2406 15.1316 24.0081 15.1316 24.9549L15.1319 30.1129L18.5606 26.6733L18.5602 18.098C18.5602 17.1512 19.3277 16.3836 20.2745 16.3836C21.2212 16.3836 21.9888 17.151 21.9888 18.0978L21.989 23.234L28.4894 16.713C29.1578 16.0425 30.2432 16.0408 30.9137 16.7092C31.5843 17.3776 31.586 18.463 30.9176 19.1336L24.4341 25.6377L29.5288 25.6377C30.4756 25.6377 31.2431 26.4053 31.2431 27.352C31.2431 28.2988 30.4755 29.0663 29.5288 29.0663L21.0164 29.0662L17.5986 32.4949L22.6718 32.495C23.6186 32.495 24.3861 33.2626 24.3861 34.2093C24.386 35.1561 23.6185 35.9236 22.6717 35.9236L14.1809 35.9234L9.75183 40.3665C9.26832 40.8516 9.54457 41.6818 10.2193 41.7994C39.3734 46.8792 40.8331 27.7066 42.3295 8.05127C42.3798 7.39077 42.4302 6.72972 42.4816 6.06903C42.5225 5.54288 42.0839 5.10428 41.5578 5.14523C40.8972 5.19665 40.2363 5.24697 39.5759 5.29725C19.8946 6.7957 0.697329 8.25731 5.84785 37.523Z" fill="white"/>
</svg>
