<svg width="48" height="48" viewBox="0 0 48 48" fill="none" xmlns="http://www.w3.org/2000/svg">
<path fill-rule="evenodd" clip-rule="evenodd" d="M42.3295 7.90868C40.7815 28.2412 39.2728 48.0572 7.10619 41.0444C6.78263 40.9739 6.51059 40.7018 6.44005 40.3783C-0.572754 8.21143 19.2433 6.70272 39.5759 5.15467C40.2363 5.10439 40.8972 5.05407 41.5578 5.00265C42.0839 4.9617 42.5225 5.4003 42.4816 5.92646C42.4303 6.58577 42.38 7.24545 42.3298 7.90458L42.3295 7.90868ZM38.8342 8.65C34.5895 8.97535 30.5309 9.30892 26.7513 9.93212C22.0933 10.7001 18.209 11.8603 15.2485 13.7424C12.3992 15.5538 10.299 18.0967 9.22414 21.9834C8.2932 25.3498 8.09397 29.8715 9.08685 35.9734L11.7035 33.3567L11.7031 24.8125C11.703 23.8657 12.4705 23.0981 13.4172 23.0981C14.364 23.098 15.1316 23.8655 15.1316 24.8123L15.1319 29.9282L18.5606 26.4993L18.5603 17.9554C18.5602 17.0086 19.3277 16.241 20.2745 16.241C21.2212 16.241 21.9888 17.0084 21.9888 17.9552L21.989 23.0708L28.4911 16.5685C29.1605 15.8991 30.246 15.899 30.9154 16.5685C31.5849 17.238 31.5849 18.3234 30.9155 18.9929L24.4135 25.4951L29.5288 25.4951C30.4756 25.4951 31.2431 26.2627 31.2431 27.2094C31.2431 28.1562 30.4755 28.9237 29.5288 28.9237L20.9851 28.9236L17.5565 32.3523L22.6718 32.3524C23.6186 32.3524 24.3861 33.12 24.3861 34.0667C24.386 35.0135 23.6185 35.781 22.6717 35.781L14.1282 35.7808L11.5113 38.3976C17.6131 39.3905 22.1347 39.1912 25.501 38.2603C29.3877 37.1854 31.9305 35.0851 33.742 32.2358C35.6241 29.2753 36.7841 25.391 37.5521 20.733C38.1753 16.9534 38.5089 12.8948 38.8342 8.65Z" fill="white"/>
</svg>
