<svg width="48" height="48" viewBox="0 0 48 48" fill="none" xmlns="http://www.w3.org/2000/svg">
<path fill-rule="evenodd" clip-rule="evenodd" d="M22.9148 8.95977C23.5463 8.44309 24.4544 8.4431 25.0859 8.95978L43.9429 24.3886C44.5037 24.8475 44.7155 25.6093 44.4719 26.2917C44.2283 26.9741 43.582 27.4297 42.8574 27.4297H36.0002V37.7151C36.0002 38.6619 35.2327 39.4294 34.2859 39.4294H13.7145C12.7677 39.4294 12.0002 38.6619 12.0002 37.7151V27.4297H5.14309C4.41851 27.4297 3.77218 26.9741 3.52858 26.2917C3.28499 25.6093 3.49674 24.8475 4.05753 24.3886L22.9148 8.95977ZM9.94546 24.0011H15.4288V36.0008H32.5717V24.0011H38.055L24.0003 12.5015L9.94546 24.0011Z" fill="white"/>
</svg>
