<svg width="48" height="48" viewBox="0 0 48 48" fill="none" xmlns="http://www.w3.org/2000/svg">
<path d="M24.5 17C24.5 16.1716 23.8284 15.5 23 15.5C22.1716 15.5 21.5 16.1716 21.5 17V27.5H32C32.8284 27.5 33.5 26.8284 33.5 26C33.5 25.1716 32.8284 24.5 32 24.5H24.5V17Z" fill="white"/>
<path fill-rule="evenodd" clip-rule="evenodd" d="M43 24C43 34.4934 34.4934 43 24 43C13.5066 43 5 34.4934 5 24C5 13.5066 13.5066 5 24 5C34.4934 5 43 13.5066 43 24ZM40 24C40 32.8366 32.8366 40 24 40C15.1634 40 8 32.8366 8 24C8 15.1634 15.1634 8 24 8C32.8366 8 40 15.1634 40 24Z" fill="white"/>
</svg>
