<svg width="48" height="48" viewBox="0 0 48 48" fill="none" xmlns="http://www.w3.org/2000/svg">
<path fill-rule="evenodd" clip-rule="evenodd" d="M20.8945 20.6882L41.2117 16.4227C42.1383 16.2281 42.7237 15.321 42.5193 14.3966L40.843 6.81663C40.6386 5.89219 39.7217 5.30048 38.7952 5.49501L5.10608 12.5679C4.1795 12.7625 3.59409 13.6696 3.79853 14.594L5.14621 20.6882H5.14261V42.8576C5.14261 43.8043 5.91012 44.5718 6.8569 44.5718H42.8569C43.8037 44.5718 44.5712 43.8043 44.5712 42.8576V22.4025C44.5712 21.4557 43.8037 20.6882 42.8569 20.6882H20.8945ZM8.46004 19.7957L7.52411 15.5634L16.8359 13.6084L14.8269 18.459L8.46004 19.7957ZM17.8752 17.819L19.8842 12.9684L27.949 11.2753L26.1306 16.0858L17.8752 17.819ZM29.1166 15.4589L30.935 10.6484L37.8578 9.19494L38.7937 13.4272L29.1166 15.4589Z" fill="white"/>
</svg>
