<svg width="48" height="48" viewBox="0 0 48 48" fill="none" xmlns="http://www.w3.org/2000/svg">
<path fill-rule="evenodd" clip-rule="evenodd" d="M3.79902 14.594C3.59458 13.6696 4.17999 12.7625 5.10657 12.5679L38.7957 5.49501C39.7222 5.30048 40.6391 5.89219 40.8435 6.81663L42.5198 14.3966C42.7242 15.321 42.1388 16.2281 41.2122 16.4227L20.8958 20.688H42.8574C43.8041 20.688 44.5717 21.4555 44.5717 22.4023V42.8574C44.5717 43.8042 43.8041 44.5717 42.8574 44.5717H6.85738C5.9106 44.5717 5.14309 43.8042 5.14309 42.8574V20.688H5.14666L3.79902 14.594ZM8.46053 19.7957L7.52459 15.5634L16.8364 13.6084L14.8274 18.459L8.46053 19.7957ZM17.8757 17.819L19.8847 12.9684L27.9495 11.2753L26.1311 16.0858L17.8757 17.819ZM29.1171 15.4589L38.7942 13.4272L37.8583 9.19494L30.9355 10.6484L29.1171 15.4589ZM8.57166 24.1166H41.1431V41.1431H8.57166V24.1166Z" fill="white"/>
</svg>
