<svg width="48" height="48" viewBox="0 0 48 48" fill="none" xmlns="http://www.w3.org/2000/svg">
<path d="M4.08982 8.97175C4.12705 6.26048 6.32405 4.08191 9.03551 4.06407C13.3645 4.03559 19.728 4 24.4995 4C29.271 4 35.6345 4.03559 39.9635 4.06407C42.675 4.08191 44.872 6.26048 44.9092 8.97175C44.9529 12.1545 44.9995 16.2983 44.9995 19.5C44.9995 22.7017 44.9529 26.8455 44.9092 30.0283C44.872 32.7395 42.675 34.9181 39.9635 34.9359C35.6345 34.9644 29.271 35 24.4995 35C19.728 35 13.3645 34.9644 9.03551 34.9359C6.32404 34.9181 4.12705 32.7395 4.08982 30.0283C4.04611 26.8455 3.99951 22.7017 3.99951 19.5C3.99951 16.2983 4.04611 12.1545 4.08982 8.97175Z" fill="white"/>
<path fill-rule="evenodd" clip-rule="evenodd" d="M10.0191 43.0276C10.0191 42.0808 10.7866 41.3133 11.7334 41.3133H38.3916C39.3383 41.3133 40.1058 42.0808 40.1058 43.0276C40.1058 43.9744 39.3383 44.7419 38.3916 44.7419H11.7334C10.7866 44.7419 10.0191 43.9744 10.0191 43.0276Z" fill="white"/>
</svg>
