<svg width="48" height="48" viewBox="0 0 48 48" fill="none" xmlns="http://www.w3.org/2000/svg">
<path fill-rule="evenodd" clip-rule="evenodd" d="M41.5709 19.5C41.5709 16.3232 41.5246 12.1992 41.481 9.01883C41.4694 8.17629 40.7885 7.49814 39.941 7.49257C35.6125 7.46409 29.2588 7.42857 24.4995 7.42857C19.7402 7.42857 13.3865 7.46409 9.05807 7.49257C8.21047 7.49814 7.52963 8.17629 7.51806 9.01883C7.47439 12.1992 7.42808 16.3232 7.42808 19.5C7.42808 22.6768 7.47439 26.8008 7.51806 29.9812C7.52963 30.8237 8.21047 31.5019 9.05807 31.5074C13.3865 31.5359 19.7402 31.5714 24.4995 31.5714C29.2588 31.5714 35.6125 31.5359 39.941 31.5074C40.7885 31.5019 41.4694 30.8237 41.481 29.9812C41.5246 26.8008 41.5709 22.6768 41.5709 19.5ZM9.03551 4.06407C6.32405 4.08191 4.12705 6.26048 4.08982 8.97175C4.04611 12.1545 3.99951 16.2983 3.99951 19.5C3.99951 22.7017 4.04611 26.8455 4.08982 30.0283C4.12705 32.7395 6.32404 34.9181 9.03551 34.9359C13.3645 34.9644 19.728 35 24.4995 35C29.271 35 35.6345 34.9644 39.9635 34.9359C42.675 34.9181 44.872 32.7395 44.9092 30.0283C44.9529 26.8455 44.9995 22.7017 44.9995 19.5C44.9995 16.2983 44.9529 12.1545 44.9092 8.97175C44.872 6.26048 42.675 4.08191 39.9635 4.06407C35.6345 4.03559 29.271 4 24.4995 4C19.728 4 13.3645 4.03559 9.03551 4.06407Z" fill="white"/>
<path fill-rule="evenodd" clip-rule="evenodd" d="M10.0191 43.0276C10.0191 42.0808 10.7866 41.3133 11.7334 41.3133H38.3916C39.3383 41.3133 40.1058 42.0808 40.1058 43.0276C40.1058 43.9744 39.3383 44.7419 38.3916 44.7419H11.7334C10.7866 44.7419 10.0191 43.9744 10.0191 43.0276Z" fill="white"/>
</svg>
