<svg width="48" height="48" viewBox="0 0 48 48" fill="none" xmlns="http://www.w3.org/2000/svg">
<path d="M21.3929 20.4286C22.813 20.4286 23.9643 19.2773 23.9643 17.8571C23.9643 16.437 22.813 15.2857 21.3929 15.2857C19.9727 15.2857 18.8214 16.437 18.8214 17.8571C18.8214 19.2773 19.9727 20.4286 21.3929 20.4286Z" fill="white"/>
<path d="M32.5357 17.8571C32.5357 19.2773 31.3844 20.4286 29.9643 20.4286C28.5441 20.4286 27.3929 19.2773 27.3929 17.8571C27.3929 16.437 28.5441 15.2857 29.9643 15.2857C31.3844 15.2857 32.5357 16.437 32.5357 17.8571Z" fill="white"/>
<path d="M22.25 28.9998C22.2503 22.1429 30.8214 22.1425 30.8214 28.9999C30.8214 30.8212 29.5315 30.493 28.1698 30.1464C27.6089 30.0037 27.0358 29.8578 26.5357 29.8578C26.3013 29.8578 25.9297 29.958 25.501 30.0736C24.1565 30.436 22.25 30.95 22.25 28.9998Z" fill="white"/>
<path fill-rule="evenodd" clip-rule="evenodd" d="M24.8196 5C16.7721 5 10.2484 11.5239 10.2484 19.5714C10.2484 24.0141 9.24205 27.662 8.10411 30.7673C7.70214 31.8642 7.29518 32.865 6.90259 33.8304C6.72981 34.2553 6.55981 34.6734 6.39424 35.0898C5.87085 36.4062 5.38947 37.7118 5.1424 38.9503C4.99768 39.6758 4.90566 40.5203 5.15828 41.2693C5.30189 41.695 5.57279 42.1354 6.0322 42.4552C6.48168 42.768 6.96356 42.8623 7.35406 42.8698C8.05556 42.8833 8.73653 42.6203 9.22168 42.4021C9.75901 42.1605 10.3434 41.8356 10.9179 41.5034C11.1971 41.3418 11.4781 41.1763 11.7612 41.0096C12.695 40.4597 13.6517 39.8963 14.6435 39.4167C15.8401 38.8381 16.8821 38.4892 17.7329 38.4358C17.8131 38.49 17.9256 38.5744 18.077 38.7006C18.3471 38.9258 18.6085 39.1675 18.9164 39.4523C19.1354 39.6549 19.3784 39.8795 19.6645 40.1353C20.2858 40.6906 21.0324 41.3155 21.8535 41.8038C22.6696 42.2892 23.6821 42.7143 24.8196 42.7143C25.9398 42.7143 27.014 42.3134 27.9139 41.8642C28.8326 41.4057 29.7326 40.8118 30.5212 40.2704C30.7472 40.1152 30.9612 39.9665 31.165 39.8248C31.711 39.4453 32.1848 39.1159 32.6256 38.8463C32.9189 38.6669 33.1429 38.5487 33.309 38.479C33.3743 38.4515 33.4175 38.4373 33.4411 38.4303C33.7547 38.4514 34.3413 38.6737 35.2351 39.276C35.9128 39.7326 36.5715 40.2662 37.2346 40.8033L37.236 40.8044C37.4445 40.9733 37.6534 41.1425 37.8635 41.3098C38.275 41.6375 38.7122 41.9737 39.1214 42.2308C39.3278 42.3605 39.5656 42.4948 39.8204 42.6C40.06 42.699 40.4223 42.8182 40.8487 42.8129C41.3291 42.807 41.8772 42.6381 42.311 42.1894C42.7009 41.786 42.8453 41.3124 42.9039 40.9812C43.0148 40.3544 42.9204 39.632 42.7813 38.9455C42.5292 37.7003 42.1689 36.3929 41.7764 34.9688C40.7036 31.0767 39.3908 26.3135 39.3908 19.5714C39.3908 11.5239 32.8671 5 24.8196 5ZM13.677 19.5714C13.677 13.4174 18.6657 8.42857 24.8196 8.42857C30.9735 8.42857 35.9623 13.4174 35.9623 19.5714C35.9623 26.8317 37.4709 32.2997 38.5562 36.2334C38.7096 36.7891 38.8544 37.3142 38.9854 37.8095C38.4158 37.3521 37.7812 36.8573 37.1511 36.4327C36.1602 35.765 34.8073 35 33.3927 35C32.8498 35 32.3564 35.1604 31.9813 35.3179C31.5895 35.4825 31.1999 35.6992 30.8364 35.9216C30.3027 36.2481 29.7062 36.6628 29.1325 37.0617C28.9451 37.192 28.7601 37.3206 28.5805 37.4439C27.8086 37.9739 27.0741 38.4515 26.3828 38.7965C25.6727 39.1509 25.1615 39.2857 24.8196 39.2857C24.5355 39.2857 24.141 39.1751 23.6059 38.8569C23.0757 38.5416 22.5267 38.0951 21.9493 37.579C21.7651 37.4143 21.5606 37.2259 21.3509 37.0327C20.9801 36.691 20.5929 36.3343 20.2726 36.0673C20.0023 35.8419 19.6906 35.6019 19.3606 35.4122C19.0564 35.2373 18.5601 35 17.9567 35C16.2756 35 14.5846 35.6368 13.151 36.33C12.019 36.8774 10.8954 37.5396 9.94518 38.0996C9.68276 38.2542 9.43356 38.4011 9.20106 38.5356C9.02449 38.6377 8.85846 38.7323 8.70242 38.8191C8.90786 38.1038 9.20648 37.2965 9.58021 36.3566C9.72743 35.9863 9.88671 35.5946 10.0534 35.1845C10.4551 34.1964 10.9 33.1022 11.3233 31.947C12.5412 28.6237 13.677 24.5574 13.677 19.5714Z" fill="white"/>
</svg>
