<svg width="48" height="48" viewBox="0 0 48 48" fill="none" xmlns="http://www.w3.org/2000/svg">
<path fill-rule="evenodd" clip-rule="evenodd" d="M22.9688 3.42789C20.5959 3.44029 18.3233 3.87301 16.2212 4.65517C8.72555 7.4443 3.39937 14.6769 3.42883 23.1389C3.46655 33.9739 12.2706 42.7322 23.1056 42.7134C27.2791 42.7061 31.1467 41.3977 34.3249 39.1724L42.0757 46.9234C43.4146 48.2624 45.5855 48.2624 46.9244 46.9235C48.2634 45.5846 48.2634 43.4137 46.9245 42.0748L39.1735 34.3236C41.4051 31.1364 42.7143 27.2563 42.7144 23.0708C42.7076 17.8454 40.6218 12.8375 36.9173 9.15231C34.8619 7.10763 32.402 5.56336 29.7267 4.59715C27.5802 3.8219 25.295 3.41877 22.9688 3.42789ZM23.0937 35.8562C30.1449 35.844 35.8549 30.1256 35.8572 23.0748C35.8515 19.6729 34.4931 16.4129 32.0812 14.0137C29.6692 11.6142 26.402 10.2727 22.9999 10.285C15.9496 10.3244 10.2614 16.064 10.2859 23.115C10.3105 30.1676 16.0411 35.8685 23.0937 35.8562Z" fill="white"/>
</svg>
