<svg width="48" height="48" viewBox="0 0 48 48" fill="none" xmlns="http://www.w3.org/2000/svg">
<path fill-rule="evenodd" clip-rule="evenodd" d="M22.9688 3.42789C21.8037 3.43398 20.6628 3.54139 19.5545 3.74174C10.3552 5.40456 3.39517 13.469 3.42883 23.1389C3.46655 33.9739 12.2706 42.7322 23.1056 42.7134C27.9 42.7051 32.2907 40.9796 35.6964 38.1196L43.2879 45.7113C43.9574 46.3808 45.0428 46.3808 45.7123 45.7113C46.3817 45.0418 46.3817 43.9564 45.7123 43.2869L38.1207 35.6952C40.9878 32.281 42.7143 27.8772 42.7144 23.0708C42.7076 17.8454 40.6218 12.8375 36.9173 9.15231C34.0302 6.28023 30.3449 4.39551 26.3857 3.71329C25.2648 3.52013 24.1218 3.42337 22.9688 3.42789ZM23.0997 39.2848C32.0428 39.2693 39.2846 32.0157 39.2858 23.0727C39.2795 18.7592 37.5574 14.6252 34.4993 11.583C31.4411 8.54069 27.2982 6.84014 22.9846 6.85642C14.0419 6.90435 6.82625 14.1839 6.85738 23.127C6.88852 32.0708 14.1559 39.3003 23.0997 39.2848Z" fill="white"/>
</svg>
