<svg width="48" height="48" viewBox="0 0 48 48" fill="none" xmlns="http://www.w3.org/2000/svg">
<path d="M33 24C33 25.35 32.9454 26.6703 32.8411 27.9495C34.6497 28.1454 36.3023 28.4002 37.744 28.7037C39.4375 29.0602 40.9132 29.4988 42.0243 30.0267C42.6572 28.133 43 26.1066 43 24C43 21.8934 42.6572 19.8669 42.0243 17.9732C40.9132 18.5012 39.4374 18.9397 37.744 19.2962C36.3023 19.5997 34.6497 19.8545 32.8411 20.0504C32.9454 21.3296 33 22.6499 33 24Z" fill="white"/>
<path d="M40.8484 15.2091C38.3079 10.3501 33.7271 6.72651 28.2431 5.47559C30.2168 7.9421 31.7505 12.0758 32.4984 17.07C34.2244 16.8836 35.7846 16.643 37.126 16.3606C38.793 16.0096 40.0424 15.6104 40.8385 15.2141L40.8484 15.2091Z" fill="white"/>
<path d="M19.7569 5.47559C14.2729 6.72651 9.69209 10.3501 7.15161 15.2091L7.16151 15.2141C7.95764 15.6104 9.20697 16.0096 10.874 16.3606C12.2154 16.643 13.7756 16.8836 15.5016 17.07C16.2495 12.0758 17.7832 7.9421 19.7569 5.47559Z" fill="white"/>
<path d="M5.97575 17.9732C7.08682 18.5012 8.56256 18.9397 10.256 19.2962C11.6977 19.5997 13.3503 19.8545 15.1589 20.0504C15.0546 21.3296 15 22.6499 15 24C15 25.35 15.0546 26.6703 15.1589 27.9495C13.3503 28.1454 11.6977 28.4002 10.256 28.7037C8.56254 29.0602 7.08679 29.4988 5.97571 30.0267C5.34282 28.133 5 26.1066 5 24C5 21.8934 5.34283 19.8669 5.97575 17.9732Z" fill="white"/>
<path d="M7.15156 32.7908C9.69204 37.6499 14.2729 41.2736 19.757 42.5245C17.7833 40.058 16.2495 35.9242 15.5016 30.9299C13.7756 31.1163 12.2154 31.357 10.874 31.6394C9.20697 31.9903 7.95765 32.3896 7.16151 32.7858L7.15156 32.7908Z" fill="white"/>
<path d="M28.243 42.5245C33.7271 41.2736 38.308 37.6499 40.8484 32.7908L40.8385 32.7858C40.0424 32.3896 38.793 31.9903 37.126 31.6394C35.7846 31.357 34.2244 31.1163 32.4984 30.9299C31.7505 35.9242 30.2167 40.058 28.243 42.5245Z" fill="white"/>
<path d="M30 24C30 25.2687 29.9488 26.502 29.8523 27.6899C27.9998 27.5662 26.0335 27.5 24 27.5C21.9665 27.5 20.0002 27.5662 18.1477 27.6899C18.0512 26.502 18 25.2687 18 24C18 22.7313 18.0512 21.4979 18.1477 20.31C20.0002 20.4338 21.9665 20.5 24 20.5C26.0335 20.5 27.9998 20.4338 29.8523 20.31C29.9488 21.4979 30 22.7313 30 24Z" fill="white"/>
<path d="M24 30.5C25.9215 30.5 27.7694 30.561 29.5029 30.6734C29.0835 33.384 28.4215 35.7657 27.6065 37.6674C26.8875 39.3452 26.1083 40.5114 25.3959 41.2144C24.6964 41.9048 24.2281 42 24 42C23.7719 42 23.3036 41.9048 22.6041 41.2144C21.8917 40.5114 21.1125 39.3452 20.3935 37.6674C19.5785 35.7657 18.9165 33.384 18.4971 30.6734C20.2306 30.561 22.0785 30.5 24 30.5Z" fill="white"/>
<path d="M18.4971 17.3265C18.9165 14.6159 19.5785 12.2342 20.3935 10.3325C21.1125 8.65467 21.8917 7.48856 22.6041 6.78548C23.3036 6.09513 23.7719 5.99996 24 5.99996C24.2281 5.99996 24.6964 6.09513 25.3959 6.78548C26.1083 7.48856 26.8875 8.65467 27.6065 10.3325C28.4215 12.2342 29.0835 14.6159 29.5029 17.3265C27.7694 17.4389 25.9215 17.5 24 17.5C22.0785 17.5 20.2306 17.4389 18.4971 17.3265Z" fill="white"/>
</svg>
