<svg width="48" height="48" viewBox="0 0 48 48" fill="none" xmlns="http://www.w3.org/2000/svg">
<path fill-rule="evenodd" clip-rule="evenodd" d="M24 5C34.4934 5 43 13.5066 43 24C43 34.4934 34.4934 43 24 43C13.5066 43 5 34.4934 5 24C5 13.5066 13.5066 5 24 5ZM24 40C24.6511 40 26.1448 39.3341 27.6527 36.1508C28.3565 34.665 28.9461 32.8409 29.3583 30.7708C27.7117 30.5971 25.9041 30.5 24 30.5C22.0959 30.5 20.2883 30.5971 18.6417 30.7708C19.0539 32.8409 19.6435 34.665 20.3473 36.1508C21.8552 39.3341 23.3489 40 24 40ZM18.1951 27.8015C18.0682 26.5877 18 25.3158 18 24C18 22.6842 18.0682 21.4123 18.1951 20.1985C19.9997 20.3941 21.9594 20.5 24 20.5C26.0406 20.5 28.0003 20.3941 29.8049 20.1985C29.9318 21.4123 30 22.6842 30 24C30 25.3158 29.9318 26.5877 29.8049 27.8015C28.0003 27.6059 26.0406 27.5 24 27.5C21.9594 27.5 19.9997 27.6059 18.1951 27.8015ZM32.3317 31.1981C31.7288 34.3048 30.7474 36.9995 29.5086 39.0265C32.7073 37.8535 35.4273 35.6883 37.2957 32.9038C37.2264 32.8489 37.1368 32.7847 37.0212 32.7119C36.4439 32.3479 35.509 31.9646 34.2201 31.6209C33.6423 31.4669 33.0105 31.3252 32.3317 31.1981ZM38.7345 30.2472C38.6965 30.2222 38.6587 30.1978 38.6212 30.1742C37.6804 29.581 36.4187 29.1024 34.9931 28.7222C34.3086 28.5397 33.5667 28.3748 32.7762 28.2294C32.9227 26.8693 33 25.4537 33 24C33 22.5463 32.9227 21.1307 32.7762 19.7706C33.5667 19.6252 34.3086 19.4603 34.9931 19.2778C36.4187 18.8976 37.6804 18.419 38.6212 17.8258C38.6587 17.8022 38.6965 17.7778 38.7345 17.7528C39.5493 19.6722 40 21.7834 40 24C40 26.2166 39.5493 28.3278 38.7345 30.2472ZM15.2238 28.2294C14.4333 28.3748 13.6914 28.5397 13.0069 28.7222C11.5813 29.1024 10.3196 29.581 9.37879 30.1742C9.34128 30.1978 9.3035 30.2222 9.26553 30.2472C8.45073 28.3278 8 26.2166 8 24C8 21.7834 8.45073 19.6722 9.26553 17.7528C9.30349 17.7779 9.34128 17.8022 9.37879 17.8258C10.3196 18.419 11.5813 18.8976 13.0069 19.2778C13.6914 19.4603 14.4333 19.6252 15.2238 19.7706C15.0773 21.1307 15 22.5463 15 24C15 25.4537 15.0773 26.8693 15.2238 28.2294ZM10.7043 32.9038C10.7736 32.8489 10.8632 32.7847 10.9788 32.7119C11.5561 32.3479 12.491 31.9646 13.7799 31.6209C14.3577 31.4669 14.9895 31.3252 15.6683 31.1981C16.2712 34.3048 17.2526 36.9995 18.4914 39.0265C15.2927 37.8535 12.5727 35.6883 10.7043 32.9038ZM24 17.5C25.9041 17.5 27.7117 17.4029 29.3583 17.2292C28.9461 15.1591 28.3565 13.335 27.6527 11.8492C26.1448 8.66586 24.6511 8 24 8C23.3489 8 21.8552 8.66586 20.3473 11.8492C19.6435 13.335 19.0539 15.1591 18.6417 17.2292C20.2883 17.4029 22.0959 17.5 24 17.5ZM37.0212 15.2881C37.1368 15.2153 37.2264 15.1511 37.2957 15.0962C35.4273 12.3117 32.7073 10.1465 29.5086 8.97353C30.7474 11.0005 31.7288 13.6952 32.3317 16.8019C33.0105 16.6748 33.6423 16.5331 34.2201 16.3791C35.509 16.0354 36.4439 15.6521 37.0212 15.2881ZM18.4914 8.97354C17.2526 11.0005 16.2712 13.6952 15.6683 16.8019C14.9895 16.6748 14.3577 16.5331 13.7799 16.3791C12.491 16.0354 11.5561 15.6521 10.9788 15.2881C10.8632 15.2153 10.7736 15.1511 10.7043 15.0962C12.5727 12.3117 15.2927 10.1465 18.4914 8.97354Z" fill="white"/>
</svg>
