<svg width="48" height="48" viewBox="0 0 48 48" fill="none" xmlns="http://www.w3.org/2000/svg">
<path fill-rule="evenodd" clip-rule="evenodd" d="M12.9053 11.6384C11.4588 11.6384 10.2861 12.7679 10.2861 14.1611L10.2861 28.2055C10.2861 29.1344 11.0679 29.8874 12.0323 29.8874C12.9966 29.8874 13.7784 29.1344 13.7784 28.2055V15.002L25.1204 15.002L19.3215 20.801C18.7553 21.3673 18.7728 22.2685 19.3608 22.8139C19.9487 23.3593 20.8843 23.3424 21.4506 22.7761L30.9063 13.3202L21.4506 3.86471C20.8843 3.29845 19.9487 3.28156 19.3608 3.82697C18.7729 4.37239 18.7553 5.27357 19.3216 5.83983L25.1203 11.6384L12.9053 11.6384Z" fill="white"/>
<path fill-rule="evenodd" clip-rule="evenodd" d="M35.1771 37.0261C36.6236 37.0261 37.7963 35.8966 37.7963 34.5033L37.7963 20.4589C37.7963 19.5301 37.0145 18.7771 36.0501 18.7771C35.0858 18.7771 34.304 19.5301 34.304 20.4589L34.304 33.6624L22.962 33.6624L28.7609 27.8634C29.3271 27.2971 29.3096 26.396 28.7217 25.8506C28.1337 25.3052 27.1981 25.3221 26.6318 25.8883L17.1761 35.3443L26.6318 44.7997C27.1981 45.366 28.1337 45.3829 28.7216 44.8375C29.3095 44.2921 29.3271 43.3909 28.7608 42.8246L22.9621 37.0261L35.1771 37.0261Z" fill="white"/>
</svg>
