<svg width="48" height="48" viewBox="0 0 48 48" fill="none" xmlns="http://www.w3.org/2000/svg">
<path d="M9.17287 13.525C11.4068 10.3181 14.7044 7.82126 18.7511 6.61641C28.2789 3.77964 38.3504 9.18933 41.2464 18.6993C44.1423 28.2092 38.7662 38.2182 29.2384 41.055C23.5797 42.7398 17.73 41.5183 13.2985 38.2476C10.275 36.016 7.91956 32.8351 6.74318 28.9721C6.32947 27.6136 4.89069 26.8407 3.52958 27.246C2.16847 27.6512 1.40045 29.0811 1.81416 30.4397C3.32465 35.3999 6.35831 39.4981 10.2463 42.3677C15.9304 46.563 23.4573 48.1421 30.7366 45.9748C42.9866 42.3275 49.8988 29.4588 46.1754 17.2317C42.452 5.00465 29.5029 -1.95066 17.2529 1.69661C12.7326 3.04249 8.93887 5.64542 6.13885 9.006L6.13885 5.38976C6.13886 4.20834 5.17782 3.24565 3.99232 3.23952C2.80682 3.23339 1.84579 4.18615 1.84579 5.36756L1.84577 17.8037L14.2892 17.8032C15.4747 17.8031 16.4307 16.8454 16.4245 15.6639C16.4183 14.4825 15.4523 13.5248 14.2668 13.5248L9.17287 13.525Z" fill="white"/>
</svg>
