<svg width="48" height="48" viewBox="0 0 48 48" fill="none" xmlns="http://www.w3.org/2000/svg">
<path d="M7.86573 13.9528C10.1949 10.1539 13.8823 7.17122 18.5011 5.79601C28.4826 2.82416 39.0337 8.49146 42.0676 18.4543C45.1015 28.4171 39.4693 38.9027 29.4878 41.8745C23.559 43.6398 17.4298 42.3587 12.7895 38.9338C9.62197 36.596 7.15347 33.2622 5.9214 29.2163C5.64559 28.3106 4.68641 27.7954 3.779 28.0655C2.87159 28.3357 2.35958 29.2889 2.63539 30.1946C4.09019 34.972 7.01082 38.9173 10.7547 41.6806C16.2301 45.7218 23.4775 47.2413 30.4866 45.1544C42.2829 41.6422 48.9391 29.2501 45.3536 17.4759C41.7681 5.70167 29.2987 -0.996037 17.5024 2.51615C12.5311 3.99628 8.47253 7.0547 5.70937 10.9768L5.70938 5.38738C5.70938 4.44225 4.94055 3.67209 3.99215 3.66719C3.04375 3.66228 2.27492 4.42449 2.27492 5.36962L2.2749 17.3756L14.2868 17.3752C15.2352 17.3752 16 16.6089 15.9951 15.6638C15.9901 14.7186 15.2173 13.9525 14.2689 13.9525L7.86573 13.9528Z" fill="white"/>
</svg>
