<svg width="48" height="48" viewBox="0 0 48 48" fill="none" xmlns="http://www.w3.org/2000/svg">
<path fill-rule="evenodd" clip-rule="evenodd" d="M22.7155 8.62345C22.7148 8.60611 22.7145 8.58867 22.7145 8.57115V3.42829C22.7145 2.71821 23.2901 2.14258 24.0002 2.14258C24.7103 2.14258 25.2859 2.71821 25.2859 3.42829V8.57115C25.2859 8.58867 25.2856 8.60612 25.2849 8.62347C32.1277 9.22527 37.2001 14.9472 37.2001 22.0711V31.714L40.8567 36.7002C41.6871 37.8326 40.8785 39.4283 39.4743 39.4283H31.9538C31.2471 42.6601 28.5666 45.8569 24.0002 45.8569C19.4339 45.8569 16.7533 42.6601 16.0466 39.4283H8.52595C7.12178 39.4283 6.31317 37.8326 7.14354 36.7002L10.8001 31.714V22.0711C10.8001 14.9472 15.8726 9.22517 22.7155 8.62345ZM24.0002 43.2854C21.1455 43.2854 19.3429 41.4752 18.697 39.4283H29.3034C28.6576 41.4752 26.855 43.2854 24.0002 43.2854Z" fill="white"/>
</svg>
